<svg width="3000" height="3000" viewBox="0 0 3000 3000" fill="none" xmlns="http://www.w3.org/2000/svg">
<rect width="3000" height="3000" rx="514" fill="#00004A"/>
<path d="M1229.36 1839.9H725.602L630.973 2121H332.242L820.23 753.52H1143.08L1627.36 2121H1317.5L1229.36 1839.9ZM1149.58 1604.25L978.873 1066.17L802.604 1604.25H1149.58ZM2646.01 1824.12C2639.21 1884.12 2607.97 1945.04 2552.31 2006.89C2465.72 2105.23 2344.5 2154.4 2188.64 2154.4C2059.99 2154.4 1946.5 2112.96 1848.16 2030.08C1749.82 1947.2 1700.65 1812.37 1700.65 1625.59C1700.65 1450.56 1744.87 1316.35 1833.32 1222.95C1922.38 1129.56 2037.73 1082.87 2179.36 1082.87C2263.48 1082.87 2339.24 1098.64 2406.66 1130.18C2474.07 1161.72 2529.74 1211.51 2573.65 1279.54C2613.23 1339.54 2638.9 1409.12 2650.65 1488.29C2657.45 1534.67 2660.24 1601.47 2659 1688.68H1966.91C1970.62 1790.11 2002.47 1861.23 2062.47 1902.05C2098.96 1927.41 2142.87 1940.09 2194.21 1940.09C2248.63 1940.09 2292.85 1924.63 2326.87 1893.71C2345.43 1877.01 2361.82 1853.81 2376.04 1824.12H2646.01ZM2384.39 1514.26C2380.06 1444.37 2358.72 1391.49 2320.38 1355.62C2282.65 1319.13 2235.64 1300.88 2179.36 1300.88C2118.13 1300.88 2070.51 1320.06 2036.49 1358.4C2003.09 1396.75 1982.06 1448.7 1973.4 1514.26H2384.39Z" fill="#8B8BFF"/>
</svg>
