<svg width="915" height="557" viewBox="0 0 915 557" fill="none" xmlns="http://www.w3.org/2000/svg">
<circle cx="278.07" cy="278.07" r="278.07" fill="#D5E8FF"/>
<circle cx="636.928" cy="278.07" r="278.07" fill="#D5E8FF"/>
<path fill-rule="evenodd" clip-rule="evenodd" d="M457.499 490.943C517.83 439.935 556.14 363.692 556.14 278.501C556.14 193.31 517.83 117.066 457.499 66.0586C397.167 117.066 358.857 193.31 358.857 278.501C358.857 363.692 397.167 439.935 457.499 490.943Z" fill="#02006E"/>
<circle cx="247.5" cy="60.5" r="18.5" fill="#0066FF"/>
<path d="M250.2 68H246.94V59.74C246.94 59.5133 246.94 59.2333 246.94 58.9C246.953 58.5667 246.96 58.22 246.96 57.86C246.973 57.5 246.987 57.18 247 56.9C246.893 56.98 246.753 57.1267 246.58 57.34C246.42 57.5533 246.253 57.7333 246.08 57.88L244.58 59.2L242.94 57.38L247.4 53.72H250.2V68Z" fill="white"/>
<circle cx="417.5" cy="213.5" r="18.5" fill="#0066FF"/>
<path d="M420.2 221H416.94V212.74C416.94 212.513 416.94 212.233 416.94 211.9C416.953 211.567 416.96 211.22 416.96 210.86C416.973 210.5 416.987 210.18 417 209.9C416.893 209.98 416.753 210.127 416.58 210.34C416.42 210.553 416.253 210.733 416.08 210.88L414.58 212.2L412.94 210.38L417.4 206.72H420.2V221Z" fill="white"/>
<circle cx="655.5" cy="60.5" r="18.5" fill="#0066FF"/>
<path d="M660.22 68H650.66V65.9L653.98 62.28C654.66 61.5333 655.193 60.9133 655.58 60.42C655.98 59.9133 656.26 59.46 656.42 59.06C656.593 58.6467 656.68 58.2067 656.68 57.74C656.68 57.1667 656.54 56.74 656.26 56.46C655.993 56.18 655.647 56.04 655.22 56.04C654.753 56.04 654.287 56.1667 653.82 56.42C653.367 56.6733 652.867 57.0333 652.32 57.5L650.56 55.56C650.96 55.2 651.38 54.8667 651.82 54.56C652.26 54.2533 652.78 54.0067 653.38 53.82C653.98 53.62 654.7 53.52 655.54 53.52C656.433 53.52 657.207 53.6933 657.86 54.04C658.513 54.3733 659.013 54.8333 659.36 55.42C659.72 55.9933 659.9 56.6467 659.9 57.38C659.9 57.98 659.813 58.5267 659.64 59.02C659.467 59.5133 659.213 60 658.88 60.48C658.56 60.96 658.173 61.46 657.72 61.98C657.267 62.4867 656.76 63.06 656.2 63.7L654.76 65.32L654.74 65.46H660.22V68Z" fill="white"/>
<circle cx="497.5" cy="213.5" r="18.5" fill="#0066FF"/>
<path d="M502.22 221H492.66V218.9L495.98 215.28C496.66 214.533 497.193 213.913 497.58 213.42C497.98 212.913 498.26 212.46 498.42 212.06C498.593 211.647 498.68 211.207 498.68 210.74C498.68 210.167 498.54 209.74 498.26 209.46C497.993 209.18 497.647 209.04 497.22 209.04C496.753 209.04 496.287 209.167 495.82 209.42C495.367 209.673 494.867 210.033 494.32 210.5L492.56 208.56C492.96 208.2 493.38 207.867 493.82 207.56C494.26 207.253 494.78 207.007 495.38 206.82C495.98 206.62 496.7 206.52 497.54 206.52C498.433 206.52 499.207 206.693 499.86 207.04C500.513 207.373 501.013 207.833 501.36 208.42C501.72 208.993 501.9 209.647 501.9 210.38C501.9 210.98 501.813 211.527 501.64 212.02C501.467 212.513 501.213 213 500.88 213.48C500.56 213.96 500.173 214.46 499.72 214.98C499.267 215.487 498.76 216.06 498.2 216.7L496.76 218.32L496.74 218.46H502.22V221Z" fill="white"/>
<path d="M459.075 213.85H463.45V216.525H459.075V221.225H456.275V216.525H451.925V213.85H456.275V209.1H459.075V213.85Z" fill="white"/>
<path d="M205.383 101.719H216.633C218.664 101.719 220.383 102.025 221.789 102.637C223.195 103.249 224.25 104.102 224.953 105.195C225.656 106.276 226.008 107.539 226.008 108.984C226.008 110.586 225.539 111.908 224.602 112.949C223.677 113.991 222.453 114.688 220.93 115.039V115.312C222.023 115.365 223.039 115.677 223.977 116.25C224.927 116.823 225.689 117.624 226.262 118.652C226.848 119.668 227.141 120.846 227.141 122.188C227.141 123.711 226.763 125.059 226.008 126.23C225.266 127.402 224.159 128.327 222.688 129.004C221.229 129.668 219.458 130 217.375 130H205.383V101.719ZM216.203 125.156C217.844 125.156 219.061 124.85 219.855 124.238C220.65 123.613 221.047 122.747 221.047 121.641C221.047 120.846 220.852 120.143 220.461 119.531C220.083 118.919 219.543 118.444 218.84 118.105C218.137 117.754 217.31 117.578 216.359 117.578H211.242V125.156H216.203ZM215.773 113.555C216.594 113.555 217.329 113.411 217.98 113.125C218.632 112.826 219.139 112.402 219.504 111.855C219.882 111.309 220.07 110.664 220.07 109.922C220.07 108.88 219.699 108.047 218.957 107.422C218.228 106.797 217.206 106.484 215.891 106.484H211.242V113.555H215.773ZM230.852 101.719H236.711V125.156H248.898V130H230.852V101.719ZM276.086 101.719V120.078C276.086 122.122 275.598 123.926 274.621 125.488C273.645 127.051 272.271 128.262 270.5 129.121C268.729 129.967 266.685 130.391 264.367 130.391C262.049 130.391 260.005 129.967 258.234 129.121C256.477 128.262 255.109 127.051 254.133 125.488C253.169 123.926 252.688 122.122 252.688 120.078V101.719H258.547V119.609C258.547 120.69 258.788 121.66 259.27 122.52C259.751 123.366 260.435 124.03 261.32 124.512C262.206 124.993 263.221 125.234 264.367 125.234C265.526 125.234 266.548 124.993 267.434 124.512C268.319 124.03 268.996 123.366 269.465 122.52C269.947 121.66 270.188 120.69 270.188 119.609V101.719H276.086ZM280.852 101.719H299.836V106.562H286.711V113.438H298.859V118.281H286.711V125.156H299.875V130H280.852V101.719Z" fill="#02006E"/>
<path d="M243.826 148.996H247.752V152.131H243.826V165.695H240.076V139.035H243.826V148.996ZM227.361 147.648H232.898V141.145H236.619V159.514H223.641V141.145H227.361V147.648ZM232.898 156.496V150.549H227.361V156.496H232.898ZM269.754 148.938H273.68V151.984H269.754V165.754H266.004V139.035H269.754V148.938ZM262.283 144.514H253.494V156.203C255.594 156.184 257.469 156.11 259.119 155.983C260.77 155.856 262.43 155.646 264.1 155.354L264.51 158.488C262.723 158.791 260.96 159.001 259.222 159.118C257.493 159.226 255.506 159.279 253.26 159.279H252.029H249.773V141.496H262.283V144.514Z" fill="#02006E"/>
<path d="M643.74 144.66H630.645V141.76H635.361V139.211H639.082V141.76H643.74V144.66ZM637.236 145.48C638.359 145.48 639.36 145.686 640.239 146.096C641.118 146.506 641.807 147.082 642.305 147.824C642.803 148.557 643.057 149.396 643.066 150.344C643.057 151.252 642.803 152.067 642.305 152.79C641.807 153.503 641.113 154.06 640.225 154.46C639.346 154.86 638.35 155.061 637.236 155.061C636.133 155.061 635.142 154.86 634.263 154.46C633.394 154.05 632.71 153.488 632.212 152.775C631.714 152.062 631.465 151.252 631.465 150.344C631.465 149.396 631.714 148.557 632.212 147.824C632.71 147.082 633.394 146.506 634.263 146.096C635.142 145.686 636.133 145.48 637.236 145.48ZM637.236 148.264C636.484 148.264 635.889 148.444 635.449 148.806C635.02 149.157 634.805 149.67 634.805 150.344C634.805 150.969 635.024 151.452 635.464 151.794C635.903 152.136 636.494 152.307 637.236 152.307C637.979 152.307 638.569 152.136 639.009 151.794C639.458 151.452 639.688 150.969 639.697 150.344C639.688 149.67 639.463 149.157 639.023 148.806C638.584 148.444 637.988 148.264 637.236 148.264ZM653.701 155.734H650.156V149.143H648.105V155.588H644.561V139.475H648.105V146.096H650.156V139.064H653.701V155.734ZM653.701 165.695H649.98V159.924H635.273V156.936H653.701V165.695ZM679.043 154.094H675.293V139.064H679.043V154.094ZM679.043 165.402H661.172V155.324H679.043V165.402ZM664.863 162.414H675.381V158.283H664.863V162.414ZM666.943 142.609C666.934 143.723 667.153 144.782 667.603 145.788C668.062 146.784 668.755 147.673 669.683 148.454C670.62 149.235 671.787 149.846 673.184 150.285L671.367 153.127C669.883 152.688 668.604 152.033 667.529 151.164C666.465 150.285 665.625 149.235 665.01 148.015C664.385 149.343 663.521 150.49 662.417 151.457C661.313 152.424 659.99 153.146 658.447 153.625L656.631 150.695C658.057 150.266 659.248 149.636 660.205 148.806C661.172 147.966 661.885 147.014 662.344 145.949C662.812 144.875 663.047 143.762 663.047 142.609V140.031H666.943V142.609Z" fill="#02006E"/>
<path d="M628.289 111.562C628.133 110.534 627.775 109.642 627.215 108.887C626.655 108.118 625.939 107.533 625.066 107.129C624.194 106.725 623.211 106.523 622.117 106.523C620.646 106.523 619.357 106.895 618.25 107.637C617.156 108.366 616.31 109.434 615.711 110.84C615.112 112.233 614.812 113.906 614.812 115.859C614.812 117.852 615.112 119.551 615.711 120.957C616.31 122.35 617.156 123.405 618.25 124.121C619.344 124.837 620.62 125.195 622.078 125.195C623.706 125.195 625.073 124.766 626.18 123.906C627.299 123.047 628.003 121.862 628.289 120.352L634.227 120.391C634.005 122.174 633.374 123.828 632.332 125.352C631.29 126.875 629.884 128.099 628.113 129.023C626.342 129.935 624.305 130.391 622 130.391C619.461 130.391 617.195 129.818 615.203 128.672C613.211 127.513 611.648 125.84 610.516 123.652C609.396 121.465 608.836 118.867 608.836 115.859C608.836 112.865 609.402 110.273 610.535 108.086C611.681 105.885 613.25 104.212 615.242 103.066C617.247 101.908 619.5 101.328 622 101.328C624.174 101.328 626.141 101.732 627.898 102.539C629.656 103.346 631.082 104.525 632.176 106.074C633.283 107.611 633.966 109.44 634.227 111.562H628.289ZM664.227 115.859C664.227 118.854 663.654 121.452 662.508 123.652C661.362 125.84 659.786 127.513 657.781 128.672C655.789 129.818 653.536 130.391 651.023 130.391C648.497 130.391 646.232 129.811 644.227 128.652C642.221 127.493 640.646 125.82 639.5 123.633C638.354 121.432 637.781 118.841 637.781 115.859C637.781 112.865 638.354 110.273 639.5 108.086C640.646 105.885 642.221 104.212 644.227 103.066C646.232 101.908 648.497 101.328 651.023 101.328C653.536 101.328 655.789 101.908 657.781 103.066C659.786 104.212 661.362 105.885 662.508 108.086C663.654 110.273 664.227 112.865 664.227 115.859ZM658.25 115.859C658.25 113.867 657.951 112.174 657.352 110.781C656.766 109.388 655.932 108.333 654.852 107.617C653.771 106.888 652.495 106.523 651.023 106.523C649.552 106.523 648.27 106.888 647.176 107.617C646.095 108.333 645.255 109.395 644.656 110.801C644.057 112.194 643.758 113.88 643.758 115.859C643.758 117.839 644.057 119.531 644.656 120.938C645.255 122.331 646.095 123.392 647.176 124.121C648.27 124.837 649.552 125.195 651.023 125.195C652.495 125.195 653.771 124.837 654.852 124.121C655.932 123.392 656.766 122.331 657.352 120.938C657.951 119.544 658.25 117.852 658.25 115.859ZM668.445 101.719H679.539C681.661 101.719 683.478 102.096 684.988 102.852C686.512 103.607 687.671 104.681 688.465 106.074C689.259 107.454 689.656 109.076 689.656 110.938C689.656 112.865 689.227 114.518 688.367 115.898C687.508 117.279 686.271 118.314 684.656 119.004L690.672 130H684.188L678.777 119.961H674.305V130H668.445V101.719ZM678.445 115.195C681.883 115.195 683.602 113.776 683.602 110.938C683.602 109.492 683.172 108.398 682.312 107.656C681.453 106.901 680.164 106.523 678.445 106.523H674.305V115.195H678.445ZM693.719 101.719H712.703V106.562H699.578V113.438H711.727V118.281H699.578V125.156H712.742V130H693.719V101.719Z" fill="#02006E"/>
<path d="M130.166 273.346H119.736V281.695H116.045V273.346H105.762V270.416H130.166V273.346ZM112.324 259.137H123.516V256.061H127.266V267.838H108.633V256.061H112.324V259.137ZM123.516 264.85V262.066H112.324V264.85H123.516ZM141.562 259.605C141.553 260.777 141.772 261.896 142.222 262.96C142.671 264.015 143.364 264.962 144.302 265.802C145.239 266.632 146.406 267.271 147.803 267.721L145.84 270.65C144.414 270.172 143.193 269.479 142.178 268.57C141.162 267.652 140.356 266.568 139.761 265.318C139.155 266.695 138.315 267.882 137.241 268.878C136.167 269.874 134.873 270.631 133.359 271.148L131.279 268.189C132.734 267.74 133.95 267.076 134.927 266.197C135.903 265.309 136.626 264.298 137.095 263.165C137.563 262.032 137.803 260.836 137.812 259.576V256.676H141.562V259.605ZM152.871 262.74H156.475V265.904H152.871V274.576H149.121V255.035H152.871V262.74ZM153.867 281.227H135.557V272.643H139.365V278.238H153.867V281.227ZM166.289 256.822C167.676 256.812 168.931 257.091 170.054 257.657C171.187 258.214 172.07 258.99 172.705 259.986C173.35 260.982 173.672 262.105 173.672 263.355C173.672 264.615 173.35 265.743 172.705 266.739C172.07 267.735 171.191 268.517 170.068 269.083C168.945 269.64 167.686 269.918 166.289 269.918C164.893 269.918 163.628 269.64 162.495 269.083C161.372 268.517 160.488 267.735 159.844 266.739C159.199 265.743 158.877 264.615 158.877 263.355C158.877 262.105 159.199 260.982 159.844 259.986C160.488 258.99 161.377 258.214 162.51 257.657C163.643 257.091 164.902 256.812 166.289 256.822ZM166.289 260.045C165.586 260.045 164.951 260.177 164.385 260.44C163.818 260.704 163.374 261.09 163.052 261.598C162.739 262.096 162.588 262.682 162.598 263.355C162.588 264.039 162.739 264.63 163.052 265.128C163.374 265.626 163.813 266.007 164.37 266.271C164.937 266.534 165.576 266.666 166.289 266.666C167.002 266.666 167.637 266.534 168.193 266.271C168.76 266.007 169.204 265.626 169.526 265.128C169.858 264.63 170.029 264.039 170.039 263.355C170.029 262.672 169.863 262.081 169.541 261.583C169.219 261.085 168.774 260.704 168.208 260.44C167.642 260.177 167.002 260.045 166.289 260.045ZM180.059 281.754H176.338V255.035H180.059V281.754ZM159.229 273.258C165.488 273.258 170.684 272.975 174.814 272.408L175.107 275.104C172.49 275.611 169.819 275.938 167.095 276.085C164.37 276.231 161.406 276.305 158.203 276.305L157.764 273.258H159.229ZM205.43 258.639C205.43 260.006 205.396 261.29 205.327 262.491C205.259 263.683 205.088 265.006 204.814 266.461L201.152 266.109C201.523 264.068 201.729 262.037 201.768 260.016H191.719V256.969H205.43V258.639ZM198.809 268.233C201.836 268.097 204.463 267.867 206.689 267.545L206.895 270.24C204.443 270.689 201.89 270.987 199.233 271.134C196.577 271.28 193.652 271.363 190.459 271.383L190.137 268.395C192.256 268.395 193.906 268.38 195.088 268.351V263.121H198.809V268.233ZM211.963 263.15H215.186V266.285H211.963V274.986H208.125V255.035H211.963V263.15ZM212.783 281.227H194.062V273.199H197.812V278.238H212.783V281.227ZM231.416 258.229V258.551C231.396 259.801 231.348 260.929 231.27 261.935C231.191 262.94 231.025 264.039 230.771 265.23L227.109 264.967C227.441 263.209 227.627 261.383 227.666 259.488H217.646V256.5H231.416V258.229ZM224.736 267.062C227.715 266.944 230.342 266.754 232.617 266.49L232.822 269.098C230.322 269.537 227.7 269.835 224.956 269.991C222.222 270.138 219.365 270.211 216.387 270.211L216.064 267.223H217.295C217.91 267.213 218.525 267.203 219.141 267.193C219.766 267.184 220.391 267.174 221.016 267.164V262.447H224.736V267.062ZM237.891 261.598H241.143V264.703H237.891V271.295H234.053V255.035H237.891V261.598ZM228.809 271.617C230.693 271.617 232.334 271.817 233.73 272.218C235.127 272.618 236.196 273.194 236.938 273.946C237.69 274.688 238.066 275.562 238.066 276.568C238.066 277.633 237.69 278.546 236.938 279.308C236.196 280.069 235.132 280.646 233.745 281.036C232.358 281.437 230.713 281.637 228.809 281.637C226.904 281.637 225.254 281.437 223.857 281.036C222.471 280.636 221.401 280.055 220.649 279.293C219.897 278.541 219.521 277.633 219.521 276.568C219.521 275.562 219.897 274.688 220.649 273.946C221.401 273.194 222.476 272.618 223.872 272.218C225.278 271.817 226.924 271.617 228.809 271.617ZM228.809 274.488C227.051 274.488 225.698 274.669 224.751 275.03C223.804 275.382 223.33 275.895 223.33 276.568C223.33 277.311 223.794 277.857 224.722 278.209C225.649 278.561 227.012 278.736 228.809 278.736C230.596 278.736 231.943 278.561 232.852 278.209C233.77 277.857 234.229 277.311 234.229 276.568C234.229 275.895 233.76 275.382 232.822 275.03C231.895 274.669 230.557 274.488 228.809 274.488ZM252.686 262.301C252.686 263.775 252.935 265.226 253.433 266.651C253.94 268.067 254.697 269.342 255.703 270.475C256.709 271.607 257.93 272.477 259.365 273.082L257.344 276.012C255.811 275.367 254.497 274.42 253.403 273.17C252.31 271.92 251.45 270.46 250.825 268.79C250.21 270.606 249.346 272.203 248.232 273.58C247.119 274.947 245.801 275.982 244.277 276.686L242.139 273.727C243.564 273.092 244.78 272.169 245.786 270.958C246.802 269.747 247.563 268.39 248.071 266.886C248.589 265.372 248.848 263.844 248.848 262.301V260.66H243.193V257.613H258.252V260.66H252.686V262.301ZM264.668 281.695H260.889V255.035H264.668V281.695ZM115.635 318.301C115.625 319.697 115.864 321.099 116.353 322.505C116.851 323.911 117.593 325.2 118.579 326.372C119.565 327.534 120.762 328.438 122.168 329.082L120.088 332.012C118.643 331.348 117.388 330.386 116.323 329.126C115.259 327.856 114.419 326.392 113.804 324.731C113.188 326.558 112.329 328.164 111.226 329.551C110.132 330.938 108.838 331.982 107.344 332.686L105.176 329.727C106.602 329.062 107.817 328.12 108.823 326.899C109.829 325.669 110.586 324.307 111.094 322.812C111.611 321.318 111.875 319.814 111.885 318.301V316.66H106.23V313.613H120.996V316.66H115.635V318.301ZM126.826 321.201H130.752V324.336H126.826V337.695H123.076V311.035H126.826V321.201ZM156.094 328.877H150.381V337.695H146.572V328.877H141.123V337.695H137.285V328.877H131.689V325.859H156.094V328.877ZM143.818 311.914C145.713 311.914 147.393 312.163 148.857 312.661C150.332 313.159 151.479 313.867 152.3 314.785C153.13 315.693 153.545 316.748 153.545 317.949C153.545 319.131 153.135 320.166 152.314 321.055C151.494 321.934 150.347 322.612 148.872 323.091C147.397 323.569 145.713 323.809 143.818 323.809C141.924 323.809 140.239 323.569 138.765 323.091C137.3 322.612 136.162 321.934 135.352 321.055C134.541 320.166 134.141 319.131 134.15 317.949C134.141 316.748 134.541 315.693 135.352 314.785C136.172 313.867 137.314 313.159 138.779 312.661C140.244 312.163 141.924 311.914 143.818 311.914ZM143.818 314.902C142.627 314.902 141.592 315.02 140.713 315.254C139.834 315.488 139.155 315.835 138.677 316.294C138.208 316.753 137.979 317.305 137.988 317.949C137.979 318.564 138.208 319.092 138.677 319.531C139.155 319.971 139.834 320.308 140.713 320.542C141.592 320.767 142.627 320.879 143.818 320.879C145.02 320.879 146.06 320.767 146.938 320.542C147.817 320.308 148.491 319.971 148.96 319.531C149.438 319.092 149.678 318.564 149.678 317.949C149.678 316.982 149.155 316.235 148.11 315.708C147.075 315.171 145.645 314.902 143.818 314.902ZM165.586 312.617C166.943 312.617 168.179 312.896 169.292 313.452C170.405 314.009 171.284 314.785 171.929 315.781C172.573 316.768 172.9 317.891 172.91 319.15C172.9 320.205 172.666 321.172 172.207 322.051C171.748 322.92 171.108 323.652 170.288 324.248C169.478 324.834 168.545 325.244 167.49 325.479V329.126C169.707 329.019 171.768 328.838 173.672 328.584L173.936 331.338C171.875 331.729 169.731 331.997 167.505 332.144C165.278 332.29 162.969 332.363 160.576 332.363C159.932 332.363 159.453 332.354 159.141 332.334H157.822L157.324 329.316H158.965C159.746 329.307 160.537 329.297 161.338 329.287C162.148 329.277 162.959 329.268 163.77 329.258V325.508C162.686 325.293 161.724 324.893 160.884 324.307C160.054 323.711 159.409 322.974 158.95 322.095C158.491 321.206 158.262 320.225 158.262 319.15C158.262 317.891 158.574 316.768 159.199 315.781C159.834 314.785 160.708 314.009 161.821 313.452C162.935 312.896 164.189 312.617 165.586 312.617ZM165.586 315.781C164.873 315.781 164.238 315.918 163.682 316.191C163.125 316.455 162.69 316.841 162.378 317.349C162.065 317.856 161.914 318.457 161.924 319.15C161.914 319.834 162.065 320.435 162.378 320.952C162.69 321.46 163.125 321.851 163.682 322.124C164.248 322.388 164.883 322.52 165.586 322.52C166.27 322.52 166.885 322.383 167.432 322.109C167.988 321.836 168.423 321.445 168.735 320.938C169.058 320.43 169.219 319.834 169.219 319.15C169.219 318.457 169.058 317.856 168.735 317.349C168.423 316.841 167.993 316.455 167.446 316.191C166.899 315.918 166.279 315.781 165.586 315.781ZM178.828 321.494H182.461V324.629H178.828V337.695H175.078V311.035H178.828V321.494ZM211.816 317.334H215.215V320.439H211.816V326.738H208.066V311.035H211.816V317.334ZM211.816 333.652H197.52V335.029H212.695V337.52H193.77V331.396H208.066V330.166H193.74V327.676H211.816V333.652ZM192.217 323.867C194.15 323.867 195.635 323.853 196.67 323.823V322.651C195.186 322.476 194.028 322.09 193.198 321.494C192.378 320.889 191.973 320.117 191.982 319.18C191.973 318.467 192.231 317.856 192.759 317.349C193.296 316.831 194.058 316.436 195.044 316.162C196.03 315.889 197.188 315.752 198.516 315.752C199.834 315.752 200.981 315.889 201.958 316.162C202.935 316.426 203.691 316.816 204.229 317.334C204.766 317.852 205.039 318.467 205.049 319.18C205.039 320.117 204.624 320.884 203.804 321.479C202.983 322.075 201.846 322.466 200.391 322.651V323.691C202.764 323.584 204.912 323.398 206.836 323.135L207.1 325.449C204.59 325.879 202.021 326.152 199.395 326.27C196.768 326.387 193.828 326.445 190.576 326.445L190.195 323.867H192.217ZM206.162 315.195H190.898V312.705H196.67V310.801H200.391V312.705H206.162V315.195ZM198.516 318.066C197.549 318.066 196.812 318.159 196.304 318.345C195.796 318.53 195.547 318.809 195.557 319.18C195.547 319.57 195.796 319.868 196.304 320.073C196.812 320.278 197.549 320.391 198.516 320.41C199.463 320.391 200.19 320.278 200.698 320.073C201.206 319.868 201.465 319.57 201.475 319.18C201.445 318.438 200.459 318.066 198.516 318.066ZM229.219 320.908H221.162V323.75C223.213 323.75 224.897 323.706 226.216 323.618C227.544 323.521 228.867 323.35 230.186 323.105L230.537 326.094C229.062 326.357 227.539 326.533 225.967 326.621C224.404 326.699 222.236 326.738 219.463 326.738H217.471V318.125H225.469V315.518H217.412V312.588H229.219V320.908ZM238.887 327.471H235.166V323.369H230.742V320.41H235.166V317.715H230.742V314.756H235.166V311.064H238.887V327.471ZM238.887 337.695H235.166V331.66H220.518V328.672H238.887V337.695Z" fill="#02006E"/>
<path d="M705.262 274.547H701.541V268.219H695.447C694.793 268.912 694.012 269.454 693.104 269.845C692.205 270.226 691.248 270.416 690.232 270.416C688.904 270.416 687.698 270.118 686.614 269.522C685.53 268.927 684.676 268.106 684.051 267.062C683.436 266.007 683.133 264.83 683.143 263.531C683.133 262.213 683.436 261.031 684.051 259.986C684.666 258.932 685.516 258.106 686.6 257.511C687.684 256.905 688.895 256.598 690.232 256.588C691.258 256.598 692.215 256.793 693.104 257.174C694.002 257.555 694.778 258.092 695.433 258.785H701.541V255.064H705.262V274.547ZM705.906 281.227H687.566V272.584H691.316V278.238H705.906V281.227ZM690.232 259.928C689.539 259.928 688.919 260.074 688.372 260.367C687.835 260.65 687.415 261.065 687.112 261.612C686.819 262.159 686.678 262.799 686.688 263.531C686.678 264.254 686.819 264.889 687.112 265.436C687.415 265.973 687.835 266.388 688.372 266.681C688.919 266.964 689.539 267.105 690.232 267.105C690.887 267.105 691.478 266.964 692.005 266.681C692.542 266.388 692.962 265.973 693.265 265.436C693.567 264.889 693.719 264.254 693.719 263.531C693.719 262.799 693.567 262.159 693.265 261.612C692.962 261.065 692.542 260.65 692.005 260.367C691.478 260.074 690.887 259.928 690.232 259.928ZM697.059 261.773C697.195 262.35 697.264 262.936 697.264 263.531C697.264 264.098 697.195 264.664 697.059 265.23H701.541V261.773H697.059ZM731.189 268.453H727.469V266.402H721.375V263.561H727.469V261.217H721.653C720.843 263.209 719.49 264.854 717.596 266.153C715.701 267.452 713.27 268.424 710.301 269.068L709.041 266.021C712 265.436 714.246 264.552 715.779 263.37C717.312 262.179 718.206 260.748 718.46 259.078H710.535V256.061H722.605C722.605 256.871 722.547 257.643 722.43 258.375H727.469V255.035H731.189V268.453ZM731.189 276.715H717.244V278.473H731.775V281.432H713.494V273.961H727.439V272.35H713.465V269.42H731.189V276.715ZM749.646 259.84V260.25C749.627 262.037 749.573 263.663 749.485 265.128C749.397 266.583 749.207 268.229 748.914 270.064L745.223 269.771C745.486 268.053 745.662 266.505 745.75 265.128C745.838 263.751 745.892 262.271 745.911 260.689H735.818V257.701H749.646V259.84ZM742.996 273.082C745.896 272.965 748.475 272.76 750.73 272.467L750.965 275.25C748.719 275.631 746.36 275.895 743.89 276.041C741.419 276.178 738.836 276.246 736.141 276.246H734.764L734.412 273.258H735.643C736.248 273.248 736.854 273.238 737.459 273.229C738.074 273.219 738.689 273.209 739.305 273.199V265.348H742.996V273.082ZM755.77 265.758H759.402V268.863H755.77V281.695H751.99V255.035H755.77V265.758ZM791.863 272.877H786.15V281.695H782.342V272.877H776.893V281.695H773.055V272.877H767.459V269.859H791.863V272.877ZM779.588 255.914C781.482 255.914 783.162 256.163 784.627 256.661C786.102 257.159 787.249 257.867 788.069 258.785C788.899 259.693 789.314 260.748 789.314 261.949C789.314 263.131 788.904 264.166 788.084 265.055C787.264 265.934 786.116 266.612 784.642 267.091C783.167 267.569 781.482 267.809 779.588 267.809C777.693 267.809 776.009 267.569 774.534 267.091C773.069 266.612 771.932 265.934 771.121 265.055C770.311 264.166 769.91 263.131 769.92 261.949C769.91 260.748 770.311 259.693 771.121 258.785C771.941 257.867 773.084 257.159 774.549 256.661C776.014 256.163 777.693 255.914 779.588 255.914ZM779.588 258.902C778.396 258.902 777.361 259.02 776.482 259.254C775.604 259.488 774.925 259.835 774.446 260.294C773.978 260.753 773.748 261.305 773.758 261.949C773.748 262.564 773.978 263.092 774.446 263.531C774.925 263.971 775.604 264.308 776.482 264.542C777.361 264.767 778.396 264.879 779.588 264.879C780.789 264.879 781.829 264.767 782.708 264.542C783.587 264.308 784.261 263.971 784.729 263.531C785.208 263.092 785.447 262.564 785.447 261.949C785.447 260.982 784.925 260.235 783.88 259.708C782.845 259.171 781.414 258.902 779.588 258.902ZM816.473 281.695H812.928V268.307H810.35V280.406H806.922V255.475H810.35V265.318H812.928V255.035H816.473V281.695ZM804.109 261.129H797.928V272.511C799.334 272.491 800.623 272.438 801.795 272.35C802.967 272.262 804.158 272.105 805.369 271.881L805.633 274.928C804.139 275.211 802.674 275.401 801.238 275.499C799.803 275.587 798.064 275.641 796.023 275.66H794.178V258.111H804.109V261.129ZM707.166 329.346H696.736V337.695H693.045V329.346H682.762V326.416H707.166V329.346ZM689.324 315.137H700.516V312.061H704.266V323.838H685.633V312.061H689.324V315.137ZM700.516 320.85V318.066H689.324V320.85H700.516ZM718.562 315.605C718.553 316.777 718.772 317.896 719.222 318.96C719.671 320.015 720.364 320.962 721.302 321.802C722.239 322.632 723.406 323.271 724.803 323.721L722.84 326.65C721.414 326.172 720.193 325.479 719.178 324.57C718.162 323.652 717.356 322.568 716.761 321.318C716.155 322.695 715.315 323.882 714.241 324.878C713.167 325.874 711.873 326.631 710.359 327.148L708.279 324.189C709.734 323.74 710.95 323.076 711.927 322.197C712.903 321.309 713.626 320.298 714.095 319.165C714.563 318.032 714.803 316.836 714.812 315.576V312.676H718.562V315.605ZM729.871 318.74H733.475V321.904H729.871V330.576H726.121V311.035H729.871V318.74ZM730.867 337.227H712.557V328.643H716.365V334.238H730.867V337.227ZM743.289 312.822C744.676 312.812 745.931 313.091 747.054 313.657C748.187 314.214 749.07 314.99 749.705 315.986C750.35 316.982 750.672 318.105 750.672 319.355C750.672 320.615 750.35 321.743 749.705 322.739C749.07 323.735 748.191 324.517 747.068 325.083C745.945 325.64 744.686 325.918 743.289 325.918C741.893 325.918 740.628 325.64 739.495 325.083C738.372 324.517 737.488 323.735 736.844 322.739C736.199 321.743 735.877 320.615 735.877 319.355C735.877 318.105 736.199 316.982 736.844 315.986C737.488 314.99 738.377 314.214 739.51 313.657C740.643 313.091 741.902 312.812 743.289 312.822ZM743.289 316.045C742.586 316.045 741.951 316.177 741.385 316.44C740.818 316.704 740.374 317.09 740.052 317.598C739.739 318.096 739.588 318.682 739.598 319.355C739.588 320.039 739.739 320.63 740.052 321.128C740.374 321.626 740.813 322.007 741.37 322.271C741.937 322.534 742.576 322.666 743.289 322.666C744.002 322.666 744.637 322.534 745.193 322.271C745.76 322.007 746.204 321.626 746.526 321.128C746.858 320.63 747.029 320.039 747.039 319.355C747.029 318.672 746.863 318.081 746.541 317.583C746.219 317.085 745.774 316.704 745.208 316.44C744.642 316.177 744.002 316.045 743.289 316.045ZM757.059 337.754H753.338V311.035H757.059V337.754ZM736.229 329.258C742.488 329.258 747.684 328.975 751.814 328.408L752.107 331.104C749.49 331.611 746.819 331.938 744.095 332.085C741.37 332.231 738.406 332.305 735.203 332.305L734.764 329.258H736.229ZM780.438 316.66H767.342V313.76H772.059V311.211H775.779V313.76H780.438V316.66ZM773.934 317.48C775.057 317.48 776.058 317.686 776.937 318.096C777.815 318.506 778.504 319.082 779.002 319.824C779.5 320.557 779.754 321.396 779.764 322.344C779.754 323.252 779.5 324.067 779.002 324.79C778.504 325.503 777.811 326.06 776.922 326.46C776.043 326.86 775.047 327.061 773.934 327.061C772.83 327.061 771.839 326.86 770.96 326.46C770.091 326.05 769.407 325.488 768.909 324.775C768.411 324.062 768.162 323.252 768.162 322.344C768.162 321.396 768.411 320.557 768.909 319.824C769.407 319.082 770.091 318.506 770.96 318.096C771.839 317.686 772.83 317.48 773.934 317.48ZM773.934 320.264C773.182 320.264 772.586 320.444 772.146 320.806C771.717 321.157 771.502 321.67 771.502 322.344C771.502 322.969 771.722 323.452 772.161 323.794C772.601 324.136 773.191 324.307 773.934 324.307C774.676 324.307 775.267 324.136 775.706 323.794C776.155 323.452 776.385 322.969 776.395 322.344C776.385 321.67 776.16 321.157 775.721 320.806C775.281 320.444 774.686 320.264 773.934 320.264ZM790.398 327.734H786.854V321.143H784.803V327.588H781.258V311.475H784.803V318.096H786.854V311.064H790.398V327.734ZM790.398 337.695H786.678V331.924H771.971V328.936H790.398V337.695ZM815.74 326.094H811.99V311.064H815.74V326.094ZM815.74 337.402H797.869V327.324H815.74V337.402ZM801.561 334.414H812.078V330.283H801.561V334.414ZM803.641 314.609C803.631 315.723 803.851 316.782 804.3 317.788C804.759 318.784 805.452 319.673 806.38 320.454C807.317 321.235 808.484 321.846 809.881 322.285L808.064 325.127C806.58 324.688 805.301 324.033 804.227 323.164C803.162 322.285 802.322 321.235 801.707 320.015C801.082 321.343 800.218 322.49 799.114 323.457C798.011 324.424 796.688 325.146 795.145 325.625L793.328 322.695C794.754 322.266 795.945 321.636 796.902 320.806C797.869 319.966 798.582 319.014 799.041 317.949C799.51 316.875 799.744 315.762 799.744 314.609V312.031H803.641V314.609Z" fill="#02006E"/>
<path d="M417.787 267.789H426.225C427.748 267.789 429.037 268.019 430.092 268.478C431.146 268.937 431.938 269.576 432.465 270.396C432.992 271.207 433.256 272.154 433.256 273.238C433.256 274.439 432.904 275.431 432.201 276.212C431.508 276.993 430.59 277.516 429.447 277.779V277.984C430.268 278.023 431.029 278.258 431.732 278.688C432.445 279.117 433.017 279.718 433.446 280.489C433.886 281.251 434.105 282.135 434.105 283.141C434.105 284.283 433.822 285.294 433.256 286.173C432.699 287.052 431.869 287.745 430.766 288.253C429.672 288.751 428.344 289 426.781 289H417.787V267.789ZM425.902 285.367C427.133 285.367 428.046 285.138 428.642 284.679C429.237 284.21 429.535 283.561 429.535 282.73C429.535 282.135 429.389 281.607 429.096 281.148C428.812 280.689 428.407 280.333 427.88 280.079C427.353 279.815 426.732 279.684 426.02 279.684H422.182V285.367H425.902ZM425.58 276.666C426.195 276.666 426.747 276.559 427.235 276.344C427.724 276.119 428.104 275.802 428.378 275.392C428.661 274.981 428.803 274.498 428.803 273.941C428.803 273.16 428.524 272.535 427.968 272.066C427.421 271.598 426.654 271.363 425.668 271.363H422.182V276.666H425.58ZM436.889 267.789H441.283V285.367H450.424V289H436.889V267.789ZM470.814 267.789V281.559C470.814 283.092 470.448 284.444 469.716 285.616C468.983 286.788 467.953 287.696 466.625 288.341C465.297 288.976 463.764 289.293 462.025 289.293C460.287 289.293 458.754 288.976 457.426 288.341C456.107 287.696 455.082 286.788 454.35 285.616C453.627 284.444 453.266 283.092 453.266 281.559V267.789H457.66V281.207C457.66 282.018 457.841 282.745 458.202 283.39C458.563 284.024 459.076 284.522 459.74 284.884C460.404 285.245 461.166 285.426 462.025 285.426C462.895 285.426 463.661 285.245 464.325 284.884C464.989 284.522 465.497 284.024 465.849 283.39C466.21 282.745 466.391 282.018 466.391 281.207V267.789H470.814ZM474.389 267.789H488.627V271.422H478.783V276.578H487.895V280.211H478.783V285.367H488.656V289H474.389V267.789ZM431.967 311.172C431.85 310.4 431.581 309.731 431.161 309.165C430.741 308.589 430.204 308.149 429.55 307.847C428.896 307.544 428.158 307.393 427.338 307.393C426.234 307.393 425.268 307.671 424.438 308.228C423.617 308.774 422.982 309.575 422.533 310.63C422.084 311.675 421.859 312.93 421.859 314.395C421.859 315.889 422.084 317.163 422.533 318.218C422.982 319.263 423.617 320.054 424.438 320.591C425.258 321.128 426.215 321.396 427.309 321.396C428.529 321.396 429.555 321.074 430.385 320.43C431.225 319.785 431.752 318.896 431.967 317.764L436.42 317.793C436.254 319.131 435.78 320.371 434.999 321.514C434.218 322.656 433.163 323.574 431.835 324.268C430.507 324.951 428.979 325.293 427.25 325.293C425.346 325.293 423.646 324.863 422.152 324.004C420.658 323.135 419.486 321.88 418.637 320.239C417.797 318.599 417.377 316.65 417.377 314.395C417.377 312.148 417.802 310.205 418.651 308.564C419.511 306.914 420.688 305.659 422.182 304.8C423.686 303.931 425.375 303.496 427.25 303.496C428.881 303.496 430.355 303.799 431.674 304.404C432.992 305.01 434.062 305.894 434.882 307.056C435.712 308.208 436.225 309.58 436.42 311.172H431.967ZM458.92 314.395C458.92 316.641 458.49 318.589 457.631 320.239C456.771 321.88 455.59 323.135 454.086 324.004C452.592 324.863 450.902 325.293 449.018 325.293C447.123 325.293 445.424 324.858 443.92 323.989C442.416 323.12 441.234 321.865 440.375 320.225C439.516 318.574 439.086 316.631 439.086 314.395C439.086 312.148 439.516 310.205 440.375 308.564C441.234 306.914 442.416 305.659 443.92 304.8C445.424 303.931 447.123 303.496 449.018 303.496C450.902 303.496 452.592 303.931 454.086 304.8C455.59 305.659 456.771 306.914 457.631 308.564C458.49 310.205 458.92 312.148 458.92 314.395ZM454.438 314.395C454.438 312.9 454.213 311.631 453.764 310.586C453.324 309.541 452.699 308.75 451.889 308.213C451.078 307.666 450.121 307.393 449.018 307.393C447.914 307.393 446.952 307.666 446.132 308.213C445.321 308.75 444.691 309.546 444.242 310.601C443.793 311.646 443.568 312.91 443.568 314.395C443.568 315.879 443.793 317.148 444.242 318.203C444.691 319.248 445.321 320.044 446.132 320.591C446.952 321.128 447.914 321.396 449.018 321.396C450.121 321.396 451.078 321.128 451.889 320.591C452.699 320.044 453.324 319.248 453.764 318.203C454.213 317.158 454.438 315.889 454.438 314.395ZM462.084 303.789H470.404C471.996 303.789 473.358 304.072 474.491 304.639C475.634 305.205 476.503 306.011 477.099 307.056C477.694 308.091 477.992 309.307 477.992 310.703C477.992 312.148 477.67 313.389 477.025 314.424C476.381 315.459 475.453 316.235 474.242 316.753L478.754 325H473.891L469.833 317.471H466.479V325H462.084V303.789ZM469.584 313.896C472.162 313.896 473.451 312.832 473.451 310.703C473.451 309.619 473.129 308.799 472.484 308.242C471.84 307.676 470.873 307.393 469.584 307.393H466.479V313.896H469.584ZM481.039 303.789H495.277V307.422H485.434V312.578H494.545V316.211H485.434V321.367H495.307V325H481.039V303.789Z" fill="white"/>
</svg>
