<svg width="238" height="31" viewBox="0 0 238 31" fill="none" xmlns="http://www.w3.org/2000/svg">
<path fill-rule="evenodd" clip-rule="evenodd" d="M1.8245e-05 0L16.8621 0C21.3292 0 24.9505 3.6213 24.9505 8.0884C24.9505 11.2408 23.1471 13.972 20.5157 15.3066L12.4131 14.5014L15.0452 10.7007L11.2315 13.3239L10.3961 4.97343L9.56061 13.3239L5.7469 10.7007L8.37908 14.5014L1.8245e-05 15.334L8.37908 16.1666L5.7469 19.9673L9.56061 17.3441L10.3961 25.6946L11.2315 17.3441L15.0452 19.9673L12.4131 16.1666L20.5165 15.3614C23.1475 16.6961 24.9505 19.4271 24.9505 22.5791C24.9505 27.0462 21.3292 30.6675 16.8621 30.6675H0L0 14.4907H1.8245e-05L1.8245e-05 0ZM20.5165 15.3614L20.7921 15.334L20.5157 15.3066C20.4977 15.3157 20.4796 15.3248 20.4615 15.3338C20.4799 15.3429 20.4982 15.3521 20.5165 15.3614Z" fill="white"/>
<path fill-rule="evenodd" clip-rule="evenodd" d="M143.862 0.000976562H127V14.4917V16.1778V30.6685H143.862C144.773 30.6685 145.649 30.518 146.466 30.2405C145.167 29.1907 142.854 27.9854 141.301 29.1504C140.54 28.6998 140.161 28.1223 139.275 26.7747L139.275 26.7746C138.982 26.3288 138.634 25.7986 138.198 25.1609C136.375 22.4926 135.587 21.9375 135.2 22.1249C133.838 22.4872 131.069 22.5372 130.889 19.8385C130.709 17.1399 133.438 16.89 134.825 17.1024L136.397 17.8578L136.718 17.16C136.411 17.0107 136.276 16.6445 136.414 16.3301C136.557 16.0082 136.933 15.8625 137.255 16.0047L137.735 16.2167C138.057 16.3588 138.202 16.735 138.06 17.0569C137.918 17.3788 137.542 17.5245 137.22 17.3823L137.123 17.3397L136.797 18.05L138.439 18.8388L138.716 18.2363C138.409 18.087 138.274 17.7207 138.413 17.4063C138.555 17.0844 138.931 16.9387 139.253 17.0808L139.733 17.2928C140.055 17.435 140.2 17.8112 140.058 18.1331C139.916 18.455 139.54 18.6007 139.218 18.4585L139.122 18.416L138.839 19.031L140.437 19.7984L140.741 19.1343C140.435 18.9851 140.299 18.6187 140.438 18.3042C140.58 17.9823 140.956 17.8366 141.278 17.9788L141.758 18.1908C142.08 18.333 142.226 18.7091 142.084 19.031C141.941 19.3529 141.565 19.4986 141.243 19.3564L141.147 19.314L140.837 19.9906L142.489 20.7845L142.765 20.1845C142.458 20.0352 142.322 19.6689 142.461 19.3545C142.603 19.0326 142.98 18.8869 143.302 19.0291L143.782 19.2411C144.103 19.3832 144.249 19.7594 144.107 20.0813C143.965 20.4032 143.589 20.5489 143.267 20.4067L143.17 20.3642L142.889 20.9767L144.514 21.7572L144.788 21.1596C144.482 21.0103 144.346 20.644 144.485 20.3296C144.627 20.0077 145.003 19.862 145.325 20.0042L145.805 20.2162C146.127 20.3583 146.273 20.7345 146.13 21.0564C145.988 21.3783 145.612 21.524 145.29 21.3818L145.194 21.3393L144.914 21.9493L146.483 22.7032L146.813 21.9837C146.507 21.8344 146.371 21.4682 146.51 21.1538C146.652 20.8319 147.029 20.6862 147.35 20.8284L147.83 21.0404C148.152 21.1826 148.298 21.5588 148.156 21.8806C148.014 22.2025 147.637 22.3482 147.316 22.2061L147.219 22.1635L146.883 22.8954L149.18 23.999C149.355 24.3363 149.533 25.2359 148.843 26.1354C148.177 27.0045 149.019 27.9202 149.573 28.308C151.042 26.8436 151.951 24.818 151.951 22.5801C151.951 19.4062 150.122 16.6592 147.462 15.3348C150.122 14.0104 151.951 11.2634 151.951 8.0894C151.951 3.62229 148.329 0.000976562 143.862 0.000976562ZM136.576 19.1426C136.576 19.4738 136.308 19.7423 135.977 19.7423C135.645 19.7423 135.377 19.4738 135.377 19.1426C135.377 18.8114 135.645 18.5429 135.977 18.5429C136.308 18.5429 136.576 18.8114 136.576 19.1426ZM137.928 20.942C138.259 20.942 138.527 20.6735 138.527 20.3423C138.527 20.0111 138.259 19.7426 137.928 19.7426C137.597 19.7426 137.328 20.0111 137.328 20.3423C137.328 20.6735 137.597 20.942 137.928 20.942ZM140.627 21.167C140.627 21.4982 140.359 21.7667 140.027 21.7667C139.696 21.7667 139.428 21.4982 139.428 21.167C139.428 20.8358 139.696 20.5673 140.027 20.5673C140.359 20.5673 140.627 20.8358 140.627 21.167ZM142.053 22.6666C142.384 22.6666 142.652 22.3981 142.652 22.0669C142.652 21.7357 142.384 21.4672 142.053 21.4672C141.722 21.4672 141.453 21.7357 141.453 22.0669C141.453 22.3981 141.722 22.6666 142.053 22.6666ZM144.674 23.041C144.674 23.3722 144.405 23.6407 144.074 23.6407C143.743 23.6407 143.475 23.3722 143.475 23.041C143.475 22.7098 143.743 22.4414 144.074 22.4414C144.405 22.4414 144.674 22.7098 144.674 23.041ZM146.098 24.6155C146.429 24.6155 146.697 24.347 146.697 24.0158C146.697 23.6846 146.429 23.4161 146.098 23.4161C145.766 23.4161 145.498 23.6846 145.498 24.0158C145.498 24.347 145.766 24.6155 146.098 24.6155ZM133.536 5.29719L132.65 3.44043L131.764 5.29719L129.725 5.56606L131.217 6.98247L130.842 9.00541L132.65 8.02403L134.459 9.00541L134.084 6.98247L135.576 5.56606L133.536 5.29719Z" fill="white"/>
<path fill-rule="evenodd" clip-rule="evenodd" d="M86.0001 0H101.646C105.808 0 109.183 3.37439 109.183 7.53691C109.183 10.9885 106.862 13.8983 103.696 14.7914C101.145 15.2289 97.4367 13.9329 96.8706 8.97408C96.4795 5.54874 92.9142 5.53862 92.4197 8.97408C92.1621 10.7639 91.592 14.3623 86.0001 14.6663V0ZM92.1275 20.8895C91.3018 15.9564 88.0331 15.6791 86 15.6052L86.0282 15.593H86V15.6052V30.6668H101.646C105.808 30.6668 109.182 27.2924 109.182 23.1299C109.182 18.9673 105.808 15.593 101.646 15.593H101.492C97.777 15.847 96.8326 19.1236 96.5784 20.8895C96.0839 24.325 92.6812 24.1972 92.1275 20.8895Z" fill="white"/>
<path fill-rule="evenodd" clip-rule="evenodd" d="M229.862 0H213V14.4907V16.1768V30.6676H229.862C234.329 30.6676 237.951 27.0463 237.951 22.5792C237.951 19.4052 236.122 16.6582 233.462 15.3338C236.122 14.0094 237.951 11.2624 237.951 8.08842C237.951 3.62131 234.329 0 229.862 0ZM222.653 14.4494C222.744 13.9829 223.412 13.9829 223.503 14.4494C223.508 14.4767 223.511 14.5045 223.511 14.5323V18.8813C223.511 18.9091 223.508 18.9369 223.503 18.9642C223.412 19.4307 222.744 19.4307 222.653 18.9642C222.648 18.9369 222.645 18.9091 222.645 18.8813V14.5323C222.645 14.5045 222.648 14.4767 222.653 14.4494ZM223.503 10.0988C223.412 10.5653 222.744 10.5653 222.653 10.0988C222.648 10.0715 222.645 10.0437 222.645 10.0159V5.6669C222.645 5.63906 222.648 5.61128 222.653 5.58395C222.744 5.11748 223.412 5.11748 223.503 5.58395C223.508 5.61128 223.511 5.63906 223.511 5.6669V10.0159C223.511 10.0437 223.508 10.0715 223.503 10.0988ZM220.903 11.8489C221.369 11.94 221.369 12.6074 220.903 12.6985C220.875 12.7038 220.848 12.7065 220.82 12.7065H216.471C216.443 12.7065 216.415 12.7038 216.388 12.6985C215.921 12.6074 215.921 11.94 216.388 11.8489C216.415 11.8436 216.443 11.8409 216.471 11.8409H220.82C220.848 11.8409 220.875 11.8436 220.903 11.8489ZM225.253 12.6985C224.787 12.6074 224.787 11.94 225.253 11.8489C225.281 11.8436 225.308 11.8409 225.336 11.8409H229.685C229.713 11.8409 229.741 11.8436 229.768 11.8489C230.235 11.94 230.235 12.6074 229.768 12.6985C229.741 12.7038 229.713 12.7065 229.685 12.7065H225.336C225.308 12.7065 225.281 12.7038 225.253 12.6985ZM221.238 11.0355C221.215 11.02 221.193 11.0022 221.173 10.9826L218.098 7.90737C218.079 7.88768 218.061 7.86614 218.045 7.84304C217.78 7.44878 218.252 6.97686 218.646 7.2423C218.669 7.25785 218.691 7.27559 218.71 7.29528L221.786 10.3705C221.805 10.3902 221.823 10.4117 221.839 10.4348C222.104 10.8291 221.632 11.301 221.238 11.0355ZM224.314 14.1118C224.049 13.7176 224.521 13.2456 224.915 13.5111C224.938 13.5266 224.959 13.5444 224.979 13.5641L228.054 16.6393C228.074 16.6589 228.092 16.6805 228.107 16.7036C228.373 17.0978 227.901 17.5698 227.507 17.3043C227.483 17.2888 227.462 17.271 227.442 17.2513L224.367 14.1761C224.347 14.1565 224.33 14.1349 224.314 14.1118ZM224.927 13.4971C224.531 13.2344 224.786 12.6178 225.252 12.7121C225.279 12.7177 225.306 12.7258 225.332 12.7365L229.35 14.4008C229.376 14.4114 229.4 14.4245 229.423 14.4399C229.819 14.7026 229.564 15.3192 229.098 15.2248C229.071 15.2193 229.044 15.2111 229.019 15.2005L225.001 13.5362C224.975 13.5256 224.95 13.5124 224.927 13.4971ZM221.233 11.0473C221.629 11.3099 221.374 11.9265 220.908 11.8322C220.88 11.8267 220.854 11.8185 220.828 11.8078L216.81 10.1436C216.784 10.1329 216.76 10.1198 216.736 10.1044C216.34 9.84174 216.596 9.22516 217.062 9.31951C217.089 9.32504 217.116 9.33319 217.141 9.34384L221.159 11.0081C221.185 11.0188 221.21 11.0319 221.233 11.0473ZM220.904 12.7132C221.37 12.6189 221.625 13.2355 221.229 13.4981C221.206 13.5135 221.181 13.5266 221.155 13.5373L217.137 15.2016C217.112 15.2122 217.085 15.2204 217.058 15.2259C216.592 15.3203 216.336 14.7037 216.733 14.441C216.756 14.4256 216.78 14.4125 216.806 14.4018L220.824 12.7376C220.85 12.7269 220.876 12.7188 220.904 12.7132ZM225.248 11.8333C224.782 11.9276 224.527 11.311 224.923 11.0484C224.946 11.033 224.971 11.0199 224.997 11.0092L229.015 9.34492C229.04 9.33427 229.067 9.32612 229.094 9.32059C229.56 9.22624 229.816 9.84282 229.419 10.1055C229.396 10.1209 229.372 10.134 229.346 10.1446L225.328 11.8089C225.302 11.8196 225.276 11.8277 225.248 11.8333ZM223.513 14.446C223.419 13.9801 224.035 13.7247 224.298 14.1208C224.313 14.144 224.327 14.1687 224.337 14.1944L226.001 18.2123C226.012 18.2381 226.02 18.2648 226.026 18.292C226.12 18.7579 225.504 19.0133 225.241 18.6172C225.225 18.594 225.212 18.5693 225.202 18.5436L223.537 14.5257C223.527 14.4999 223.519 14.4732 223.513 14.446ZM222.633 10.1015C222.727 10.5673 222.111 10.8227 221.848 10.4266C221.833 10.4034 221.82 10.3788 221.809 10.353L220.145 6.33511C220.134 6.30938 220.126 6.28269 220.12 6.2554C220.026 5.78957 220.643 5.53418 220.905 5.93028C220.921 5.95349 220.934 5.97813 220.945 6.00385L222.609 10.0218C222.619 10.0475 222.628 10.0742 222.633 10.1015ZM221.234 13.5096C221.628 13.2442 222.1 13.7161 221.834 14.1104C221.819 14.1335 221.801 14.155 221.781 14.1747L218.706 17.2499C218.687 17.2696 218.665 17.2873 218.642 17.3029C218.248 17.5683 217.776 17.0964 218.041 16.7021C218.057 16.679 218.074 16.6575 218.094 16.6378L221.169 13.5626C221.189 13.5429 221.211 13.5252 221.234 13.5096ZM224.975 10.9811C224.955 11.0008 224.934 11.0185 224.911 11.0341C224.516 11.2995 224.044 10.8276 224.31 10.4333C224.325 10.4102 224.343 10.3887 224.363 10.369L227.438 7.29382C227.458 7.27413 227.479 7.25639 227.502 7.24084C227.897 6.9754 228.369 7.44731 228.103 7.84157C228.088 7.86467 228.07 7.88621 228.05 7.9059L224.975 10.9811ZM221.854 14.121C222.117 13.7249 222.733 13.9803 222.639 14.4461C222.633 14.4734 222.625 14.5001 222.615 14.5258L220.95 18.5438C220.94 18.5695 220.926 18.5941 220.911 18.6173C220.648 19.0134 220.032 18.758 220.126 18.2922C220.132 18.2649 220.14 18.2382 220.151 18.2125L221.815 14.1946C221.825 14.1689 221.839 14.1442 221.854 14.121ZM224.304 10.4268C224.041 10.8229 223.424 10.5675 223.519 10.1017C223.524 10.0744 223.533 10.0477 223.543 10.022L225.207 6.00403C225.218 5.97831 225.231 5.95367 225.247 5.93046C225.509 5.53436 226.126 5.78975 226.032 6.25558C226.026 6.28287 226.018 6.30956 226.007 6.33529L224.343 10.3532C224.332 10.3789 224.319 10.4036 224.304 10.4268ZM228.254 26.0805C228.298 25.6933 228.861 25.6933 228.904 26.0805C228.907 26.1048 228.907 26.1294 228.904 26.1537C228.861 26.5409 228.298 26.5409 228.254 26.1537C228.252 26.1294 228.252 26.1048 228.254 26.0805ZM228.904 20.3161C228.861 20.7033 228.298 20.7033 228.254 20.3161C228.252 20.2918 228.252 20.2672 228.254 20.2429C228.298 19.8557 228.861 19.8557 228.904 20.2429C228.907 20.2672 228.907 20.2918 228.904 20.3161ZM225.696 22.8731C226.083 22.9168 226.083 23.4794 225.696 23.523C225.672 23.5258 225.647 23.5258 225.623 23.523C225.236 23.4794 225.236 22.9168 225.623 22.8731C225.647 22.8704 225.672 22.8704 225.696 22.8731ZM231.46 23.523C231.073 23.4794 231.073 22.9168 231.46 22.8731C231.485 22.8704 231.509 22.8704 231.534 22.8731C231.921 22.9168 231.921 23.4794 231.534 23.523C231.509 23.5258 231.485 23.5258 231.46 23.523ZM226.774 20.9296C227.017 21.2343 226.619 21.6321 226.314 21.3892C226.295 21.3739 226.278 21.3565 226.262 21.3374C226.019 21.0327 226.417 20.6349 226.722 20.8778C226.741 20.8931 226.758 20.9105 226.774 20.9296ZM230.39 25.4652C230.147 25.1605 230.545 24.7627 230.85 25.0056C230.869 25.0209 230.886 25.0383 230.901 25.0574C231.144 25.3621 230.747 25.7599 230.442 25.517C230.423 25.5017 230.405 25.4843 230.39 25.4652ZM231.123 24.601C230.782 24.4125 230.998 23.8927 231.372 24.0005C231.396 24.0073 231.418 24.0167 231.44 24.0286C231.781 24.2171 231.566 24.7368 231.191 24.629C231.168 24.6222 231.145 24.6128 231.123 24.601ZM226.047 21.7946C226.388 21.9831 226.172 22.5029 225.798 22.3951C225.774 22.3883 225.752 22.3789 225.73 22.367C225.389 22.1785 225.605 21.6587 225.979 21.7666C226.002 21.7734 226.025 21.7828 226.047 21.7946ZM225.79 24.0007C226.165 23.8929 226.38 24.4126 226.039 24.6011C226.017 24.613 225.995 24.6224 225.971 24.6292C225.597 24.737 225.381 24.2172 225.722 24.0287C225.744 24.0169 225.767 24.0075 225.79 24.0007ZM231.364 22.3952C230.99 22.503 230.775 21.9833 231.116 21.7948C231.137 21.7829 231.16 21.7735 231.183 21.7667C231.558 21.6589 231.773 22.1787 231.432 22.3672C231.411 22.379 231.388 22.3884 231.364 22.3952ZM229.38 25.9861C229.273 25.6117 229.792 25.3964 229.981 25.7374C229.993 25.7588 230.002 25.7815 230.009 25.8051C230.117 26.1795 229.597 26.3948 229.409 26.0538C229.397 26.0323 229.387 26.0096 229.38 25.9861ZM227.775 20.4118C227.883 20.7862 227.363 21.0015 227.175 20.6605C227.163 20.6391 227.153 20.6164 227.147 20.5928C227.039 20.2185 227.558 20.0032 227.747 20.3441C227.759 20.3656 227.768 20.3883 227.775 20.4118ZM226.317 25.0076C226.621 24.7647 227.019 25.1625 226.776 25.4671C226.761 25.4863 226.744 25.5037 226.724 25.5189C226.42 25.7618 226.022 25.364 226.265 25.0594C226.28 25.0402 226.297 25.0229 226.317 25.0076ZM230.852 21.3911C230.548 21.634 230.15 21.2362 230.393 20.9316C230.408 20.9124 230.425 20.8951 230.444 20.8798C230.749 20.6369 231.147 21.0347 230.904 21.3393C230.889 21.3585 230.871 21.3759 230.852 21.3911ZM227.178 25.7384C227.367 25.3975 227.887 25.6127 227.779 25.9871C227.772 26.0107 227.763 26.0334 227.751 26.0548C227.562 26.3958 227.042 26.1805 227.15 25.8061C227.157 25.7826 227.166 25.7599 227.178 25.7384ZM229.985 20.6616C229.796 21.0026 229.276 20.7873 229.384 20.4129C229.391 20.3894 229.4 20.3666 229.412 20.3452C229.601 20.0042 230.121 20.2195 230.013 20.5939C230.006 20.6175 229.997 20.6402 229.985 20.6616Z" fill="white"/>
<path fill-rule="evenodd" clip-rule="evenodd" d="M43 0H59.8622C64.3293 0 67.9506 3.62131 67.9506 8.08841C67.9506 11.2624 66.1224 14.0094 63.4616 15.3338C66.1224 16.6582 67.9506 19.4052 67.9506 22.5791C67.9506 27.0462 64.3293 30.6676 59.8622 30.6676H43V16.1768V14.4907V0ZM51.5566 14.1733C51.5566 11.9073 52.8887 10.1763 53.4373 9.59407C54.2052 10.2865 55.2239 12.3322 55.2239 14.1733C55.2239 16.1877 54.0171 17.6667 53.4373 18.186C52.8887 17.7769 51.5566 16.4393 51.5566 14.1733ZM48.8926 17.9056L50.457 18.8833H47.4749L45.3239 17.9056H48.8926ZM57.8378 17.9057L56.2734 18.8834H59.2555L61.4065 17.9057H57.8378ZM52.4773 18.8942C52.5164 18.7458 52.5573 18.5387 52.5826 18.2866C51.9137 17.4242 51.1687 16.0415 51.1687 14.3286C51.1687 14.2672 51.1696 14.2057 51.1715 14.144C49.7167 12.5372 47.7031 12.0508 46.9251 11.9418C46.7486 13.0003 47.2429 15.3166 48.4326 16.8064C49.7344 18.4365 51.6706 18.8502 52.4773 18.8942ZM55.758 13.3554C56.3665 12.8949 57.0013 12.5513 57.5955 12.2969C57.2173 11.3109 56.6937 10.4809 56.2503 10.0828C55.9963 10.3514 55.5806 10.8559 55.1977 11.5403C55.441 12.0977 55.6434 12.7217 55.758 13.3554ZM49.2343 12.297C49.8284 12.5515 50.4633 12.8951 51.0717 13.3556C51.1864 12.7219 51.3888 12.0977 51.6321 11.5403C51.2492 10.8559 50.8335 10.3514 50.5795 10.0828C50.1361 10.4809 49.6124 11.311 49.2343 12.297ZM54.2201 18.2866C54.2454 18.5387 54.2862 18.7458 54.3254 18.8942C55.1321 18.8502 57.0683 18.4365 58.37 16.8064C59.5598 15.3166 60.0541 13.0003 59.8776 11.9418C59.0996 12.0508 57.086 12.5372 55.6311 14.144C55.633 14.2057 55.634 14.2672 55.634 14.3286C55.634 16.0415 54.8889 17.4242 54.2201 18.2866Z" fill="white"/>
<path fill-rule="evenodd" clip-rule="evenodd" d="M173.004 0.000488281H170V14.4912V16.1773V30.6681H173.004L173.004 0.000488281ZM173.779 30.6681H176.494C176.162 30.313 175.959 29.8361 175.959 29.3117L175.959 21.0019L177.946 25.7875V30.6681H180.172L180.172 0.000488281H177.946L177.946 10.0708L175.959 5.28513L175.959 1.26042C175.959 0.782132 176.128 0.343326 176.41 0.000488281H173.779L173.779 30.6681ZM186.862 30.6681H180.996L180.996 0.000488281H186.862C191.329 0.000488281 194.951 3.6218 194.951 8.08891C194.951 11.2629 193.122 14.0099 190.462 15.3343C193.122 16.6587 194.951 19.4057 194.951 22.5796C194.951 27.0467 191.329 30.6681 186.862 30.6681ZM175.959 17.5556L175.959 8.73137L177.946 13.517L177.946 22.3413L175.959 17.5556ZM174.457 27.9553H175.135V29.6024H174.457V27.9553ZM179.448 26.3077H178.77V27.9548H179.448V26.3077ZM174.457 21.5115H175.135V23.1587H174.457V21.5115ZM179.448 19.8639H178.77V21.5111H179.448V19.8639ZM174.457 15.0678H175.135V16.7149H174.457V15.0678ZM179.448 13.4207H178.77V15.0678H179.448V13.4207ZM174.457 8.62458H175.135V10.2717H174.457V8.62458ZM179.448 6.9775H178.77V8.62462H179.448V6.9775ZM174.457 2.18083H175.135V3.82796H174.457V2.18083ZM179.448 0.533756H178.77V2.18088H179.448V0.533756Z" fill="white"/>
</svg>
