<svg width="25" height="31" viewBox="0 0 25 31" fill="none" xmlns="http://www.w3.org/2000/svg">
<path fill-rule="evenodd" clip-rule="evenodd" d="M16.8622 0H0V14.4907V16.1768V30.6676H16.8622C21.3293 30.6676 24.9506 27.0463 24.9506 22.5792C24.9506 19.4052 23.1224 16.6582 20.4616 15.3338C23.1224 14.0094 24.9506 11.2624 24.9506 8.08842C24.9506 3.62131 21.3293 0 16.8622 0ZM9.44054 12.0407C9.53163 11.5742 10.199 11.5742 10.2901 12.0407C10.2954 12.068 10.2981 12.0958 10.2981 12.1236V16.4726C10.2981 16.5004 10.2954 16.5282 10.2901 16.5555C10.199 17.022 9.53163 17.022 9.44054 16.5555C9.4352 16.5282 9.43252 16.5004 9.43252 16.4726V12.1236C9.43252 12.0958 9.4352 12.068 9.44054 12.0407ZM10.2901 7.69014C10.199 8.15661 9.53163 8.15661 9.44054 7.69014C9.4352 7.66281 9.43252 7.63503 9.43252 7.60718V3.25821C9.43252 3.23037 9.4352 3.20259 9.44054 3.17526C9.53163 2.70879 10.199 2.70879 10.2901 3.17526C10.2954 3.20259 10.2981 3.23037 10.2981 3.25821V7.60718C10.2981 7.63503 10.2954 7.66281 10.2901 7.69014ZM7.69014 9.44021C8.15661 9.53131 8.15661 10.1987 7.69014 10.2898C7.66281 10.2951 7.63503 10.2978 7.60718 10.2978H3.25821C3.23037 10.2978 3.20259 10.2951 3.17526 10.2898C2.70879 10.1987 2.70879 9.53131 3.17526 9.44021C3.20259 9.43488 3.23037 9.43219 3.25821 9.43219H7.60718C7.63503 9.43219 7.66281 9.43488 7.69014 9.44021ZM12.0407 10.2898C11.5742 10.1987 11.5742 9.53131 12.0407 9.44021C12.068 9.43488 12.0958 9.43219 12.1236 9.43219H16.4726C16.5004 9.43219 16.5282 9.43488 16.5555 9.44021C17.022 9.53131 17.022 10.1987 16.5555 10.2898C16.5282 10.2951 16.5004 10.2978 16.4726 10.2978H12.1236C12.0958 10.2978 12.068 10.2951 12.0407 10.2898ZM8.02522 8.62684C8.00213 8.61129 7.98058 8.59355 7.9609 8.57386L4.88571 5.49868C4.86602 5.47899 4.84828 5.45744 4.83273 5.43435C4.56729 5.04008 5.0392 4.56817 5.43346 4.83361C5.45656 4.84916 5.47811 4.8669 5.49779 4.88659L8.57298 7.96178C8.59267 7.98147 8.61041 8.00301 8.62596 8.02611C8.8914 8.42037 8.41949 8.89228 8.02522 8.62684ZM11.1015 11.7031C10.8361 11.3089 11.308 10.837 11.7022 11.1024C11.7253 11.1179 11.7469 11.1357 11.7666 11.1554L14.8418 14.2306C14.8615 14.2502 14.8792 14.2718 14.8947 14.2949C15.1602 14.6892 14.6883 15.1611 14.294 14.8956C14.2709 14.8801 14.2494 14.8623 14.2297 14.8426L11.1545 11.7675C11.1348 11.7478 11.1171 11.7262 11.1015 11.7031ZM11.7145 11.0884C11.3184 10.8257 11.5738 10.2091 12.0396 10.3035C12.0669 10.309 12.0936 10.3171 12.1193 10.3278L16.1372 11.9921C16.163 12.0027 16.1876 12.0158 16.2108 12.0312C16.6069 12.2939 16.3515 12.9105 15.8857 12.8161C15.8584 12.8106 15.8317 12.8025 15.806 12.7918L11.788 11.1275C11.7623 11.1169 11.7377 11.1037 11.7145 11.0884ZM8.02024 8.63859C8.41635 8.90126 8.16095 9.51784 7.69512 9.42349C7.66783 9.41796 7.64114 9.40981 7.61541 9.39916L3.59749 7.73488C3.57176 7.72422 3.54713 7.71111 3.52392 7.69572C3.12781 7.43305 3.38321 6.81646 3.84904 6.91082C3.87633 6.91635 3.90302 6.92449 3.92875 6.93515L7.94667 8.59943C7.9724 8.61008 7.99703 8.6232 8.02024 8.63859ZM7.69122 10.3045C8.15704 10.2102 8.41244 10.8268 8.01633 11.0894C7.99313 11.1048 7.96849 11.1179 7.94276 11.1286L3.92484 12.7929C3.89911 12.8035 3.87242 12.8117 3.84513 12.8172C3.3793 12.9116 3.12391 12.295 3.52001 12.0323C3.54322 12.0169 3.56786 12.0038 3.59358 11.9932L7.61151 10.3289C7.63723 10.3182 7.66392 10.3101 7.69122 10.3045ZM12.0357 9.42457C11.5699 9.51892 11.3145 8.90234 11.7106 8.63967C11.7338 8.62428 11.7584 8.61117 11.7841 8.60051L15.8021 6.93623C15.8278 6.92558 15.8545 6.91743 15.8818 6.9119C16.3476 6.81755 16.603 7.43413 16.2069 7.6968C16.1837 7.71219 16.159 7.7253 16.1333 7.73596L12.1154 9.40024C12.0897 9.41089 12.063 9.41904 12.0357 9.42457ZM10.3005 12.0373C10.2062 11.5714 10.8228 11.316 11.0854 11.7122C11.1008 11.7354 11.1139 11.76 11.1246 11.7857L12.7889 15.8036C12.7995 15.8294 12.8077 15.8561 12.8132 15.8834C12.9076 16.3492 12.291 16.6046 12.0283 16.2085C12.0129 16.1853 11.9998 16.1606 11.9891 16.1349L10.3249 12.117C10.3142 12.0913 10.3061 12.0646 10.3005 12.0373ZM9.42056 7.69279C9.51492 8.15862 8.89833 8.41402 8.63566 8.01791C8.62027 7.9947 8.60716 7.97007 8.5965 7.94434L6.93223 3.92642C6.92157 3.90069 6.91342 3.874 6.90789 3.84671C6.81354 3.38088 7.43012 3.12548 7.6928 3.52159C7.70818 3.5448 7.7213 3.56943 7.73195 3.59516L9.39623 7.61308C9.40689 7.63881 9.41504 7.6655 9.42056 7.69279ZM8.02106 11.1009C8.41532 10.8355 8.88723 11.3074 8.6218 11.7017C8.60625 11.7248 8.58851 11.7463 8.56882 11.766L5.49363 14.8412C5.47394 14.8609 5.4524 14.8786 5.4293 14.8942C5.03504 15.1596 4.56313 14.6877 4.82856 14.2934C4.84411 14.2703 4.86186 14.2488 4.88155 14.2291L7.95673 11.1539C7.97642 11.1342 7.99796 11.1165 8.02106 11.1009ZM11.7624 8.5724C11.7427 8.59209 11.7212 8.60983 11.6981 8.62538C11.3038 8.89081 10.8319 8.4189 11.0973 8.02464C11.1129 8.00154 11.1306 7.98 11.1503 7.96031L14.2255 4.88513C14.2452 4.86544 14.2667 4.84769 14.2898 4.83214C14.6841 4.56671 15.156 5.03862 14.8906 5.43288C14.875 5.45598 14.8573 5.47752 14.8376 5.49721L11.7624 8.5724ZM8.6414 11.7123C8.90407 11.3162 9.52065 11.5716 9.4263 12.0374C9.42077 12.0647 9.41262 12.0914 9.40197 12.1172L7.73769 16.1351C7.72703 16.1608 7.71392 16.1854 7.69853 16.2086C7.43586 16.6048 6.81928 16.3494 6.91363 15.8835C6.91916 15.8562 6.9273 15.8295 6.93796 15.8038L8.60224 11.7859C8.61289 11.7602 8.62601 11.7355 8.6414 11.7123ZM11.0912 8.01809C10.8285 8.4142 10.2119 8.1588 10.3063 7.69297C10.3118 7.66568 10.3199 7.63899 10.3306 7.61326L11.9949 3.59534C12.0055 3.56961 12.0186 3.54498 12.034 3.52177C12.2967 3.12566 12.9133 3.38106 12.8189 3.84689C12.8134 3.87418 12.8053 3.90087 12.7946 3.9266L11.1303 7.94452C11.1197 7.97025 11.1066 7.99488 11.0912 8.01809ZM15.2543 26.0805C15.2979 25.6933 15.8605 25.6933 15.9042 26.0805C15.9069 26.1048 15.9069 26.1294 15.9042 26.1537C15.8605 26.5409 15.2979 26.5409 15.2543 26.1537C15.2515 26.1294 15.2515 26.1048 15.2543 26.0805ZM15.9042 20.3161C15.8605 20.7033 15.2979 20.7033 15.2543 20.3161C15.2515 20.2918 15.2515 20.2672 15.2543 20.2429C15.2979 19.8557 15.8605 19.8557 15.9042 20.2429C15.9069 20.2672 15.9069 20.2918 15.9042 20.3161ZM12.6961 22.8731C13.0833 22.9168 13.0833 23.4794 12.6961 23.523C12.6718 23.5258 12.6472 23.5258 12.6228 23.523C12.2357 23.4794 12.2357 22.9168 12.6228 22.8731C12.6472 22.8704 12.6718 22.8704 12.6961 22.8731ZM18.4604 23.523C18.0733 23.4794 18.0733 22.9168 18.4604 22.8731C18.4848 22.8704 18.5093 22.8704 18.5337 22.8731C18.9209 22.9168 18.9209 23.4794 18.5337 23.523C18.5093 23.5258 18.4848 23.5258 18.4604 23.523ZM13.7737 20.9296C14.0166 21.2343 13.6188 21.6321 13.3141 21.3892C13.295 21.3739 13.2776 21.3565 13.2623 21.3374C13.0194 21.0327 13.4172 20.6349 13.7219 20.8778C13.741 20.8931 13.7584 20.9105 13.7737 20.9296ZM17.3901 25.4652C17.1472 25.1605 17.545 24.7627 17.8497 25.0056C17.8688 25.0209 17.8862 25.0383 17.9015 25.0574C18.1444 25.3621 17.7466 25.7599 17.4419 25.517C17.4228 25.5017 17.4054 25.4843 17.3901 25.4652ZM18.1235 24.601C17.7825 24.4125 17.9978 23.8927 18.3722 24.0005C18.3957 24.0073 18.4184 24.0167 18.4399 24.0286C18.7809 24.2171 18.5656 24.7368 18.1912 24.629C18.1676 24.6222 18.1449 24.6128 18.1235 24.601ZM13.0466 21.7946C13.3876 21.9831 13.1723 22.5029 12.7979 22.3951C12.7744 22.3883 12.7517 22.3789 12.7302 22.367C12.3892 22.1785 12.6045 21.6587 12.9789 21.7666C13.0025 21.7734 13.0252 21.7828 13.0466 21.7946ZM12.7901 24.0007C13.1645 23.8929 13.3798 24.4126 13.0388 24.6011C13.0174 24.613 12.9947 24.6224 12.9711 24.6292C12.5967 24.737 12.3814 24.2172 12.7224 24.0287C12.7439 24.0169 12.7666 24.0075 12.7901 24.0007ZM18.3644 22.3952C17.99 22.503 17.7747 21.9833 18.1157 21.7948C18.1371 21.7829 18.1598 21.7735 18.1834 21.7667C18.5577 21.6589 18.773 22.1787 18.4321 22.3672C18.4106 22.379 18.3879 22.3884 18.3644 22.3952ZM16.3805 25.9861C16.2726 25.6117 16.7924 25.3964 16.9809 25.7374C16.9928 25.7588 17.0022 25.7815 17.0089 25.8051C17.1168 26.1795 16.597 26.3948 16.4085 26.0538C16.3967 26.0323 16.3873 26.0096 16.3805 25.9861ZM14.775 20.4118C14.8828 20.7862 14.3631 21.0015 14.1746 20.6605C14.1627 20.6391 14.1533 20.6164 14.1465 20.5928C14.0387 20.2185 14.5585 20.0032 14.747 20.3441C14.7588 20.3656 14.7682 20.3883 14.775 20.4118ZM13.3166 25.0076C13.6213 24.7647 14.0191 25.1625 13.7762 25.4671C13.7609 25.4863 13.7435 25.5037 13.7244 25.5189C13.4197 25.7618 13.0219 25.364 13.2648 25.0594C13.2801 25.0402 13.2975 25.0229 13.3166 25.0076ZM17.8522 21.3911C17.5475 21.634 17.1497 21.2362 17.3926 20.9316C17.4079 20.9124 17.4253 20.8951 17.4444 20.8798C17.7491 20.6369 18.1469 21.0347 17.904 21.3393C17.8887 21.3585 17.8713 21.3759 17.8522 21.3911ZM14.1783 25.7384C14.3668 25.3975 14.8866 25.6127 14.7788 25.9871C14.772 26.0107 14.7626 26.0334 14.7507 26.0548C14.5622 26.3958 14.0425 26.1805 14.1503 25.8061C14.1571 25.7826 14.1665 25.7599 14.1783 25.7384ZM16.9847 20.6616C16.7962 21.0026 16.2764 20.7873 16.3843 20.4129C16.391 20.3894 16.4004 20.3666 16.4123 20.3452C16.6008 20.0042 17.1206 20.2195 17.0127 20.5939C17.0059 20.6175 16.9965 20.6402 16.9847 20.6616Z" fill="white"/>
</svg>
