<svg width="25" height="31" viewBox="0 0 25 31" fill="none" xmlns="http://www.w3.org/2000/svg">
<path fill-rule="evenodd" clip-rule="evenodd" d="M3.00413 0.000488281H0V14.4912V16.1773V30.6681H3.00413L3.00413 0.000488281ZM3.7793 30.6681H6.49441C6.16243 30.313 5.9592 29.8361 5.9592 29.3117L5.9592 21.0019L7.94556 25.7875V30.6681H10.1725L10.1725 0.000488281H7.94556L7.94556 10.0708L5.9592 5.28513L5.9592 1.26042C5.9592 0.782132 6.12824 0.343326 6.40984 0.000488281H3.7793L3.7793 30.6681ZM16.8622 30.6681H10.9961L10.9961 0.000488281H16.8622C21.3293 0.000488281 24.9506 3.6218 24.9506 8.08891C24.9506 11.2629 23.1224 14.0099 20.4616 15.3343C23.1224 16.6587 24.9506 19.4057 24.9506 22.5796C24.9506 27.0467 21.3293 30.6681 16.8622 30.6681ZM5.9592 17.5556L5.9592 8.73137L7.94556 13.517L7.94556 22.3413L5.9592 17.5556ZM4.45684 27.9553H5.13506V29.6024H4.45684V27.9553ZM9.44794 26.3077H8.76971V27.9548H9.44794V26.3077ZM4.45684 21.5115H5.13506V23.1587H4.45684V21.5115ZM9.44794 19.8639H8.76971V21.5111H9.44794V19.8639ZM4.45684 15.0678H5.13506V16.7149H4.45684V15.0678ZM9.44794 13.4207H8.76971V15.0678H9.44794V13.4207ZM4.45684 8.62458H5.13506V10.2717H4.45684V8.62458ZM9.44794 6.9775H8.76971V8.62462H9.44794V6.9775ZM4.45684 2.18083H5.13506V3.82796H4.45684V2.18083ZM9.44794 0.533756H8.76971V2.18088H9.44794V0.533756Z" fill="white"/>
</svg>
