<svg width="24" height="31" viewBox="0 0 24 31" fill="none" xmlns="http://www.w3.org/2000/svg">
<path fill-rule="evenodd" clip-rule="evenodd" d="M5.47351e-05 0H15.6456C19.8082 0 23.1825 3.37439 23.1825 7.53691C23.1825 10.9885 20.8623 13.8983 17.6964 14.7914C15.1454 15.2289 11.4367 13.9329 10.8706 8.97408C10.4795 5.54874 6.91425 5.53862 6.41971 8.97408C6.16205 10.7639 5.59199 14.3623 5.47351e-05 14.6663V0ZM6.12753 20.8895C5.30181 15.9564 2.03311 15.6791 0 15.6052L0.028174 15.593H0V15.6052V30.6668H15.6456C19.8081 30.6668 23.1825 27.2924 23.1825 23.1299C23.1825 18.9673 19.8081 15.593 15.6456 15.593H15.4918C11.777 15.847 10.8326 19.1236 10.5784 20.8895C10.0839 24.325 6.68118 24.1972 6.12753 20.8895Z" fill="white"/>
</svg>
