<svg width="25" height="31" viewBox="0 0 25 31" fill="none" xmlns="http://www.w3.org/2000/svg">
<path fill-rule="evenodd" clip-rule="evenodd" d="M0 0H16.8622C21.3293 0 24.9506 3.62131 24.9506 8.08841C24.9506 11.2624 23.1224 14.0094 20.4616 15.3338C23.1224 16.6582 24.9506 19.4052 24.9506 22.5791C24.9506 27.0462 21.3293 30.6676 16.8622 30.6676H0V16.1768V14.4907V0ZM8.5566 14.1733C8.5566 11.9073 9.88874 10.1763 10.4373 9.59407C11.2052 10.2865 12.2239 12.3322 12.2239 14.1733C12.2239 16.1877 11.0171 17.6667 10.4373 18.186C9.88874 17.7769 8.5566 16.4393 8.5566 14.1733ZM5.89263 17.9056L7.457 18.8833H4.47492L2.32391 17.9056H5.89263ZM14.8378 17.9057L13.2734 18.8834H16.2555L18.4065 17.9057H14.8378ZM9.47729 18.8942C9.51644 18.7458 9.5573 18.5387 9.58256 18.2866C8.91375 17.4242 8.16866 16.0415 8.16866 14.3286C8.16866 14.2672 8.16962 14.2057 8.17152 14.144C6.71665 12.5372 4.70309 12.0508 3.92509 11.9418C3.74859 13.0003 4.24287 15.3166 5.43263 16.8064C6.73437 18.4365 8.67059 18.8502 9.47729 18.8942ZM12.758 13.3554C13.3665 12.8949 14.0013 12.5513 14.5955 12.2969C14.2173 11.3109 13.6937 10.4809 13.2503 10.0828C12.9963 10.3514 12.5806 10.8559 12.1977 11.5403C12.441 12.0977 12.6434 12.7217 12.758 13.3554ZM6.23427 12.297C6.82845 12.5515 7.4633 12.8951 8.07174 13.3556C8.1864 12.7219 8.38878 12.0977 8.6321 11.5403C8.24918 10.8559 7.8335 10.3514 7.57946 10.0828C7.13613 10.4809 6.61243 11.311 6.23427 12.297ZM11.2201 18.2866C11.2454 18.5387 11.2862 18.7458 11.3254 18.8942C12.1321 18.8502 14.0683 18.4365 15.37 16.8064C16.5598 15.3166 17.0541 13.0003 16.8776 11.9418C16.0996 12.0508 14.086 12.5372 12.6311 14.144C12.633 14.2057 12.634 14.2672 12.634 14.3286C12.634 16.0415 11.8889 17.4242 11.2201 18.2866Z" fill="white"/>
</svg>
