<svg width="25" height="31" viewBox="0 0 25 31" fill="none" xmlns="http://www.w3.org/2000/svg">
<path fill-rule="evenodd" clip-rule="evenodd" d="M1.8245e-05 0L16.8621 0C21.3292 0 24.9505 3.6213 24.9505 8.0884C24.9505 11.2408 23.1471 13.972 20.5157 15.3066L12.4131 14.5014L15.0452 10.7007L11.2315 13.3239L10.3961 4.97343L9.56061 13.3239L5.7469 10.7007L8.37908 14.5014L1.8245e-05 15.334L8.37908 16.1666L5.7469 19.9673L9.56061 17.3441L10.3961 25.6946L11.2315 17.3441L15.0452 19.9673L12.4131 16.1666L20.5165 15.3614C23.1475 16.6961 24.9505 19.4271 24.9505 22.5791C24.9505 27.0462 21.3292 30.6675 16.8621 30.6675H0L0 14.4907H1.8245e-05L1.8245e-05 0ZM20.5165 15.3614L20.7921 15.334L20.5157 15.3066C20.4977 15.3157 20.4796 15.3248 20.4615 15.3338C20.4799 15.3429 20.4982 15.3521 20.5165 15.3614Z" fill="white"/>
</svg>
