<svg width="25" height="31" viewBox="0 0 25 31" fill="none" xmlns="http://www.w3.org/2000/svg">
<path fill-rule="evenodd" clip-rule="evenodd" d="M16.8622 0.000976562H0V14.4917V16.1778V30.6685H16.8622C17.773 30.6685 18.6486 30.518 19.4655 30.2405C18.1668 29.1907 15.8541 27.9854 14.3007 29.1504C13.5403 28.6998 13.1608 28.1223 12.2754 26.7747L12.2754 26.7746C11.9824 26.3288 11.6341 25.7986 11.1982 25.1609C9.37468 22.4926 8.58703 21.9375 8.19972 22.1249C6.83789 22.4872 4.06925 22.5372 3.88934 19.8385C3.70942 17.1399 6.43808 16.89 7.8249 17.1024L9.3974 17.8578L9.71765 17.16C9.41134 17.0107 9.2756 16.6445 9.41446 16.3301C9.55663 16.0082 9.93282 15.8625 10.2547 16.0047L10.7347 16.2167C11.0566 16.3588 11.2023 16.735 11.0601 17.0569C10.9179 17.3788 10.5417 17.5245 10.2199 17.3823L10.1234 17.3397L9.79745 18.05L11.4394 18.8388L11.7159 18.2363C11.4094 18.087 11.2736 17.7207 11.4125 17.4063C11.5547 17.0844 11.9309 16.9387 12.2528 17.0808L12.7327 17.2928C13.0546 17.435 13.2003 17.8112 13.0581 18.1331C12.916 18.455 12.5398 18.6007 12.2179 18.4585L12.1216 18.416L11.8394 19.031L13.4367 19.7984L13.7414 19.1343C13.4349 18.9851 13.299 18.6187 13.4379 18.3042C13.5801 17.9823 13.9563 17.8366 14.2781 17.9788L14.7581 18.1908C15.08 18.333 15.2257 18.7091 15.0835 19.031C14.9414 19.3529 14.5652 19.4986 14.2433 19.3564L14.1472 19.314L13.8367 19.9906L15.4894 20.7845L15.7647 20.1845C15.4583 20.0352 15.3225 19.6689 15.4613 19.3545C15.6035 19.0326 15.9797 18.8869 16.3016 19.0291L16.7816 19.2411C17.1035 19.3832 17.2491 19.7594 17.107 20.0813C16.9648 20.4032 16.5886 20.5489 16.2667 20.4067L16.1705 20.3642L15.8894 20.9767L17.5139 21.7572L17.7881 21.1596C17.4817 21.0103 17.3459 20.644 17.4848 20.3296C17.6269 20.0077 18.0031 19.862 18.325 20.0042L18.805 20.2162C19.1269 20.3583 19.2726 20.7345 19.1304 21.0564C18.9882 21.3783 18.6121 21.524 18.2902 21.3818L18.1939 21.3393L17.914 21.9493L19.4832 22.7032L19.8133 21.9837C19.507 21.8344 19.3713 21.4682 19.5102 21.1538C19.6523 20.8319 20.0285 20.6862 20.3504 20.8284L20.8304 21.0404C21.1523 21.1826 21.298 21.5588 21.1558 21.8806C21.0136 22.2025 20.6374 22.3482 20.3156 22.2061L20.2191 22.1635L19.8832 22.8954L22.1804 23.999C22.3553 24.3363 22.5327 25.2359 21.843 26.1354C21.1767 27.0045 22.0194 27.9202 22.573 28.308C24.0417 26.8436 24.9506 24.818 24.9506 22.5801C24.9506 19.4062 23.1224 16.6592 20.4616 15.3348C23.1224 14.0104 24.9506 11.2634 24.9506 8.0894C24.9506 3.62229 21.3293 0.000976562 16.8622 0.000976562ZM9.57629 19.1426C9.57629 19.4738 9.30781 19.7423 8.97662 19.7423C8.64543 19.7423 8.37695 19.4738 8.37695 19.1426C8.37695 18.8114 8.64543 18.5429 8.97662 18.5429C9.30781 18.5429 9.57629 18.8114 9.57629 19.1426ZM10.9278 20.942C11.259 20.942 11.5275 20.6735 11.5275 20.3423C11.5275 20.0111 11.259 19.7426 10.9278 19.7426C10.5966 19.7426 10.3281 20.0111 10.3281 20.3423C10.3281 20.6735 10.5966 20.942 10.9278 20.942ZM13.6271 21.167C13.6271 21.4982 13.3586 21.7667 13.0274 21.7667C12.6962 21.7667 12.4277 21.4982 12.4277 21.167C12.4277 20.8358 12.6962 20.5673 13.0274 20.5673C13.3586 20.5673 13.6271 20.8358 13.6271 21.167ZM15.0528 22.6666C15.384 22.6666 15.6525 22.3981 15.6525 22.0669C15.6525 21.7357 15.384 21.4672 15.0528 21.4672C14.7216 21.4672 14.4531 21.7357 14.4531 22.0669C14.4531 22.3981 14.7216 22.6666 15.0528 22.6666ZM17.6739 23.041C17.6739 23.3722 17.4055 23.6407 17.0743 23.6407C16.7431 23.6407 16.4746 23.3722 16.4746 23.041C16.4746 22.7098 16.7431 22.4414 17.0743 22.4414C17.4055 22.4414 17.6739 22.7098 17.6739 23.041ZM19.0976 24.6155C19.4287 24.6155 19.6972 24.347 19.6972 24.0158C19.6972 23.6846 19.4287 23.4161 19.0976 23.4161C18.7664 23.4161 18.4979 23.6846 18.4979 24.0158C18.4979 24.347 18.7664 24.6155 19.0976 24.6155ZM6.53647 5.29719L5.65046 3.44043L4.76446 5.29719L2.72478 5.56606L4.21688 6.98247L3.84229 9.00541L5.65046 8.02403L7.45863 9.00541L7.08405 6.98247L8.57615 5.56606L6.53647 5.29719Z" fill="white"/>
</svg>
