<svg width="1474" height="564" viewBox="0 0 1474 564" fill="none" xmlns="http://www.w3.org/2000/svg">
<path d="M135.099 126.107H119.957V123.065H125.699V119.032H129.459V123.065H135.099V126.107ZM127.579 127.748C128.878 127.748 130.034 128.056 131.048 128.671C132.074 129.275 132.871 130.124 133.441 131.217C134.022 132.311 134.312 133.547 134.312 134.926C134.312 136.327 134.022 137.58 133.441 138.686C132.871 139.791 132.074 140.657 131.048 141.283C130.034 141.898 128.878 142.206 127.579 142.206C126.292 142.206 125.135 141.898 124.11 141.283C123.084 140.657 122.281 139.791 121.7 138.686C121.119 137.58 120.834 136.327 120.846 134.926C120.834 133.547 121.119 132.311 121.7 131.217C122.281 130.124 123.084 129.275 124.11 128.671C125.135 128.056 126.292 127.748 127.579 127.748ZM127.579 130.893C126.907 130.893 126.314 131.063 125.802 131.405C125.289 131.736 124.89 132.208 124.605 132.824C124.321 133.428 124.184 134.128 124.195 134.926C124.184 135.746 124.321 136.464 124.605 137.079C124.89 137.694 125.289 138.167 125.802 138.498C126.314 138.817 126.907 138.97 127.579 138.959C128.24 138.97 128.827 138.817 129.339 138.498C129.852 138.167 130.251 137.694 130.536 137.079C130.82 136.464 130.963 135.746 130.963 134.926C130.963 134.128 130.82 133.428 130.536 132.824C130.251 132.208 129.852 131.736 129.339 131.405C128.827 131.063 128.24 130.893 127.579 130.893ZM146.583 149.042H142.96V133.935H139.952V147.641H136.397V118.793H139.952V130.858H142.96V118.144H146.583V149.042ZM178.849 125.39H174.645V128.91H178.849V132.055H174.645V136.293H170.851V118.144H174.645V122.279H178.849V125.39ZM158.956 119.921C160.528 119.91 161.947 120.217 163.211 120.844C164.476 121.459 165.467 122.331 166.185 123.458C166.914 124.586 167.285 125.868 167.296 127.304C167.285 128.728 166.914 130.004 166.185 131.132C165.467 132.248 164.476 133.126 163.211 133.764C161.947 134.39 160.528 134.709 158.956 134.721C157.372 134.709 155.943 134.39 154.667 133.764C153.402 133.126 152.405 132.248 151.676 131.132C150.958 130.004 150.605 128.728 150.616 127.304C150.605 125.868 150.958 124.592 151.676 123.476C152.405 122.348 153.402 121.47 154.667 120.844C155.943 120.217 157.372 119.91 158.956 119.921ZM158.956 123.1C158.067 123.1 157.27 123.276 156.563 123.629C155.868 123.983 155.322 124.478 154.923 125.116C154.524 125.743 154.33 126.472 154.342 127.304C154.33 128.135 154.518 128.87 154.906 129.508C155.305 130.135 155.857 130.625 156.563 130.978C157.27 131.32 158.067 131.496 158.956 131.508C159.833 131.496 160.619 131.32 161.314 130.978C162.021 130.625 162.573 130.135 162.972 129.508C163.371 128.87 163.57 128.135 163.57 127.304C163.57 126.472 163.371 125.743 162.972 125.116C162.573 124.478 162.021 123.983 161.314 123.629C160.619 123.276 159.833 123.1 158.956 123.1ZM164.596 137.011C166.692 137.011 168.515 137.25 170.064 137.729C171.625 138.207 172.827 138.902 173.67 139.813C174.514 140.714 174.941 141.785 174.952 143.026C174.941 144.268 174.514 145.339 173.67 146.239C172.827 147.139 171.625 147.823 170.064 148.29C168.515 148.769 166.692 149.008 164.596 149.008C162.477 149.008 160.625 148.769 159.042 148.29C157.469 147.823 156.256 147.139 155.401 146.239C154.558 145.339 154.137 144.268 154.137 143.026C154.137 141.785 154.564 140.714 155.418 139.813C156.273 138.902 157.486 138.207 159.059 137.729C160.631 137.25 162.477 137.011 164.596 137.011ZM164.596 140.053C162.465 140.053 160.819 140.309 159.657 140.822C158.506 141.323 157.931 142.058 157.931 143.026C157.931 143.995 158.506 144.73 159.657 145.231C160.807 145.721 162.454 145.966 164.596 145.966C166.726 145.966 168.355 145.721 169.483 145.231C170.623 144.73 171.192 143.995 171.192 143.026C171.192 142.058 170.623 141.323 169.483 140.822C168.355 140.309 166.726 140.053 164.596 140.053ZM213.917 135.199H204.757V142.274H217.062V145.385H188.829V142.274H200.997V135.199H192.247V120.434H213.678V123.476H196.041V132.191H213.917V135.199ZM230.768 125.561C230.756 127.463 231.069 129.315 231.708 131.115C232.346 132.915 233.268 134.516 234.476 135.917C235.684 137.318 237.102 138.367 238.731 139.062L236.476 142.104C234.732 141.295 233.211 140.115 231.913 138.566C230.625 137.016 229.617 135.211 228.888 133.148C228.159 135.382 227.127 137.341 225.794 139.027C224.473 140.702 222.895 141.967 221.061 142.821L218.736 139.643C220.411 138.925 221.864 137.842 223.094 136.396C224.336 134.937 225.282 133.268 225.931 131.388C226.581 129.497 226.905 127.554 226.905 125.561V120.639H230.768V125.561ZM244.781 149.076H240.953V118.144H244.781V149.076Z" fill="white"/>
<path d="M682.806 121.493C682.806 122.929 682.766 124.233 682.686 125.407C682.618 126.569 682.447 127.862 682.173 129.286H686.258V132.294H658.025V129.286H678.345C678.596 128.021 678.767 126.854 678.858 125.783C678.949 124.7 679 123.59 679.012 122.45H661.512V119.442H682.806V121.493ZM682.771 143.129H665.101V145.761H683.558V148.734H661.307V140.224H678.978V137.729H661.272V134.755H682.771V143.129ZM716.507 145.453H688.274V142.309H700.442V137.284H691.624V127.167H709.397V123.339H691.556V120.263H713.157V130.175H695.418V134.174H713.875V137.284H704.202V142.309H716.507V145.453ZM744.397 134.037H740.604V127.714H734.383V133.046H719.925V119.511H723.719V123.339H730.623V119.511H734.383V124.604H740.604V118.144H744.397V134.037ZM744.397 143.266H727.854V145.658H745.389V148.666H724.061V140.497H740.604V138.31H724.026V135.302H744.397V143.266ZM730.623 130.038V126.312H723.719V130.038H730.623ZM775.33 125.937H757.146V122.895H764.29V118.588H768.118V122.895H775.33V125.937ZM766.238 127.953C767.628 127.953 768.876 128.266 769.981 128.893C771.097 129.508 771.975 130.374 772.613 131.491C773.251 132.596 773.576 133.843 773.587 135.233C773.576 136.601 773.251 137.837 772.613 138.942C771.975 140.047 771.097 140.913 769.981 141.54C768.864 142.166 767.617 142.479 766.238 142.479C764.837 142.479 763.572 142.166 762.444 141.54C761.316 140.913 760.428 140.047 759.778 138.942C759.14 137.837 758.821 136.601 758.821 135.233C758.821 133.843 759.14 132.596 759.778 131.491C760.416 130.386 761.299 129.52 762.427 128.893C763.555 128.266 764.826 127.953 766.238 127.953ZM766.238 131.166C765.498 131.166 764.831 131.337 764.239 131.679C763.646 132.009 763.185 132.482 762.854 133.097C762.524 133.712 762.365 134.424 762.376 135.233C762.365 136.042 762.524 136.754 762.854 137.37C763.185 137.973 763.646 138.441 764.239 138.771C764.831 139.09 765.498 139.244 766.238 139.232C766.967 139.244 767.623 139.09 768.204 138.771C768.796 138.441 769.257 137.968 769.588 137.353C769.93 136.737 770.101 136.031 770.101 135.233C770.101 134.424 769.93 133.712 769.588 133.097C769.257 132.482 768.796 132.009 768.204 131.679C767.623 131.337 766.967 131.166 766.238 131.166ZM782.986 149.042H779.227V133.729H774.681V130.619H779.227V118.144H782.986V149.042ZM815.56 145.18H787.327V142.035H815.56V145.18ZM794.231 125.526H808.553V120.229H812.347V136.532H790.438V120.229H794.231V125.526ZM808.553 133.559V128.5H794.231V133.559H808.553Z" fill="white"/>
<path d="M1207.13 124.501C1207.13 125.64 1207.41 126.734 1207.97 127.782C1208.53 128.83 1209.36 129.765 1210.47 130.585C1211.57 131.405 1212.91 132.032 1214.48 132.465L1212.74 135.404C1211 134.937 1209.49 134.214 1208.23 133.234C1206.96 132.243 1205.98 131.069 1205.27 129.713C1204.58 131.206 1203.58 132.493 1202.3 133.576C1201.01 134.647 1199.47 135.438 1197.67 135.951L1195.85 133.012C1197.44 132.567 1198.79 131.918 1199.92 131.063C1201.05 130.198 1201.9 129.201 1202.47 128.073C1203.05 126.933 1203.34 125.743 1203.34 124.501V124.433H1196.88V121.425H1203.34V118.007H1207.17V121.425H1213.59V124.433H1207.13V124.501ZM1220.4 125.595H1224.7V128.739H1220.4V136.327H1216.6V118.144H1220.4V125.595ZM1220.4 148.666H1200.43V137.626H1220.4V148.666ZM1204.19 145.59H1216.64V140.634H1204.19V145.59ZM1234.72 120.399C1236.11 120.399 1237.36 120.77 1238.48 121.51C1239.6 122.251 1240.52 123.305 1241.21 124.672H1248.42V118.144H1252.18V149.076H1248.42V137.387H1241.48C1240.81 138.925 1239.89 140.121 1238.72 140.976C1237.54 141.819 1236.21 142.24 1234.72 142.24C1233.17 142.24 1231.79 141.796 1230.6 140.907C1229.4 140.019 1228.47 138.748 1227.8 137.096C1227.12 135.444 1226.79 133.513 1226.79 131.303C1226.79 129.115 1227.12 127.201 1227.8 125.561C1228.47 123.909 1229.4 122.638 1230.6 121.75C1231.81 120.849 1233.18 120.399 1234.72 120.399ZM1234.72 123.817C1233.86 123.817 1233.11 124.119 1232.46 124.723C1231.81 125.316 1231.31 126.176 1230.96 127.304C1230.6 128.42 1230.43 129.753 1230.44 131.303C1230.43 132.864 1230.6 134.208 1230.96 135.336C1231.31 136.464 1231.81 137.33 1232.46 137.934C1233.11 138.526 1233.86 138.822 1234.72 138.822C1235.57 138.822 1236.32 138.526 1236.96 137.934C1237.6 137.33 1238.11 136.464 1238.46 135.336C1238.82 134.208 1239.01 132.864 1239.02 131.303C1239.01 129.753 1238.82 128.415 1238.46 127.287C1238.11 126.159 1237.6 125.299 1236.96 124.706C1236.32 124.114 1235.57 123.817 1234.72 123.817ZM1242.27 127.782C1242.5 128.887 1242.61 130.061 1242.61 131.303C1242.61 132.328 1242.53 133.331 1242.37 134.311H1248.42V127.782H1242.27ZM1273.85 124.228H1256.59V121.22H1263.5V117.87H1267.29V121.22H1273.85V124.228ZM1265.34 125.458C1266.73 125.458 1267.97 125.703 1269.07 126.193C1270.16 126.671 1271.02 127.349 1271.63 128.227C1272.26 129.092 1272.58 130.095 1272.59 131.234C1272.58 132.362 1272.26 133.359 1271.63 134.225C1271.02 135.08 1270.16 135.746 1269.07 136.225C1267.97 136.703 1266.73 136.942 1265.34 136.942C1263.95 136.942 1262.71 136.703 1261.62 136.225C1260.53 135.746 1259.69 135.08 1259.09 134.225C1258.48 133.359 1258.19 132.362 1258.2 131.234C1258.19 130.095 1258.48 129.092 1259.09 128.227C1259.69 127.349 1260.53 126.671 1261.62 126.193C1262.71 125.703 1263.95 125.458 1265.34 125.458ZM1265.34 128.295C1264.24 128.295 1263.36 128.557 1262.71 129.081C1262.06 129.605 1261.74 130.323 1261.75 131.234C1261.74 132.134 1262.06 132.841 1262.71 133.354C1263.36 133.855 1264.24 134.105 1265.34 134.105C1266.46 134.105 1267.35 133.849 1268.02 133.336C1268.7 132.824 1269.03 132.123 1269.03 131.234C1269.03 130.323 1268.69 129.605 1268.01 129.081C1267.34 128.557 1266.45 128.295 1265.34 128.295ZM1282.4 137.934H1278.6V134.311H1274.02V131.269H1278.6V128.227H1274.06V125.15H1278.6V118.144H1282.4V137.934ZM1272.01 138.275C1274.17 138.275 1276.05 138.492 1277.63 138.925C1279.22 139.346 1280.44 139.962 1281.29 140.771C1282.14 141.568 1282.57 142.525 1282.57 143.642C1282.57 144.747 1282.14 145.704 1281.29 146.513C1280.44 147.322 1279.22 147.937 1277.63 148.358C1276.05 148.791 1274.17 149.008 1272.01 149.008C1269.84 149.008 1267.96 148.791 1266.37 148.358C1264.78 147.937 1263.56 147.322 1262.71 146.513C1261.87 145.704 1261.45 144.747 1261.45 143.642C1261.45 142.525 1261.87 141.568 1262.71 140.771C1263.56 139.962 1264.78 139.346 1266.37 138.925C1267.96 138.492 1269.84 138.275 1272.01 138.275ZM1272.01 141.181C1269.9 141.181 1268.28 141.391 1267.14 141.813C1266.01 142.223 1265.44 142.833 1265.44 143.642C1265.44 144.439 1266.01 145.049 1267.15 145.47C1268.29 145.892 1269.91 146.103 1272.01 146.103C1274.09 146.103 1275.69 145.892 1276.81 145.47C1277.94 145.049 1278.5 144.439 1278.5 143.642C1278.5 142.833 1277.94 142.223 1276.83 141.813C1275.71 141.391 1274.1 141.181 1272.01 141.181ZM1306.77 125.561C1306.76 127.463 1307.07 129.315 1307.71 131.115C1308.35 132.915 1309.27 134.516 1310.48 135.917C1311.68 137.318 1313.1 138.367 1314.73 139.062L1312.48 142.104C1310.73 141.295 1309.21 140.115 1307.91 138.566C1306.63 137.016 1305.62 135.211 1304.89 133.148C1304.16 135.382 1303.13 137.341 1301.79 139.027C1300.47 140.702 1298.89 141.967 1297.06 142.821L1294.74 139.643C1296.41 138.925 1297.86 137.842 1299.09 136.396C1300.34 134.937 1301.28 133.268 1301.93 131.388C1302.58 129.497 1302.91 127.554 1302.91 125.561V120.639H1306.77V125.561ZM1320.78 149.076H1316.95V118.144H1320.78V149.076ZM1341.29 122.382C1341.29 123.965 1341.77 125.509 1342.72 127.013C1343.69 128.517 1345.03 129.816 1346.72 130.91C1348.42 131.992 1350.32 132.715 1352.43 133.08L1350.72 136.259C1348.14 135.712 1345.83 134.704 1343.82 133.234C1341.81 131.753 1340.31 129.97 1339.31 127.885C1338.28 129.958 1336.76 131.736 1334.74 133.217C1332.73 134.687 1330.43 135.701 1327.86 136.259L1326.18 133.08C1328.27 132.704 1330.15 131.975 1331.82 130.893C1333.51 129.799 1334.83 128.5 1335.79 126.996C1336.75 125.492 1337.24 123.954 1337.26 122.382V120.092H1341.29V122.382ZM1353.56 145.111H1325.33V141.967H1353.56V145.111ZM1368.63 123.134H1360.53V126.039H1367.47V128.979H1360.53V132.157C1362.51 132.134 1364.2 132.077 1365.57 131.986C1366.95 131.884 1368.36 131.701 1369.79 131.439L1370.21 134.413C1368.51 134.721 1366.83 134.931 1365.18 135.045C1363.54 135.148 1361.46 135.199 1358.93 135.199H1356.88V120.058H1368.63V123.134ZM1382 136.635H1378.37V118.144H1382V136.635ZM1375.91 136.396H1372.29V128.773H1368.8V125.697H1372.29V118.656H1375.91V136.396ZM1382 148.666H1361.15V137.934H1382V148.666ZM1364.94 145.59H1378.24V140.941H1364.94V145.59Z" fill="white"/>
<circle cx="184" cy="380" r="184" fill="white"/>
<circle cx="737" cy="380" r="184" fill="white"/>
<circle cx="1290" cy="380" r="184" fill="white"/>
<circle cx="184" cy="184" r="182.5" stroke="white" stroke-width="3"/>
<circle cx="737" cy="184" r="182.5" stroke="white" stroke-width="3"/>
<circle cx="1290" cy="184" r="182.5" stroke="white" stroke-width="3"/>
<line x1="397" y1="401" x2="525" y2="401" stroke="white" stroke-width="2" stroke-dasharray="5 5"/>
<line x1="950" y1="401" x2="1078" y2="401" stroke="white" stroke-width="2" stroke-dasharray="5 5"/>
<path d="M122.929 321.501H126.322V323.796H122.929V335.173H120.219V313.103H122.929V321.501ZM109.11 320.427H114.311V314.909H117.021V329.997H106.425V314.909H109.11V320.427ZM114.311 327.775V322.551H109.11V327.775H114.311ZM144.535 321.477H147.929V323.698H144.535V335.197H141.825V313.103H144.535V321.477ZM138.48 317.399H130.863V327.531C132.646 327.531 134.253 327.478 135.685 327.373C137.117 327.267 138.57 327.084 140.043 326.823L140.36 329.118C138.765 329.395 137.187 329.578 135.624 329.667C134.07 329.757 132.19 329.802 129.984 329.802H128.153V315.202H138.48V317.399ZM155.448 314.47C156.571 314.47 157.589 314.698 158.5 315.153C159.411 315.601 160.128 316.232 160.648 317.045C161.177 317.851 161.446 318.767 161.454 319.792C161.446 320.679 161.247 321.485 160.856 322.209C160.465 322.933 159.92 323.535 159.22 324.016C158.528 324.496 157.735 324.821 156.84 324.992V328.239C158.834 328.15 160.632 327.995 162.235 327.775L162.431 329.802C159.346 330.355 155.57 330.632 151.103 330.632C150.582 330.632 150.207 330.624 149.979 330.607H148.979L148.588 328.386C150.964 328.386 152.812 328.369 154.13 328.337V325.004C153.21 324.85 152.396 324.532 151.688 324.052C150.98 323.572 150.431 322.966 150.041 322.233C149.65 321.501 149.459 320.687 149.467 319.792C149.459 318.767 149.711 317.851 150.224 317.045C150.736 316.232 151.448 315.601 152.36 315.153C153.271 314.698 154.301 314.47 155.448 314.47ZM155.448 316.765C154.805 316.773 154.228 316.903 153.715 317.155C153.21 317.399 152.816 317.749 152.531 318.205C152.246 318.661 152.104 319.19 152.104 319.792C152.104 320.402 152.246 320.935 152.531 321.391C152.824 321.847 153.222 322.197 153.727 322.441C154.232 322.685 154.805 322.803 155.448 322.795C156.083 322.803 156.653 322.685 157.157 322.441C157.662 322.197 158.056 321.847 158.341 321.391C158.626 320.935 158.769 320.402 158.769 319.792C158.769 319.19 158.626 318.661 158.341 318.205C158.056 317.749 157.662 317.399 157.157 317.155C156.653 316.903 156.083 316.773 155.448 316.765ZM166.215 321.916H169.413V324.211H166.215V335.173H163.505V313.103H166.215V321.916ZM193.803 318.693H196.879V320.964H193.803V326.408H191.093V313.103H193.803V318.693ZM193.803 334.904H179.545V327.458H193.803V334.904ZM182.23 332.707H191.117V329.606H182.23V332.707ZM189.506 317.399H176.42V315.227H181.62V312.956H184.33V315.227H189.506V317.399ZM182.963 318.205C184.013 318.205 184.944 318.372 185.758 318.706C186.572 319.039 187.207 319.507 187.663 320.109C188.118 320.703 188.35 321.387 188.358 322.16C188.35 322.941 188.118 323.633 187.663 324.235C187.215 324.829 186.584 325.293 185.771 325.627C184.957 325.952 184.021 326.115 182.963 326.115C181.897 326.115 180.953 325.952 180.131 325.627C179.317 325.293 178.682 324.829 178.227 324.235C177.771 323.633 177.543 322.941 177.543 322.16C177.543 321.387 177.771 320.703 178.227 320.109C178.682 319.507 179.321 319.039 180.143 318.706C180.965 318.372 181.905 318.205 182.963 318.205ZM182.963 320.256C182.117 320.256 181.441 320.427 180.937 320.769C180.432 321.102 180.18 321.566 180.18 322.16C180.18 322.762 180.428 323.234 180.924 323.576C181.429 323.918 182.108 324.089 182.963 324.089C183.817 324.089 184.497 323.918 185.001 323.576C185.514 323.234 185.771 322.762 185.771 322.16C185.771 321.566 185.514 321.102 185.001 320.769C184.497 320.427 183.817 320.256 182.963 320.256ZM203.446 315.69C203.438 317.627 203.336 319.414 203.141 321.049C202.946 322.685 202.588 324.288 202.067 325.859C201.554 327.421 200.834 328.89 199.906 330.266L197.782 329.118C198.93 327.499 199.743 325.798 200.224 324.016C200.712 322.225 201.001 320.183 201.09 317.888H198.417V315.69H203.446ZM208.378 315.69C208.37 316.838 208.349 317.871 208.317 318.791C208.284 319.711 208.219 320.614 208.122 321.501H210.355V313.64H212.919V334.123H210.355V323.698H207.829C207.3 326.734 206.303 329.33 204.838 331.486L202.763 330.314C203.601 329.118 204.252 327.853 204.716 326.518C205.188 325.175 205.513 323.816 205.692 322.441C205.88 321.066 205.993 319.548 206.034 317.888H204.105V315.69H208.378ZM217.191 335.173H214.579V313.103H217.191V335.173ZM236.894 321.892H240.287V324.138H236.894V335.173H234.208V313.103H236.894V321.892ZM232.499 318.669H219.486V316.496H224.711V313.42H227.421V316.496H232.499V318.669ZM226.078 320.109C227.128 320.109 228.072 320.333 228.91 320.781C229.757 321.22 230.42 321.835 230.9 322.624C231.38 323.413 231.62 324.309 231.62 325.31C231.62 326.311 231.38 327.206 230.9 327.995C230.42 328.776 229.757 329.387 228.91 329.826C228.072 330.266 227.128 330.485 226.078 330.485C225.012 330.485 224.056 330.266 223.209 329.826C222.363 329.387 221.7 328.776 221.22 327.995C220.74 327.206 220.504 326.311 220.512 325.31C220.504 324.309 220.74 323.413 221.22 322.624C221.7 321.835 222.363 321.22 223.209 320.781C224.056 320.333 225.012 320.109 226.078 320.109ZM226.078 322.331C225.5 322.331 224.984 322.453 224.528 322.697C224.08 322.941 223.73 323.291 223.478 323.747C223.226 324.195 223.1 324.715 223.1 325.31C223.1 325.904 223.226 326.424 223.478 326.872C223.73 327.312 224.08 327.653 224.528 327.897C224.984 328.133 225.5 328.247 226.078 328.239C226.64 328.247 227.14 328.133 227.58 327.897C228.027 327.653 228.377 327.312 228.629 326.872C228.89 326.424 229.024 325.904 229.032 325.31C229.024 324.715 228.89 324.195 228.629 323.747C228.377 323.299 228.027 322.954 227.58 322.709C227.14 322.457 226.64 322.331 226.078 322.331ZM259.086 321.501H243.803V313.908H246.488V319.353H259.086V321.501ZM261.356 326.213H241.19V324.064H261.356V326.213ZM259.232 334.66H243.607V328.166H246.317V332.463H259.232V334.66ZM84.5864 361.477H87.98V363.698H84.5864V375.197H81.8765V353.103H84.5864V361.477ZM78.5317 357.399H70.9146V367.531C72.6968 367.531 74.304 367.478 75.7363 367.373C77.1686 367.267 78.6213 367.084 80.0942 366.823L80.4116 369.118C78.8166 369.395 77.2378 369.578 75.6753 369.667C74.1209 369.757 72.241 369.802 70.0356 369.802H68.2046V355.202H78.5317V357.399ZM109.318 358.278H106.315V360.793H109.318V363.039H106.315V366.066H103.605V353.103H106.315V356.057H109.318V358.278ZM95.1089 354.372C96.2319 354.364 97.2451 354.584 98.1484 355.031C99.0518 355.471 99.7598 356.093 100.272 356.899C100.793 357.705 101.058 358.62 101.066 359.646C101.058 360.663 100.793 361.574 100.272 362.38C99.7598 363.177 99.0518 363.804 98.1484 364.26C97.2451 364.707 96.2319 364.935 95.1089 364.943C93.9777 364.935 92.9564 364.707 92.0449 364.26C91.1416 363.804 90.4295 363.177 89.9087 362.38C89.396 361.574 89.1437 360.663 89.1519 359.646C89.1437 358.62 89.396 357.709 89.9087 356.911C90.4295 356.105 91.1416 355.479 92.0449 355.031C92.9564 354.584 93.9777 354.364 95.1089 354.372ZM95.1089 356.643C94.4741 356.643 93.9045 356.769 93.3999 357.021C92.9035 357.273 92.5129 357.627 92.228 358.083C91.9432 358.531 91.8049 359.051 91.813 359.646C91.8049 360.24 91.9391 360.764 92.2158 361.22C92.5007 361.668 92.8953 362.018 93.3999 362.27C93.9045 362.514 94.4741 362.64 95.1089 362.648C95.7355 362.64 96.297 362.514 96.7935 362.27C97.298 362.018 97.6927 361.668 97.9775 361.22C98.2624 360.764 98.4048 360.24 98.4048 359.646C98.4048 359.051 98.2624 358.531 97.9775 358.083C97.6927 357.627 97.298 357.273 96.7935 357.021C96.297 356.769 95.7355 356.643 95.1089 356.643ZM99.1372 366.579C100.635 366.579 101.937 366.75 103.043 367.092C104.158 367.434 105.017 367.93 105.619 368.581C106.221 369.224 106.527 369.989 106.535 370.876C106.527 371.763 106.221 372.528 105.619 373.171C105.017 373.814 104.158 374.302 103.043 374.636C101.937 374.978 100.635 375.148 99.1372 375.148C97.6235 375.148 96.3011 374.978 95.1699 374.636C94.0469 374.302 93.1802 373.814 92.5698 373.171C91.9676 372.528 91.6665 371.763 91.6665 370.876C91.6665 369.989 91.9717 369.224 92.582 368.581C93.1924 367.93 94.0591 367.434 95.1821 367.092C96.3052 366.75 97.6235 366.579 99.1372 366.579ZM99.1372 368.752C97.6154 368.752 96.4395 368.935 95.6094 369.301C94.7874 369.659 94.3765 370.184 94.3765 370.876C94.3765 371.568 94.7874 372.093 95.6094 372.451C96.4313 372.801 97.6073 372.976 99.1372 372.976C100.659 372.976 101.823 372.801 102.628 372.451C103.442 372.093 103.849 371.568 103.849 370.876C103.849 370.184 103.442 369.659 102.628 369.301C101.823 368.935 100.659 368.752 99.1372 368.752ZM127.921 360.061H130.998V362.307H127.921V369.606H125.211V353.127H127.921V360.061ZM123.625 357.741H110.539V355.568H115.739V353.103H118.449V355.568H123.625V357.741ZM117.082 358.645C118.131 358.645 119.063 358.819 119.877 359.169C120.691 359.519 121.326 360.016 121.781 360.659C122.237 361.293 122.469 362.03 122.477 362.868C122.469 363.698 122.237 364.431 121.781 365.065C121.326 365.692 120.691 366.18 119.877 366.53C119.063 366.872 118.131 367.043 117.082 367.043C116.024 367.043 115.084 366.872 114.262 366.53C113.44 366.18 112.801 365.692 112.345 365.065C111.889 364.431 111.662 363.698 111.662 362.868C111.662 362.03 111.889 361.293 112.345 360.659C112.801 360.016 113.44 359.519 114.262 359.169C115.084 358.819 116.024 358.645 117.082 358.645ZM117.082 360.744C116.227 360.744 115.548 360.931 115.043 361.306C114.547 361.68 114.298 362.201 114.298 362.868C114.298 363.519 114.551 364.032 115.055 364.406C115.56 364.781 116.235 364.96 117.082 364.943C117.928 364.96 118.607 364.781 119.12 364.406C119.633 364.032 119.889 363.519 119.889 362.868C119.889 362.201 119.633 361.68 119.12 361.306C118.616 360.931 117.936 360.744 117.082 360.744ZM128.8 374.733H113.786V368.312H116.496V372.536H128.8V374.733ZM155.534 358.474H158.512V360.744H155.534V366.091H152.824V353.103H155.534V358.474ZM155.534 371.73H143.546V373.146H156.315V374.978H140.836V370.046H152.824V368.801H140.788V366.97H155.534V371.73ZM137.858 363.869C140.234 363.869 142.09 363.849 143.424 363.808V362.709C142.163 362.579 141.178 362.266 140.47 361.77C139.77 361.273 139.42 360.622 139.42 359.816C139.42 359.23 139.636 358.726 140.067 358.303C140.507 357.871 141.125 357.546 141.923 357.326C142.72 357.098 143.66 356.984 144.743 356.984C145.825 356.984 146.765 357.098 147.562 357.326C148.36 357.546 148.974 357.871 149.406 358.303C149.845 358.726 150.065 359.23 150.065 359.816C150.065 360.614 149.719 361.261 149.027 361.757C148.336 362.246 147.371 362.559 146.134 362.697V363.71C148.079 363.621 149.927 363.462 151.676 363.234L151.896 364.943C149.821 365.301 147.685 365.529 145.487 365.627C143.298 365.725 140.853 365.773 138.151 365.773L137.858 363.869ZM151.09 356.447H138.419V354.592H143.424V352.932H146.134V354.592H151.09V356.447ZM144.743 358.693C143.872 358.71 143.201 358.811 142.729 358.999C142.257 359.186 142.025 359.458 142.033 359.816C142.025 360.207 142.257 360.508 142.729 360.72C143.209 360.931 143.88 361.037 144.743 361.037C145.605 361.037 146.277 360.931 146.757 360.72C147.237 360.508 147.477 360.207 147.477 359.816C147.477 359.458 147.237 359.186 146.757 358.999C146.285 358.811 145.613 358.71 144.743 358.693ZM179.801 365.847H159.66V363.674H168.4V361.574H162.125V354.104H177.36V356.228H164.835V359.426H177.482V361.574H171.061V363.674H179.801V365.847ZM169.694 367.116C171.281 367.116 172.644 367.275 173.783 367.592C174.923 367.902 175.797 368.357 176.408 368.959C177.018 369.562 177.327 370.29 177.335 371.145C177.327 371.991 177.018 372.715 176.408 373.317C175.797 373.92 174.918 374.379 173.771 374.697C172.632 375.014 171.273 375.173 169.694 375.173C168.099 375.173 166.723 375.014 165.568 374.697C164.412 374.379 163.529 373.92 162.919 373.317C162.309 372.715 162.003 371.991 162.003 371.145C162.003 370.29 162.309 369.562 162.919 368.959C163.529 368.357 164.408 367.902 165.556 367.592C166.711 367.275 168.091 367.116 169.694 367.116ZM169.694 369.191C168.083 369.191 166.854 369.358 166.007 369.692C165.169 370.026 164.754 370.51 164.762 371.145C164.754 371.779 165.169 372.259 166.007 372.585C166.846 372.91 168.074 373.073 169.694 373.073C171.281 373.073 172.497 372.91 173.344 372.585C174.19 372.259 174.617 371.779 174.625 371.145C174.617 370.51 174.186 370.026 173.332 369.692C172.485 369.358 171.273 369.191 169.694 369.191ZM193.595 356.96C193.595 358.409 193.559 359.78 193.485 361.074C193.42 362.36 193.253 363.837 192.985 365.505L190.299 365.285C190.535 363.788 190.69 362.437 190.763 361.232C190.845 360.028 190.889 358.807 190.897 357.57H182.243V355.397H193.595V356.96ZM188.029 368.215C190.535 368.117 192.757 367.946 194.694 367.702L194.84 369.729C191.439 370.266 187.272 370.534 182.34 370.534H181.339L181.071 368.361C182.975 368.345 184.399 368.325 185.343 368.3V361.696H188.029V368.215ZM198.576 362.087H201.774V364.382H198.576V375.173H195.841V353.103H198.576V362.087ZM227.165 375.197H224.43V353.103H227.165V375.197ZM215.275 354.714C216.382 354.714 217.366 355.035 218.229 355.678C219.1 356.313 219.783 357.22 220.28 358.4C220.776 359.572 221.028 360.939 221.037 362.502C221.028 364.073 220.776 365.448 220.28 366.628C219.792 367.808 219.112 368.719 218.241 369.362C217.37 369.997 216.382 370.314 215.275 370.314C214.16 370.314 213.167 369.997 212.296 369.362C211.426 368.719 210.742 367.808 210.246 366.628C209.757 365.448 209.513 364.073 209.513 362.502C209.513 360.939 209.757 359.572 210.246 358.4C210.742 357.22 211.426 356.313 212.296 355.678C213.167 355.035 214.16 354.714 215.275 354.714ZM215.275 357.155C214.648 357.155 214.095 357.367 213.615 357.79C213.143 358.213 212.777 358.828 212.516 359.633C212.256 360.439 212.125 361.395 212.125 362.502C212.125 363.617 212.256 364.577 212.516 365.383C212.777 366.188 213.143 366.807 213.615 367.238C214.095 367.661 214.648 367.873 215.275 367.873C215.893 367.873 216.439 367.661 216.911 367.238C217.383 366.807 217.749 366.188 218.009 365.383C218.27 364.577 218.4 363.617 218.4 362.502C218.4 361.395 218.27 360.443 218.009 359.646C217.749 358.84 217.383 358.225 216.911 357.802C216.439 357.371 215.893 357.155 215.275 357.155ZM249.284 369.802H246.696V353.103H249.284V369.802ZM244.889 369.118H242.326V361.501H239.982V365.847H231.266V354.836H233.83V358.327H237.467V354.836H239.982V359.304H242.326V353.493H244.889V369.118ZM237.467 363.649V360.402H233.83V363.649H237.467ZM249.894 374.733H234.513V367.58H237.223V372.536H249.894V374.733ZM269.962 366.823H254.484V354.836H269.767V357.033H257.243V359.694H269.254V361.818H257.243V364.675H269.962V366.823ZM272.184 372.487H252.018V370.266H272.184V372.487ZM291.496 361.501H276.212V353.908H278.898V359.353H291.496V361.501ZM293.766 366.213H273.6V364.064H293.766V366.213ZM291.642 374.66H276.017V368.166H278.727V372.463H291.642V374.66ZM79.606 408.093H70.8169V415.173H68.1313V408.093H59.4399V405.944H79.606V408.093ZM64.5669 396.691H74.4302V393.981H77.1646V403.649H61.8813V393.981H64.5669V396.691ZM74.4302 401.452V398.84H64.5669V401.452H74.4302ZM88.981 397.009C88.9728 397.985 89.1681 398.925 89.5669 399.829C89.9738 400.724 90.576 401.517 91.3735 402.209C92.1711 402.901 93.1313 403.43 94.2544 403.796L92.8384 405.944C91.634 405.537 90.5964 404.939 89.7256 404.15C88.863 403.352 88.1834 402.412 87.687 401.33C87.1825 402.526 86.4744 403.56 85.563 404.431C84.6597 405.301 83.5773 405.961 82.3159 406.408L80.8022 404.26C81.9823 403.877 82.9792 403.32 83.793 402.587C84.6068 401.847 85.2171 400.996 85.624 400.036C86.0391 399.068 86.2466 398.05 86.2466 396.984V394.47H88.981V397.009ZM98.478 399.621H101.554V401.916H98.478V409.313H95.7681V393.103H98.478V399.621ZM99.3569 414.733H84.3423V407.727H87.1255V412.536H99.3569V414.733ZM113.883 405.432H103.434V395.007H113.883V405.432ZM106.095 403.283H111.222V397.18H106.095V403.283ZM120.084 399.572H123.161V401.843H120.084V409.216H117.375V393.103H120.084V399.572ZM120.963 414.733H105.949V407.653H108.659V412.536H120.963V414.733ZM131.437 394.641C132.584 394.632 133.618 394.856 134.538 395.312C135.465 395.76 136.19 396.39 136.71 397.204C137.239 398.018 137.508 398.938 137.516 399.963C137.508 400.996 137.239 401.92 136.71 402.734C136.19 403.548 135.469 404.182 134.55 404.638C133.63 405.086 132.593 405.31 131.437 405.31C130.29 405.31 129.256 405.082 128.336 404.626C127.417 404.17 126.693 403.54 126.164 402.734C125.643 401.92 125.382 400.996 125.382 399.963C125.382 398.938 125.643 398.018 126.164 397.204C126.693 396.39 127.417 395.76 128.336 395.312C129.264 394.856 130.298 394.632 131.437 394.641ZM131.437 396.984C130.794 396.984 130.216 397.106 129.704 397.351C129.191 397.595 128.788 397.945 128.495 398.4C128.21 398.848 128.068 399.369 128.068 399.963C128.068 400.565 128.21 401.094 128.495 401.55C128.788 401.997 129.191 402.343 129.704 402.587C130.216 402.823 130.794 402.941 131.437 402.941C132.088 402.941 132.67 402.823 133.183 402.587C133.703 402.343 134.11 401.997 134.403 401.55C134.704 401.094 134.855 400.565 134.855 399.963C134.855 399.369 134.704 398.848 134.403 398.4C134.11 397.945 133.703 397.595 133.183 397.351C132.67 397.106 132.088 396.984 131.437 396.984ZM142.667 415.197H139.958V393.103H142.667V415.197ZM124.381 408.361C127.083 408.361 129.606 408.317 131.95 408.227C134.302 408.129 136.531 407.93 138.639 407.629L138.859 409.606C136.678 410.03 134.46 410.298 132.206 410.412C129.96 410.526 127.466 410.583 124.723 410.583L124.381 408.361ZM171.94 406.066H151.823V403.894H160.514V401.696H154.289V394.006H169.523V396.154H156.999V399.499H169.718V401.696H163.224V403.894H171.94V406.066ZM169.523 415.246H166.837V409.973H154.044V407.8H169.523V415.246ZM193.546 406.774H173.38V404.65H193.546V406.774ZM191.007 415.173H188.273V410.632H175.651V408.459H191.007V415.173ZM191.3 403.015H175.968V393.64H191.129V395.764H178.678V397.277H190.592V399.304H178.678V400.939H191.3V403.015ZM212.443 400.061H215.519V402.307H212.443V409.606H209.733V393.127H212.443V400.061ZM208.146 397.741H195.06V395.568H200.26V393.103H202.97V395.568H208.146V397.741ZM201.603 398.645C202.653 398.645 203.585 398.819 204.398 399.169C205.212 399.519 205.847 400.016 206.303 400.659C206.758 401.293 206.99 402.03 206.999 402.868C206.99 403.698 206.758 404.431 206.303 405.065C205.847 405.692 205.212 406.18 204.398 406.53C203.585 406.872 202.653 407.043 201.603 407.043C200.545 407.043 199.605 406.872 198.783 406.53C197.961 406.18 197.322 405.692 196.867 405.065C196.411 404.431 196.183 403.698 196.183 402.868C196.183 402.03 196.411 401.293 196.867 400.659C197.322 400.016 197.961 399.519 198.783 399.169C199.605 398.819 200.545 398.645 201.603 398.645ZM201.603 400.744C200.749 400.744 200.069 400.931 199.564 401.306C199.068 401.68 198.82 402.201 198.82 402.868C198.82 403.519 199.072 404.032 199.577 404.406C200.081 404.781 200.757 404.96 201.603 404.943C202.449 404.96 203.129 404.781 203.642 404.406C204.154 404.032 204.411 403.519 204.411 402.868C204.411 402.201 204.154 401.68 203.642 401.306C203.137 400.931 202.458 400.744 201.603 400.744ZM213.322 414.733H198.307V408.312H201.017V412.536H213.322V414.733ZM242.716 406.701H234.196V410.51H231.51V406.701H222.55V404.528H242.716V406.701ZM240.495 414.733H224.992V408.654H227.677V412.536H240.495V414.733ZM227.873 396.301H237.394V393.811H240.08V402.795H225.187V393.811H227.873V396.301ZM237.394 400.646V398.327H227.873V400.646H237.394ZM251.383 394.079C252.49 394.071 253.483 394.262 254.362 394.653C255.241 395.043 255.928 395.593 256.425 396.301C256.921 397.009 257.169 397.814 257.169 398.718C257.169 399.605 256.921 400.402 256.425 401.11C255.928 401.818 255.237 402.368 254.35 402.758C253.471 403.149 252.482 403.34 251.383 403.332C250.293 403.34 249.308 403.149 248.429 402.758C247.558 402.368 246.875 401.822 246.378 401.123C245.89 400.415 245.646 399.613 245.646 398.718C245.646 397.814 245.89 397.009 246.378 396.301C246.875 395.593 247.558 395.043 248.429 394.653C249.3 394.262 250.285 394.071 251.383 394.079ZM251.383 396.276C250.781 396.268 250.244 396.366 249.772 396.569C249.3 396.765 248.93 397.049 248.661 397.424C248.401 397.79 248.275 398.221 248.283 398.718C248.275 399.206 248.401 399.633 248.661 400C248.93 400.358 249.3 400.634 249.772 400.83C250.244 401.017 250.781 401.11 251.383 401.11C252.01 401.11 252.563 401.017 253.043 400.83C253.532 400.634 253.91 400.358 254.179 400C254.447 399.633 254.582 399.206 254.582 398.718C254.582 398.221 254.447 397.79 254.179 397.424C253.91 397.049 253.532 396.765 253.043 396.569C252.563 396.366 252.01 396.268 251.383 396.276ZM262.638 415.148H259.953V393.127H262.638V415.148ZM244.206 404.846C246.842 404.846 249.357 404.797 251.75 404.699C254.142 404.593 256.396 404.382 258.512 404.064L258.708 406.066C256.966 406.4 255.029 406.648 252.897 406.811V414.489H250.163V406.97C248.665 407.035 247.095 407.067 245.451 407.067C245.255 407.084 244.954 407.092 244.547 407.092L244.206 404.846ZM284.22 415.173H281.486V393.103H284.22V415.173ZM277.628 395.446C277.628 398.954 276.835 402.034 275.248 404.687C273.661 407.332 271.028 409.525 267.35 411.267L265.934 409.094C268.774 407.743 270.91 406.127 272.343 404.248C273.783 402.36 274.625 400.142 274.87 397.595H267.057V395.446H277.628ZM307.536 405.163H287.37V403.112H307.536V405.163ZM305.094 411.511H292.448V413.049H305.753V414.929H289.738V409.753H302.409V408.386H289.713V406.481H305.094V411.511ZM305.045 398.571H292.619V400.012H305.436V401.867H289.933V396.813H302.335V395.471H289.86V393.591H305.045V398.571ZM130.631 444.382H110.514V442.209H130.631V444.382ZM128.117 451.291H115.568V452.902H128.727V454.978H112.907V449.362H125.456V447.873H112.882V445.871H128.117V451.291ZM128.825 436.008H122.257C122.444 436.561 122.864 437.074 123.515 437.546C124.166 438.018 125.02 438.417 126.078 438.742C127.136 439.06 128.336 439.263 129.679 439.353L128.825 441.452C126.855 441.298 125.15 440.903 123.71 440.268C122.27 439.633 121.216 438.824 120.548 437.839C119.881 438.824 118.831 439.633 117.399 440.268C115.975 440.903 114.29 441.298 112.345 441.452L111.491 439.353C112.825 439.263 114.014 439.06 115.055 438.742C116.105 438.417 116.951 438.018 117.594 437.546C118.245 437.074 118.664 436.561 118.852 436.008H112.345V433.859H128.825V436.008ZM150.504 444.284H147.77V433.103H150.504V444.284ZM143.839 434.006C143.831 436.919 142.956 439.251 141.215 441C139.481 442.75 136.881 443.991 133.415 444.724L132.462 442.526C135.124 442.006 137.142 441.204 138.517 440.122C139.892 439.039 140.661 437.733 140.824 436.203H133.634V434.006H143.839ZM150.504 450.949H138.639V452.829H151.164V454.953H135.905V448.972H147.77V447.312H135.856V445.188H150.504V450.949ZM171.159 434.934C171.159 435.861 171.484 436.765 172.135 437.644C172.794 438.522 173.714 439.275 174.894 439.902C176.082 440.528 177.441 440.939 178.971 441.135L177.897 443.332C176.042 443.055 174.398 442.486 172.965 441.623C171.533 440.752 170.455 439.69 169.73 438.437C169.006 439.69 167.932 440.752 166.508 441.623C165.084 442.486 163.452 443.055 161.613 443.332L160.539 441.135C162.052 440.939 163.399 440.528 164.579 439.902C165.759 439.275 166.675 438.522 167.326 437.644C167.977 436.765 168.302 435.861 168.302 434.934V433.811H171.159V434.934ZM179.777 447.482H171.012V455.173H168.327V447.482H159.66V445.236H179.777V447.482ZM195.036 447.458C195.036 448.426 195.264 449.354 195.719 450.241C196.183 451.12 196.867 451.848 197.77 452.426C198.681 451.808 199.377 451.051 199.857 450.156C200.338 449.252 200.586 448.353 200.602 447.458V446.555H203.263V447.458C203.255 448.247 203.406 448.996 203.715 449.704C204.024 450.412 204.496 451.039 205.131 451.584C205.774 452.129 206.567 452.552 207.511 452.854L206.193 454.831C205.143 454.481 204.256 453.972 203.532 453.305C202.807 452.638 202.246 451.853 201.847 450.949C201.473 451.861 200.948 452.67 200.272 453.378C199.605 454.095 198.795 454.644 197.843 455.026C196.834 454.66 195.988 454.131 195.304 453.439C194.621 452.748 194.096 451.942 193.729 451.022C193.331 451.893 192.773 452.654 192.057 453.305C191.349 453.964 190.495 454.473 189.494 454.831L188.151 452.854C189.07 452.528 189.848 452.084 190.482 451.523C191.117 450.953 191.593 450.319 191.911 449.619C192.228 448.919 192.391 448.199 192.399 447.458V446.555H195.036V447.458ZM205.583 445.627H202.848V433.127H205.583V445.627ZM193.546 434.299C194.669 434.299 195.683 434.523 196.586 434.97C197.489 435.41 198.197 436.028 198.71 436.826C199.223 437.623 199.479 438.531 199.479 439.548C199.479 440.557 199.223 441.46 198.71 442.258C198.197 443.047 197.489 443.666 196.586 444.113C195.683 444.553 194.669 444.772 193.546 444.772C192.415 444.772 191.398 444.553 190.495 444.113C189.591 443.666 188.879 443.047 188.358 442.258C187.846 441.46 187.589 440.557 187.589 439.548C187.589 438.531 187.846 437.623 188.358 436.826C188.879 436.028 189.591 435.41 190.495 434.97C191.398 434.523 192.415 434.299 193.546 434.299ZM193.546 436.594C192.903 436.594 192.33 436.716 191.825 436.96C191.329 437.204 190.938 437.55 190.653 437.998C190.377 438.437 190.242 438.954 190.25 439.548C190.242 440.142 190.377 440.663 190.653 441.11C190.938 441.558 191.329 441.908 191.825 442.16C192.33 442.404 192.903 442.526 193.546 442.526C194.181 442.526 194.743 442.404 195.231 442.16C195.727 441.916 196.114 441.57 196.391 441.123C196.675 440.667 196.818 440.142 196.818 439.548C196.818 438.954 196.68 438.437 196.403 437.998C196.126 437.55 195.74 437.204 195.243 436.96C194.747 436.716 194.181 436.594 193.546 436.594ZM227.848 455.173H225.26V433.103H227.848V455.173ZM223.161 454.123H220.597V443.967H216.654C215.328 446.595 213.167 448.776 210.172 450.51L208.634 448.581C210.88 447.263 212.569 445.737 213.7 444.003C214.831 442.262 215.503 440.256 215.714 437.985H209.757V435.788H218.4C218.4 438.01 218.115 440.012 217.545 441.794H220.597V433.64H223.161V454.123ZM253.751 438.693H256.828V440.964H253.751V446.408H251.042V433.103H253.751V438.693ZM253.751 454.904H239.494V447.458H253.751V454.904ZM242.179 452.707H251.066V449.606H242.179V452.707ZM249.455 437.399H236.369V435.227H241.569V432.956H244.279V435.227H249.455V437.399ZM242.912 438.205C243.961 438.205 244.893 438.372 245.707 438.706C246.521 439.039 247.156 439.507 247.611 440.109C248.067 440.703 248.299 441.387 248.307 442.16C248.299 442.941 248.067 443.633 247.611 444.235C247.164 444.829 246.533 445.293 245.719 445.627C244.905 445.952 243.97 446.115 242.912 446.115C241.846 446.115 240.902 445.952 240.08 445.627C239.266 445.293 238.631 444.829 238.175 444.235C237.72 443.633 237.492 442.941 237.492 442.16C237.492 441.387 237.72 440.703 238.175 440.109C238.631 439.507 239.27 439.039 240.092 438.706C240.914 438.372 241.854 438.205 242.912 438.205ZM242.912 440.256C242.065 440.256 241.39 440.427 240.885 440.769C240.381 441.102 240.128 441.566 240.128 442.16C240.128 442.762 240.377 443.234 240.873 443.576C241.378 443.918 242.057 444.089 242.912 444.089C243.766 444.089 244.446 443.918 244.95 443.576C245.463 443.234 245.719 442.762 245.719 442.16C245.719 441.566 245.463 441.102 244.95 440.769C244.446 440.427 243.766 440.256 242.912 440.256Z" fill="#010033"/>
<path d="M615.37 357.093H606.581V364.173H603.895V357.093H595.204V354.944H615.37V357.093ZM600.331 345.691H610.194V342.981H612.928V352.649H597.645V342.981H600.331V345.691ZM610.194 350.452V347.84H600.331V350.452H610.194ZM624.745 346.009C624.736 346.985 624.932 347.925 625.331 348.829C625.737 349.724 626.34 350.517 627.137 351.209C627.935 351.901 628.895 352.43 630.018 352.796L628.602 354.944C627.398 354.537 626.36 353.939 625.489 353.15C624.627 352.352 623.947 351.412 623.451 350.33C622.946 351.526 622.238 352.56 621.327 353.431C620.423 354.301 619.341 354.961 618.08 355.408L616.566 353.26C617.746 352.877 618.743 352.32 619.557 351.587C620.37 350.847 620.981 349.996 621.388 349.036C621.803 348.068 622.01 347.05 622.01 345.984V343.47H624.745V346.009ZM634.242 348.621H637.318V350.916H634.242V358.313H631.532V342.103H634.242V348.621ZM635.121 363.733H620.106V356.727H622.889V361.536H635.121V363.733ZM645.594 343.641C646.742 343.632 647.775 343.856 648.695 344.312C649.623 344.76 650.347 345.39 650.868 346.204C651.397 347.018 651.665 347.938 651.673 348.963C651.665 349.996 651.397 350.92 650.868 351.734C650.347 352.548 649.627 353.182 648.707 353.638C647.787 354.086 646.75 354.31 645.594 354.31C644.447 354.31 643.413 354.082 642.494 353.626C641.574 353.17 640.85 352.54 640.321 351.734C639.8 350.92 639.54 349.996 639.54 348.963C639.54 347.938 639.8 347.018 640.321 346.204C640.85 345.39 641.574 344.76 642.494 344.312C643.421 343.856 644.455 343.632 645.594 343.641ZM645.594 345.984C644.951 345.984 644.374 346.106 643.861 346.351C643.348 346.595 642.945 346.945 642.652 347.4C642.368 347.848 642.225 348.369 642.225 348.963C642.225 349.565 642.368 350.094 642.652 350.55C642.945 350.997 643.348 351.343 643.861 351.587C644.374 351.823 644.951 351.941 645.594 351.941C646.245 351.941 646.827 351.823 647.34 351.587C647.861 351.343 648.268 350.997 648.561 350.55C648.862 350.094 649.012 349.565 649.012 348.963C649.012 348.369 648.862 347.848 648.561 347.4C648.268 346.945 647.861 346.595 647.34 346.351C646.827 346.106 646.245 345.984 645.594 345.984ZM656.825 364.197H654.115V342.103H656.825V364.197ZM638.539 357.361C641.24 357.361 643.763 357.317 646.107 357.227C648.459 357.129 650.689 356.93 652.796 356.629L653.016 358.606C650.835 359.03 648.618 359.298 646.363 359.412C644.117 359.526 641.623 359.583 638.88 359.583L638.539 357.361ZM685.023 364.173H682.411V352.869H680.067V363.099H677.503V342.493H680.067V350.623H682.411V342.103H685.023V364.173ZM675.331 358.484H666.664V344.495H675.331V358.484ZM669.203 356.336H672.792V346.644H669.203V356.336ZM698.133 350.062H691.175V352.771H691.664C693.324 352.771 694.703 352.735 695.802 352.662C696.9 352.58 697.995 352.438 699.085 352.234L699.354 354.432C698.101 354.643 696.819 354.782 695.509 354.847C694.207 354.912 692.404 354.944 690.101 354.944H688.49V348.035H695.423V345.569H688.441V343.421H698.133V350.062ZM706.068 355.701H703.358V352.063H699.452V349.891H703.358V347.425H699.452V345.252H703.358V342.127H706.068V355.701ZM706.068 364.173H703.358V358.924H690.98V356.751H706.068V364.173ZM719.227 342.444C720.903 342.444 722.332 342.591 723.512 342.884C724.7 343.177 725.607 343.608 726.234 344.178C726.861 344.739 727.178 345.423 727.186 346.229C727.178 347.449 726.482 348.385 725.099 349.036C723.715 349.687 721.758 350.021 719.227 350.037C716.688 350.021 714.727 349.687 713.343 349.036C711.96 348.385 711.268 347.449 711.268 346.229C711.268 345.423 711.581 344.739 712.208 344.178C712.835 343.608 713.742 343.177 714.93 342.884C716.118 342.591 717.551 342.444 719.227 342.444ZM719.227 344.446C717.551 344.446 716.277 344.601 715.406 344.91C714.535 345.211 714.108 345.651 714.125 346.229C714.116 346.831 714.54 347.278 715.394 347.571C716.249 347.864 717.526 348.011 719.227 348.011C720.952 348.011 722.242 347.864 723.097 347.571C723.951 347.278 724.378 346.831 724.378 346.229C724.378 345.651 723.943 345.211 723.072 344.91C722.201 344.601 720.92 344.446 719.227 344.446ZM729.31 353.382H709.193V351.209H729.31V353.382ZM726.795 360.267H714.247V361.902H727.406V363.978H711.585V358.338H724.134V356.873H711.561V354.871H726.795V360.267ZM743.617 347.889C743.617 349.126 743.763 350.326 744.056 351.49C744.357 352.653 744.825 353.72 745.46 354.688C746.095 355.656 746.888 356.442 747.84 357.044L746.351 359.119C745.391 358.541 744.577 357.768 743.91 356.8C743.242 355.823 742.717 354.704 742.335 353.443C741.92 354.818 741.354 356.039 740.638 357.105C739.922 358.171 739.059 359.013 738.05 359.632L736.366 357.605C737.399 356.979 738.262 356.157 738.954 355.14C739.645 354.122 740.158 353.003 740.492 351.783C740.833 350.562 741.004 349.305 741.004 348.011V344.056H743.617V347.889ZM755.775 364.173H753.163V342.103H755.775V364.173ZM751.185 363.099H748.622V351.941H745.472V349.695H748.622V342.493H751.185V363.099ZM777.381 364.173H774.793V342.103H777.381V364.173ZM772.816 363.123H770.228V355.75H766.786V353.528H770.228V350.257H767.176C766.639 352.145 765.76 353.862 764.54 355.408C763.327 356.954 761.716 358.322 759.706 359.51L758.119 357.581C760.365 356.255 762.053 354.725 763.185 352.991C764.324 351.258 764.995 349.256 765.199 346.985H759.291V344.788H767.884C767.884 345.927 767.807 347.01 767.652 348.035H770.228V342.64H772.816V363.123ZM798.988 364.173H796.375V342.103H798.988V364.173ZM794.447 363.099H791.859V352.601H789.759C789.678 354.025 789.426 355.262 789.002 356.312C788.587 357.353 788.03 358.155 787.33 358.716C786.63 359.27 785.829 359.542 784.925 359.534C783.973 359.542 783.135 359.229 782.411 358.594C781.694 357.951 781.141 357.036 780.75 355.848C780.36 354.651 780.165 353.252 780.165 351.648C780.165 350.045 780.36 348.654 780.75 347.474C781.141 346.285 781.694 345.374 782.411 344.739C783.135 344.104 783.973 343.787 784.925 343.787C785.812 343.787 786.598 344.052 787.281 344.581C787.973 345.11 788.526 345.87 788.941 346.863C789.365 347.856 789.629 349.036 789.735 350.403H791.859V342.493H794.447V363.099ZM784.925 346.351C784.461 346.342 784.059 346.542 783.717 346.949C783.375 347.356 783.115 347.958 782.936 348.755C782.757 349.553 782.671 350.517 782.679 351.648C782.671 352.78 782.757 353.744 782.936 354.542C783.115 355.339 783.375 355.941 783.717 356.348C784.059 356.755 784.461 356.954 784.925 356.946C785.666 356.963 786.24 356.511 786.646 355.591C787.062 354.672 787.269 353.357 787.269 351.648C787.269 349.939 787.062 348.625 786.646 347.706C786.24 346.786 785.666 346.334 784.925 346.351ZM824.891 346.546H827.967V348.792H824.891V353.187H822.181V342.103H824.891V346.546ZM824.891 359.925H813.172V361.756H825.575V363.904H810.487V357.947H822.181V356.238H810.462V354.139H824.891V359.925ZM813.587 342.835C814.702 342.835 815.703 343.047 816.59 343.47C817.477 343.885 818.173 344.471 818.678 345.228C819.182 345.976 819.439 346.831 819.447 347.791C819.439 348.735 819.182 349.585 818.678 350.342C818.173 351.091 817.473 351.677 816.578 352.1C815.691 352.515 814.694 352.723 813.587 352.723C812.472 352.723 811.467 352.511 810.572 352.088C809.685 351.665 808.985 351.079 808.473 350.33C807.968 349.581 807.72 348.735 807.728 347.791C807.72 346.831 807.968 345.976 808.473 345.228C808.977 344.471 809.677 343.885 810.572 343.47C811.467 343.047 812.472 342.835 813.587 342.835ZM813.587 345.032C812.969 345.032 812.416 345.146 811.927 345.374C811.439 345.602 811.056 345.923 810.78 346.338C810.511 346.753 810.381 347.238 810.389 347.791C810.381 348.336 810.511 348.82 810.78 349.244C811.056 349.667 811.439 349.996 811.927 350.232C812.416 350.46 812.969 350.574 813.587 350.574C814.198 350.574 814.747 350.46 815.235 350.232C815.732 349.996 816.118 349.667 816.395 349.244C816.672 348.82 816.81 348.336 816.81 347.791C816.81 347.238 816.672 346.753 816.395 346.338C816.118 345.923 815.736 345.602 815.248 345.374C814.759 345.146 814.206 345.032 813.587 345.032ZM847.474 364.197H844.789V342.103H847.474V364.197ZM840.687 352.308H833.094V356.751C834.958 356.735 836.667 356.67 838.221 356.556C839.784 356.442 841.379 356.246 843.006 355.97L843.25 358.191C841.501 358.501 839.78 358.708 838.087 358.814C836.394 358.92 834.445 358.973 832.24 358.973H830.311V350.159H837.928V346.229H830.287V344.031H840.687V352.308ZM868.714 346.253V346.521C868.706 347.742 868.682 348.804 868.641 349.708C868.609 350.603 868.531 351.644 868.409 352.833C868.287 354.013 868.096 355.294 867.835 356.678L865.101 356.385C865.361 355.099 865.553 353.886 865.675 352.747C865.797 351.6 865.874 350.582 865.907 349.695C865.947 348.808 865.972 347.767 865.98 346.57V346.302H852.796V344.129H868.714V346.253ZM870.814 361.316H850.697V359.095H858.119V351.429H860.804V359.095H870.814V361.316ZM874.549 367.103H872.23L873.5 360.267H876.6L874.549 367.103ZM608.558 384.788C608.558 385.927 608.53 386.941 608.473 387.828C608.424 388.715 608.294 389.703 608.082 390.794H611.024V392.991H602.259V396.434H608.607V404.173H605.897V398.606H592.909V396.434H599.549V392.991H590.858V390.794H605.36C605.555 389.777 605.685 388.841 605.75 387.986C605.816 387.124 605.848 386.22 605.848 385.276H593.348V383.104H608.558V384.788ZM631.458 404.173H628.871V382.103H631.458V404.173ZM626.966 403.099H624.403V391.99H621.229V389.793H624.403V382.518H626.966V403.099ZM619.276 388.133C619.276 389.427 619.435 390.668 619.752 391.856C620.077 393.044 620.574 394.122 621.241 395.091C621.917 396.059 622.759 396.832 623.768 397.41L622.157 399.412C621.164 398.818 620.322 398.025 619.63 397.032C618.938 396.031 618.393 394.879 617.994 393.577C617.595 394.985 617.038 396.238 616.322 397.337C615.606 398.427 614.743 399.29 613.734 399.925L612.074 397.898C613.099 397.28 613.954 396.454 614.637 395.42C615.329 394.387 615.838 393.248 616.163 392.002C616.497 390.749 616.664 389.459 616.664 388.133V386.668H612.831V384.471H622.84V386.668H619.276V388.133ZM642.176 385.887C642.176 386.798 642.376 387.685 642.774 388.548C643.173 389.402 643.763 390.171 644.544 390.855C645.326 391.53 646.27 392.055 647.376 392.43L646.009 394.529C644.805 394.139 643.763 393.549 642.884 392.759C642.014 391.97 641.33 391.046 640.833 389.988C640.337 391.168 639.629 392.198 638.709 393.077C637.79 393.947 636.691 394.594 635.414 395.018L634.022 392.869C635.161 392.495 636.134 391.95 636.939 391.233C637.753 390.509 638.368 389.687 638.783 388.768C639.206 387.84 639.417 386.888 639.417 385.911V385.618H634.828V383.445H646.742V385.618H642.176V385.887ZM652.552 404.173H649.842V398.484H637.513V396.312H652.552V404.173ZM652.552 395.262H649.842V389.793H646.083V387.571H649.842V382.103H652.552V395.262ZM674.061 398.069H671.327V382.127H674.061V398.069ZM674.671 403.733H659.461V396.458H662.196V401.536H674.671V403.733ZM662.025 383.567C663.132 383.567 664.137 383.807 665.04 384.288C665.943 384.76 666.655 385.415 667.176 386.253C667.697 387.091 667.958 388.035 667.958 389.085C667.958 390.151 667.697 391.107 667.176 391.954C666.655 392.792 665.943 393.447 665.04 393.919C664.137 394.391 663.132 394.627 662.025 394.627C660.91 394.627 659.897 394.391 658.985 393.919C658.082 393.447 657.37 392.792 656.849 391.954C656.328 391.107 656.068 390.151 656.068 389.085C656.068 388.035 656.328 387.091 656.849 386.253C657.37 385.415 658.082 384.76 658.985 384.288C659.897 383.807 660.91 383.567 662.025 383.567ZM662.025 385.936C661.398 385.936 660.833 386.066 660.328 386.326C659.824 386.587 659.429 386.957 659.144 387.437C658.859 387.917 658.721 388.466 658.729 389.085C658.721 389.72 658.859 390.277 659.144 390.757C659.429 391.237 659.824 391.608 660.328 391.868C660.833 392.129 661.398 392.259 662.025 392.259C662.635 392.259 663.189 392.129 663.685 391.868C664.181 391.608 664.572 391.237 664.857 390.757C665.15 390.277 665.296 389.72 665.296 389.085C665.296 388.466 665.15 387.917 664.857 387.437C664.572 386.957 664.181 386.587 663.685 386.326C663.189 386.066 662.635 385.936 662.025 385.936ZM703.333 395.213H694.593V397.312H700.868V404.124H698.158V399.485H685.438V397.312H691.908V395.213H683.216V393.04H703.333V395.213ZM694.593 384.178H701.356V386.302H694.789C694.886 386.937 695.24 387.518 695.851 388.047C696.461 388.576 697.315 389.016 698.414 389.366C699.513 389.716 700.819 389.948 702.333 390.062L701.478 392.112C699.509 391.95 697.816 391.571 696.4 390.977C694.992 390.383 693.942 389.606 693.25 388.646C692.559 389.598 691.505 390.375 690.089 390.977C688.673 391.571 686.984 391.95 685.023 392.112L684.168 390.062C685.666 389.948 686.964 389.716 688.062 389.366C689.161 389.016 690.016 388.576 690.626 388.047C691.236 387.518 691.594 386.937 691.7 386.302H685.194V384.178H691.908V382.078H694.593V384.178ZM723.817 404.173H721.229V382.103H723.817V404.173ZM719.325 403.099H716.761V391.99H713.587V389.793H716.761V382.518H719.325V403.099ZM711.634 388.133C711.634 389.427 711.793 390.668 712.11 391.856C712.436 393.044 712.932 394.122 713.6 395.091C714.275 396.059 715.117 396.832 716.126 397.41L714.515 399.412C713.522 398.818 712.68 398.025 711.988 397.032C711.297 396.031 710.751 394.879 710.353 393.577C709.954 394.985 709.396 396.238 708.68 397.337C707.964 398.427 707.101 399.29 706.092 399.925L704.432 397.898C705.458 397.28 706.312 396.454 706.996 395.42C707.687 394.387 708.196 393.248 708.521 392.002C708.855 390.749 709.022 389.459 709.022 388.133V386.668H705.189V384.471H715.199V386.668H711.634V388.133ZM746.595 401.609H726.429V399.363H735.121V395.774H728.822V388.548H741.517V385.813H728.773V383.616H744.203V390.696H731.532V393.553H744.715V395.774H737.806V399.363H746.595V401.609ZM762.049 385.276C762.041 386.294 762.232 387.254 762.623 388.157C763.014 389.061 763.6 389.858 764.381 390.55C765.17 391.233 766.126 391.754 767.25 392.112L765.785 394.236C764.597 393.821 763.579 393.227 762.733 392.454C761.895 391.681 761.236 390.761 760.755 389.695C760.259 390.924 759.547 391.99 758.619 392.894C757.691 393.789 756.572 394.464 755.262 394.92L753.822 392.723C755.01 392.332 756.015 391.766 756.837 391.026C757.659 390.285 758.277 389.431 758.692 388.462C759.107 387.494 759.315 386.473 759.315 385.398V383.299H762.049V385.276ZM772.45 395.091H769.74V388.597H765.345V386.375H769.74V382.103H772.45V395.091ZM764.979 395.677C766.533 395.677 767.876 395.844 769.007 396.177C770.147 396.511 771.017 396.999 771.62 397.642C772.222 398.277 772.523 399.038 772.523 399.925C772.523 400.812 772.222 401.573 771.62 402.208C771.017 402.842 770.151 403.322 769.02 403.648C767.888 403.982 766.542 404.148 764.979 404.148C763.425 404.148 762.082 403.982 760.951 403.648C759.828 403.322 758.965 402.842 758.363 402.208C757.769 401.573 757.476 400.812 757.484 399.925C757.476 399.038 757.769 398.277 758.363 397.642C758.965 396.999 759.832 396.511 760.963 396.177C762.094 395.844 763.433 395.677 764.979 395.677ZM764.979 397.776C763.433 397.776 762.245 397.964 761.415 398.338C760.584 398.704 760.169 399.233 760.169 399.925C760.169 400.6 760.584 401.121 761.415 401.487C762.253 401.845 763.441 402.024 764.979 402.024C766.517 402.024 767.705 401.841 768.543 401.475C769.39 401.109 769.813 400.592 769.813 399.925C769.813 399.233 769.394 398.704 768.556 398.338C767.717 397.964 766.525 397.776 764.979 397.776ZM783.485 386.082C783.485 387.002 783.68 387.876 784.071 388.707C784.47 389.537 785.06 390.273 785.841 390.916C786.622 391.551 787.57 392.039 788.685 392.381L787.391 394.505C786.179 394.131 785.129 393.569 784.242 392.82C783.363 392.072 782.675 391.189 782.179 390.171C781.682 391.351 780.97 392.377 780.042 393.248C779.115 394.118 778 394.773 776.698 395.213L775.331 393.064C776.486 392.682 777.471 392.137 778.285 391.429C779.098 390.713 779.713 389.895 780.128 388.975C780.543 388.056 780.75 387.099 780.75 386.106V385.838H776.087V383.641H788.075V385.838H783.485V386.082ZM792.982 387.4H796.058V389.622H792.982V395.262H790.272V382.103H792.982V387.4ZM785.804 395.75C787.318 395.75 788.628 395.917 789.735 396.25C790.85 396.576 791.704 397.052 792.298 397.679C792.892 398.305 793.194 399.054 793.202 399.925C793.194 400.804 792.888 401.561 792.286 402.195C791.692 402.83 790.842 403.314 789.735 403.648C788.628 403.982 787.318 404.148 785.804 404.148C784.274 404.148 782.948 403.982 781.825 403.648C780.702 403.314 779.839 402.83 779.237 402.195C778.635 401.561 778.333 400.804 778.333 399.925C778.333 399.054 778.635 398.305 779.237 397.679C779.839 397.052 780.702 396.576 781.825 396.25C782.948 395.917 784.274 395.75 785.804 395.75ZM785.804 397.874C784.282 397.874 783.106 398.049 782.276 398.399C781.454 398.749 781.043 399.257 781.043 399.925C781.043 400.608 781.454 401.129 782.276 401.487C783.106 401.845 784.282 402.024 785.804 402.024C787.326 402.024 788.49 401.845 789.295 401.487C790.109 401.129 790.516 400.608 790.516 399.925C790.516 399.257 790.109 398.749 789.295 398.399C788.49 398.049 787.326 397.874 785.804 397.874ZM814.466 390.892H817.86V393.138H814.466V404.173H811.781V382.103H814.466V390.892ZM810.072 387.669H797.059V385.496H802.284V382.42H804.994V385.496H810.072V387.669ZM803.651 389.109C804.701 389.109 805.645 389.333 806.483 389.781C807.329 390.22 807.993 390.835 808.473 391.624C808.953 392.413 809.193 393.309 809.193 394.31C809.193 395.311 808.953 396.206 808.473 396.995C807.993 397.776 807.329 398.387 806.483 398.826C805.645 399.266 804.701 399.485 803.651 399.485C802.585 399.485 801.629 399.266 800.782 398.826C799.936 398.387 799.273 397.776 798.792 396.995C798.312 396.206 798.076 395.311 798.084 394.31C798.076 393.309 798.312 392.413 798.792 391.624C799.273 390.835 799.936 390.22 800.782 389.781C801.629 389.333 802.585 389.109 803.651 389.109ZM803.651 391.331C803.073 391.331 802.556 391.453 802.101 391.697C801.653 391.941 801.303 392.291 801.051 392.747C800.799 393.195 800.672 393.715 800.672 394.31C800.672 394.904 800.799 395.424 801.051 395.872C801.303 396.312 801.653 396.653 802.101 396.897C802.556 397.133 803.073 397.247 803.651 397.239C804.212 397.247 804.713 397.133 805.152 396.897C805.6 396.653 805.95 396.312 806.202 395.872C806.463 395.424 806.597 394.904 806.605 394.31C806.597 393.715 806.463 393.195 806.202 392.747C805.95 392.299 805.6 391.954 805.152 391.709C804.713 391.457 804.212 391.331 803.651 391.331ZM836.659 390.501H821.375V382.908H824.061V388.353H836.659V390.501ZM838.929 395.213H818.763V393.064H838.929V395.213ZM836.805 403.66H821.18V397.166H823.89V401.463H836.805V403.66ZM864.808 396.849H862.098V390.306H857.899V388.084H862.098V382.127H864.808V396.849ZM857.752 383.836C857.744 386.749 856.902 389.203 855.226 391.197C853.557 393.191 851.079 394.7 847.792 395.726L846.62 393.602C849.126 392.853 851.059 391.836 852.418 390.55C853.785 389.256 854.587 387.742 854.823 386.009H847.767V383.836H857.752ZM858.802 395.97C858.794 396.881 859.079 397.748 859.657 398.57C860.235 399.384 861.061 400.088 862.135 400.682C863.217 401.268 864.474 401.674 865.907 401.902L864.808 404.051C863.099 403.758 861.606 403.221 860.328 402.439C859.059 401.666 858.094 400.71 857.435 399.571C856.76 400.718 855.779 401.679 854.493 402.452C853.207 403.233 851.714 403.774 850.013 404.075L848.939 401.927C850.379 401.715 851.641 401.312 852.723 400.718C853.806 400.124 854.636 399.412 855.213 398.582C855.799 397.752 856.092 396.881 856.092 395.97V395.115H858.802V395.97ZM877.967 382.444C879.644 382.444 881.072 382.591 882.252 382.884C883.44 383.177 884.347 383.608 884.974 384.178C885.601 384.739 885.918 385.423 885.926 386.229C885.918 387.449 885.222 388.385 883.839 389.036C882.455 389.687 880.498 390.021 877.967 390.037C875.428 390.021 873.467 389.687 872.083 389.036C870.7 388.385 870.008 387.449 870.008 386.229C870.008 385.423 870.322 384.739 870.948 384.178C871.575 383.608 872.482 383.177 873.67 382.884C874.859 382.591 876.291 382.444 877.967 382.444ZM877.967 384.446C876.291 384.446 875.017 384.601 874.146 384.91C873.276 385.211 872.848 385.651 872.865 386.229C872.857 386.831 873.28 387.278 874.134 387.571C874.989 387.864 876.266 388.011 877.967 388.011C879.693 388.011 880.982 387.864 881.837 387.571C882.691 387.278 883.119 386.831 883.119 386.229C883.119 385.651 882.683 385.211 881.812 384.91C880.942 384.601 879.66 384.446 877.967 384.446ZM888.05 393.382H867.933V391.209H888.05V393.382ZM885.536 400.267H872.987V401.902H886.146V403.978H870.326V398.338H882.875V396.873H870.301V394.871H885.536V400.267ZM733.18 430.672H727.027V432.991H735.743V435.188H715.626V432.991H724.293V430.672H718.165V423.006H733.18V430.672ZM720.802 428.523H730.494V425.13H720.802V428.523ZM733.277 444.173H730.567V439.192H717.848V437.044H733.277V444.173ZM757.398 441.634H737.232V439.437H742.457V434.896H738.966V432.698H742.066V426.155H738.893V423.982H755.641V426.155H752.418V432.698H755.567V434.896H752.076V439.437H757.398V441.634ZM749.732 432.698V426.155H744.776V432.698H749.732ZM749.366 439.437V434.896H745.167V439.437H749.366Z" fill="#010033"/>
<path d="M1158.07 357.093H1149.28V364.173H1146.59V357.093H1137.9V354.944H1158.07V357.093ZM1143.03 345.691H1152.89V342.981H1155.63V352.649H1140.34V342.981H1143.03V345.691ZM1152.89 350.452V347.84H1143.03V350.452H1152.89ZM1167.44 346.009C1167.43 346.985 1167.63 347.925 1168.03 348.829C1168.43 349.724 1169.04 350.517 1169.83 351.209C1170.63 351.901 1171.59 352.43 1172.72 352.796L1171.3 354.944C1170.09 354.537 1169.06 353.939 1168.19 353.15C1167.32 352.352 1166.64 351.412 1166.15 350.33C1165.64 351.526 1164.94 352.56 1164.02 353.431C1163.12 354.301 1162.04 354.961 1160.78 355.408L1159.26 353.26C1160.44 352.877 1161.44 352.32 1162.25 351.587C1163.07 350.847 1163.68 349.996 1164.08 349.036C1164.5 348.068 1164.71 347.05 1164.71 345.984V343.47H1167.44V346.009ZM1176.94 348.621H1180.02V350.916H1176.94V358.313H1174.23V342.103H1176.94V348.621ZM1177.82 363.733H1162.8V356.727H1165.59V361.536H1177.82V363.733ZM1207.19 355.213H1198.45V357.312H1204.72V364.124H1202.01V359.485H1189.29V357.312H1195.76V355.213H1187.07V353.04H1207.19V355.213ZM1198.45 344.178H1205.21V346.302H1198.64C1198.74 346.937 1199.09 347.518 1199.71 348.047C1200.32 348.576 1201.17 349.016 1202.27 349.366C1203.37 349.716 1204.67 349.948 1206.19 350.062L1205.33 352.112C1203.36 351.95 1201.67 351.571 1200.25 350.977C1198.85 350.383 1197.8 349.606 1197.1 348.646C1196.41 349.598 1195.36 350.375 1193.94 350.977C1192.53 351.571 1190.84 351.95 1188.88 352.112L1188.02 350.062C1189.52 349.948 1190.82 349.716 1191.92 349.366C1193.02 349.016 1193.87 348.576 1194.48 348.047C1195.09 347.518 1195.45 346.937 1195.55 346.302H1189.05V344.178H1195.76V342.078H1198.45V344.178ZM1227.67 364.173H1225.08V342.103H1227.67V364.173ZM1223.18 363.099H1220.62V351.99H1217.44V349.793H1220.62V342.518H1223.18V363.099ZM1215.49 348.133C1215.49 349.427 1215.65 350.668 1215.96 351.856C1216.29 353.044 1216.79 354.122 1217.45 355.091C1218.13 356.059 1218.97 356.832 1219.98 357.41L1218.37 359.412C1217.38 358.818 1216.53 358.025 1215.84 357.032C1215.15 356.031 1214.61 354.879 1214.21 353.577C1213.81 354.985 1213.25 356.238 1212.53 357.337C1211.82 358.427 1210.96 359.29 1209.95 359.925L1208.29 357.898C1209.31 357.28 1210.17 356.454 1210.85 355.42C1211.54 354.387 1212.05 353.248 1212.38 352.002C1212.71 350.749 1212.88 349.459 1212.88 348.133V346.668H1209.04V344.471H1219.05V346.668H1215.49V348.133ZM1248.15 350.501H1232.87V342.908H1235.56V348.353H1248.15V350.501ZM1250.43 355.213H1230.26V353.064H1250.43V355.213ZM1248.3 363.66H1232.68V357.166H1235.39V361.463H1248.3V363.66ZM1277.99 361.487H1257.82V359.266H1266.51V354.456H1260.04V343.812H1275.67V354.456H1269.2V359.266H1277.99V361.487ZM1262.71 352.332H1272.98V345.984H1262.71V352.332ZM1299.57 355.262H1279.43V353.089H1299.57V355.262ZM1297.32 351.087H1281.9V342.981H1297.13V345.13H1284.6V348.89H1297.32V351.087ZM1297.47 363.709H1281.92V357.19H1284.58V361.512H1297.47V363.709ZM1325.45 358.313H1322.74V352.845H1317.48C1316.95 353.447 1316.3 353.915 1315.54 354.249C1314.78 354.582 1313.97 354.749 1313.1 354.749C1312.01 354.749 1311.01 354.505 1310.12 354.017C1309.23 353.528 1308.53 352.857 1308.02 352.002C1307.51 351.14 1307.26 350.175 1307.26 349.109C1307.26 348.027 1307.51 347.055 1308.02 346.192C1308.53 345.329 1309.23 344.658 1310.12 344.178C1311 343.689 1312 343.445 1313.1 343.445C1313.97 343.445 1314.78 343.612 1315.53 343.946C1316.28 344.271 1316.93 344.731 1317.47 345.325H1322.74V342.127H1325.45V358.313ZM1326.01 363.733H1310.97V356.653H1313.68V361.536H1326.01V363.733ZM1313.1 345.862C1312.46 345.862 1311.9 345.997 1311.41 346.265C1310.92 346.534 1310.54 346.912 1310.26 347.4C1309.99 347.889 1309.85 348.458 1309.85 349.109C1309.85 349.752 1309.99 350.318 1310.26 350.806C1310.54 351.294 1310.92 351.673 1311.41 351.941C1311.9 352.202 1312.46 352.332 1313.1 352.332C1313.7 352.332 1314.24 352.198 1314.72 351.929C1315.2 351.661 1315.58 351.282 1315.85 350.794C1316.14 350.306 1316.29 349.744 1316.29 349.109C1316.29 348.466 1316.14 347.901 1315.85 347.413C1315.58 346.916 1315.2 346.534 1314.72 346.265C1314.24 345.997 1313.7 345.862 1313.1 345.862ZM1318.66 347.522C1318.81 348.068 1318.88 348.597 1318.88 349.109C1318.88 349.63 1318.81 350.143 1318.67 350.647H1322.74V347.522H1318.66ZM1339.12 349.915H1332.16V352.527C1334.02 352.519 1335.52 352.479 1336.67 352.405C1337.82 352.332 1338.95 352.194 1340.07 351.99L1340.34 354.188C1339.09 354.407 1337.81 354.554 1336.51 354.627C1335.21 354.692 1333.4 354.725 1331.09 354.725H1329.48V347.84H1336.41V345.496H1329.43V343.299H1339.12V349.915ZM1347.06 355.604H1344.35V351.966H1340.49V349.769H1344.35V347.449H1340.49V345.252H1344.35V342.127H1347.06V355.604ZM1339.63 355.97C1341.18 355.97 1342.52 356.137 1343.65 356.47C1344.78 356.796 1345.65 357.272 1346.25 357.898C1346.85 358.517 1347.15 359.257 1347.15 360.12C1347.15 360.991 1346.85 361.736 1346.25 362.354C1345.65 362.972 1344.78 363.44 1343.65 363.758C1342.53 364.083 1341.19 364.246 1339.63 364.246C1338.06 364.246 1336.71 364.083 1335.58 363.758C1334.45 363.44 1333.58 362.972 1332.98 362.354C1332.38 361.736 1332.08 360.991 1332.09 360.12C1332.08 359.257 1332.38 358.517 1332.98 357.898C1333.58 357.272 1334.45 356.796 1335.58 356.47C1336.72 356.137 1338.07 355.97 1339.63 355.97ZM1339.63 358.069C1338.07 358.069 1336.88 358.244 1336.06 358.594C1335.24 358.944 1334.82 359.453 1334.82 360.12C1334.82 360.787 1335.24 361.296 1336.06 361.646C1336.88 361.996 1338.07 362.171 1339.63 362.171C1341.18 362.171 1342.37 361.996 1343.21 361.646C1344.05 361.296 1344.47 360.787 1344.47 360.12C1344.47 359.453 1344.05 358.944 1343.21 358.594C1342.37 358.244 1341.18 358.069 1339.63 358.069ZM1369.18 364.173H1366.59V352.918H1364.1V363.05H1361.61V342.518H1364.1V350.745H1366.59V342.103H1369.18V364.173ZM1359.12 346.912H1353.6V356.727C1354.88 356.71 1356.04 356.661 1357.08 356.58C1358.11 356.499 1359.16 356.36 1360.22 356.165L1360.41 358.387C1359.19 358.631 1357.99 358.794 1356.8 358.875C1355.61 358.956 1354.13 359.005 1352.35 359.021H1350.86V344.715H1359.12V346.912ZM1378.38 343.47C1379.5 343.47 1380.52 343.698 1381.43 344.153C1382.34 344.601 1383.06 345.232 1383.58 346.045C1384.11 346.851 1384.38 347.767 1384.39 348.792C1384.38 349.679 1384.18 350.485 1383.79 351.209C1383.4 351.933 1382.85 352.535 1382.15 353.016C1381.46 353.496 1380.67 353.821 1379.77 353.992V357.239C1381.76 357.15 1383.56 356.995 1385.17 356.775L1385.36 358.802C1382.28 359.355 1378.5 359.632 1374.03 359.632C1373.51 359.632 1373.14 359.624 1372.91 359.607H1371.91L1371.52 357.386C1373.9 357.386 1375.74 357.369 1377.06 357.337V354.004C1376.14 353.85 1375.33 353.532 1374.62 353.052C1373.91 352.572 1373.36 351.966 1372.97 351.233C1372.58 350.501 1372.39 349.687 1372.4 348.792C1372.39 347.767 1372.64 346.851 1373.15 346.045C1373.67 345.232 1374.38 344.601 1375.29 344.153C1376.2 343.698 1377.23 343.47 1378.38 343.47ZM1378.38 345.765C1377.74 345.773 1377.16 345.903 1376.65 346.155C1376.14 346.399 1375.75 346.749 1375.46 347.205C1375.18 347.661 1375.03 348.19 1375.03 348.792C1375.03 349.402 1375.18 349.935 1375.46 350.391C1375.75 350.847 1376.15 351.197 1376.66 351.441C1377.16 351.685 1377.74 351.803 1378.38 351.795C1379.01 351.803 1379.58 351.685 1380.09 351.441C1380.59 351.197 1380.99 350.847 1381.27 350.391C1381.56 349.935 1381.7 349.402 1381.7 348.792C1381.7 348.19 1381.56 347.661 1381.27 347.205C1380.99 346.749 1380.59 346.399 1380.09 346.155C1379.58 345.903 1379.01 345.773 1378.38 345.765ZM1389.15 350.916H1392.34V353.211H1389.15V364.173H1386.44V342.103H1389.15V350.916ZM1411.66 345.057V345.35C1411.64 346.473 1411.6 347.498 1411.53 348.426C1411.47 349.354 1411.33 350.395 1411.12 351.551L1408.43 351.307C1408.63 350.281 1408.76 349.354 1408.84 348.523C1408.91 347.685 1408.96 346.839 1408.98 345.984H1400.4V343.738H1411.66V345.057ZM1406.09 353.174C1408.7 353.06 1410.96 352.869 1412.85 352.601L1413 354.554C1410.96 354.92 1408.84 355.164 1406.63 355.286C1404.42 355.4 1401.99 355.465 1399.33 355.481L1399.08 353.309H1399.52C1400.16 353.3 1400.8 353.292 1401.45 353.284C1402.1 353.276 1402.75 353.268 1403.4 353.26V348.768H1406.09V353.174ZM1416.93 348.987H1419.79V351.258H1416.93V358.631H1414.15V342.103H1416.93V348.987ZM1417.64 363.733H1402.38V357.166H1405.11V361.536H1417.64V363.733ZM1439.32 354.603H1436.58V342.127H1439.32V354.603ZM1439.32 363.904H1424.67V355.701H1439.32V363.904ZM1427.35 361.707H1436.66V357.85H1427.35V361.707ZM1429.16 345.105C1429.16 346.049 1429.37 346.953 1429.78 347.815C1430.2 348.678 1430.8 349.443 1431.6 350.11C1432.4 350.778 1433.36 351.29 1434.48 351.648L1433.16 353.724C1431.91 353.333 1430.83 352.751 1429.92 351.978C1429.01 351.197 1428.29 350.269 1427.78 349.195C1427.27 350.359 1426.54 351.372 1425.61 352.234C1424.68 353.089 1423.57 353.732 1422.28 354.163L1420.93 352.015C1422.1 351.64 1423.09 351.099 1423.9 350.391C1424.71 349.683 1425.32 348.873 1425.73 347.962C1426.15 347.042 1426.35 346.09 1426.35 345.105V342.957H1429.16V345.105ZM1167.42 387.4C1167.41 388.719 1167.62 390.013 1168.04 391.282C1168.47 392.544 1169.09 393.675 1169.91 394.676C1170.72 395.677 1171.68 396.442 1172.79 396.971L1171.13 399.144C1169.96 398.549 1168.94 397.703 1168.08 396.604C1167.22 395.506 1166.55 394.236 1166.07 392.796C1165.58 394.334 1164.88 395.693 1163.98 396.873C1163.08 398.045 1162.01 398.94 1160.78 399.559L1159.12 397.386C1160.26 396.84 1161.26 396.047 1162.1 395.005C1162.94 393.956 1163.58 392.771 1164.02 391.453C1164.47 390.127 1164.7 388.776 1164.71 387.4V383.885H1167.42V387.4ZM1176.82 390.745H1180.21V393.064H1176.82V404.173H1174.11V382.103H1176.82V390.745ZM1201.28 394.163H1181.11V392.112H1201.28V394.163ZM1198.84 400.511H1186.19V402.049H1199.5V403.929H1183.48V398.753H1196.15V397.386H1183.46V395.481H1198.84V400.511ZM1198.79 387.571H1186.36V389.012H1199.18V390.867H1183.68V385.813H1196.08V384.471H1183.6V382.591H1198.79V387.571ZM1214.61 383.714C1215.72 383.714 1216.7 384.035 1217.56 384.678C1218.43 385.313 1219.1 386.22 1219.59 387.4C1220.09 388.572 1220.34 389.939 1220.35 391.502C1220.34 393.081 1220.09 394.46 1219.59 395.64C1219.1 396.82 1218.43 397.728 1217.56 398.362C1216.7 398.997 1215.72 399.314 1214.61 399.314C1213.49 399.314 1212.5 398.997 1211.63 398.362C1210.76 397.719 1210.08 396.808 1209.59 395.628C1209.1 394.448 1208.86 393.073 1208.87 391.502C1208.86 389.948 1209.1 388.58 1209.59 387.4C1210.08 386.22 1210.76 385.313 1211.63 384.678C1212.5 384.035 1213.49 383.714 1214.61 383.714ZM1214.61 386.155C1213.99 386.155 1213.45 386.371 1212.97 386.802C1212.5 387.225 1212.14 387.84 1211.88 388.646C1211.62 389.443 1211.48 390.395 1211.48 391.502C1211.48 392.617 1211.62 393.577 1211.88 394.383C1212.14 395.188 1212.5 395.807 1212.97 396.238C1213.45 396.661 1213.99 396.873 1214.61 396.873C1215.24 396.873 1215.79 396.661 1216.26 396.238C1216.73 395.807 1217.09 395.188 1217.34 394.383C1217.6 393.577 1217.73 392.617 1217.73 391.502C1217.73 390.395 1217.6 389.439 1217.34 388.633C1217.09 387.828 1216.73 387.213 1216.26 386.79C1215.79 386.367 1215.24 386.155 1214.61 386.155ZM1225.96 390.574H1229.36V392.869H1225.96V404.173H1223.25V382.103H1225.96V390.574ZM1250.43 396.775H1241.64V404.173H1238.95V396.775H1230.26V394.529H1250.43V396.775ZM1240.29 382.884C1241.85 382.892 1243.23 383.099 1244.43 383.506C1245.64 383.913 1246.57 384.491 1247.24 385.24C1247.91 385.98 1248.25 386.847 1248.25 387.84C1248.25 388.825 1247.91 389.687 1247.24 390.428C1246.57 391.16 1245.64 391.726 1244.43 392.125C1243.23 392.523 1241.85 392.723 1240.29 392.723C1238.73 392.723 1237.35 392.523 1236.14 392.125C1234.95 391.726 1234.02 391.16 1233.36 390.428C1232.7 389.687 1232.38 388.825 1232.38 387.84C1232.38 386.847 1232.7 385.98 1233.36 385.24C1234.02 384.491 1234.95 383.913 1236.14 383.506C1237.35 383.099 1238.73 382.892 1240.29 382.884ZM1240.29 385.081C1239.25 385.081 1238.34 385.191 1237.57 385.411C1236.8 385.63 1236.2 385.948 1235.78 386.363C1235.36 386.778 1235.16 387.27 1235.17 387.84C1235.16 388.401 1235.36 388.89 1235.78 389.305C1236.2 389.712 1236.8 390.025 1237.57 390.245C1238.34 390.464 1239.25 390.574 1240.29 390.574C1241.34 390.574 1242.24 390.464 1243.02 390.245C1243.79 390.025 1244.39 389.712 1244.81 389.305C1245.23 388.89 1245.44 388.401 1245.44 387.84C1245.44 387.27 1245.23 386.778 1244.81 386.363C1244.39 385.948 1243.79 385.63 1243.02 385.411C1242.24 385.191 1241.34 385.081 1240.29 385.081ZM1272.06 401.561H1251.89V399.339H1272.06V401.561ZM1269.66 390.77H1256.99V393.65H1270.18V395.799H1254.28V388.597H1266.98V385.862H1254.23V383.665H1269.66V390.77ZM1291.37 390.501H1276.08V382.908H1278.77V388.353H1291.37V390.501ZM1293.64 395.213H1273.47V393.064H1293.64V395.213ZM1291.51 403.66H1275.89V397.166H1278.6V401.463H1291.51V403.66ZM1318.32 390.477H1321.71V392.698H1318.32V404.197H1315.61V382.103H1318.32V390.477ZM1312.27 386.399H1304.65V396.531C1306.43 396.531 1308.04 396.478 1309.47 396.373C1310.9 396.267 1312.36 396.084 1313.83 395.823L1314.15 398.118C1312.55 398.395 1310.97 398.578 1309.41 398.667C1307.86 398.757 1305.98 398.802 1303.77 398.802H1301.94V384.202H1312.27V386.399ZM1343.05 387.278H1340.05V389.793H1343.05V392.039H1340.05V395.066H1337.34V382.103H1340.05V385.057H1343.05V387.278ZM1328.84 383.372C1329.97 383.364 1330.98 383.584 1331.88 384.031C1332.79 384.471 1333.49 385.093 1334.01 385.899C1334.53 386.705 1334.79 387.62 1334.8 388.646C1334.79 389.663 1334.53 390.574 1334.01 391.38C1333.49 392.177 1332.79 392.804 1331.88 393.26C1330.98 393.707 1329.97 393.935 1328.84 393.943C1327.71 393.935 1326.69 393.707 1325.78 393.26C1324.88 392.804 1324.16 392.177 1323.64 391.38C1323.13 390.574 1322.88 389.663 1322.89 388.646C1322.88 387.62 1323.13 386.709 1323.64 385.911C1324.16 385.105 1324.88 384.479 1325.78 384.031C1326.69 383.584 1327.71 383.364 1328.84 383.372ZM1328.84 385.643C1328.21 385.643 1327.64 385.769 1327.13 386.021C1326.64 386.273 1326.25 386.627 1325.96 387.083C1325.68 387.531 1325.54 388.051 1325.55 388.646C1325.54 389.24 1325.67 389.764 1325.95 390.22C1326.24 390.668 1326.63 391.018 1327.13 391.27C1327.64 391.514 1328.21 391.64 1328.84 391.648C1329.47 391.64 1330.03 391.514 1330.53 391.27C1331.03 391.018 1331.43 390.668 1331.71 390.22C1332 389.764 1332.14 389.24 1332.14 388.646C1332.14 388.051 1332 387.531 1331.71 387.083C1331.43 386.627 1331.03 386.273 1330.53 386.021C1330.03 385.769 1329.47 385.643 1328.84 385.643ZM1332.87 395.579C1334.37 395.579 1335.67 395.75 1336.78 396.092C1337.89 396.434 1338.75 396.93 1339.35 397.581C1339.96 398.224 1340.26 398.989 1340.27 399.876C1340.26 400.763 1339.96 401.528 1339.35 402.171C1338.75 402.814 1337.89 403.302 1336.78 403.636C1335.67 403.978 1334.37 404.148 1332.87 404.148C1331.36 404.148 1330.04 403.978 1328.9 403.636C1327.78 403.302 1326.91 402.814 1326.3 402.171C1325.7 401.528 1325.4 400.763 1325.4 399.876C1325.4 398.989 1325.71 398.224 1326.32 397.581C1326.93 396.93 1327.79 396.434 1328.92 396.092C1330.04 395.75 1331.36 395.579 1332.87 395.579ZM1332.87 397.752C1331.35 397.752 1330.17 397.935 1329.34 398.301C1328.52 398.659 1328.11 399.184 1328.11 399.876C1328.11 400.568 1328.52 401.093 1329.34 401.451C1330.17 401.801 1331.34 401.976 1332.87 401.976C1334.39 401.976 1335.56 401.801 1336.36 401.451C1337.18 401.093 1337.58 400.568 1337.58 399.876C1337.58 399.184 1337.18 398.659 1336.36 398.301C1335.56 397.935 1334.39 397.752 1332.87 397.752ZM1361.66 389.061H1364.73V391.307H1361.66V398.606H1358.95V382.127H1361.66V389.061ZM1357.36 386.741H1344.27V384.568H1349.47V382.103H1352.18V384.568H1357.36V386.741ZM1350.82 387.645C1351.87 387.645 1352.8 387.819 1353.61 388.169C1354.43 388.519 1355.06 389.016 1355.52 389.659C1355.97 390.293 1356.2 391.03 1356.21 391.868C1356.2 392.698 1355.97 393.431 1355.52 394.065C1355.06 394.692 1354.43 395.18 1353.61 395.53C1352.8 395.872 1351.87 396.043 1350.82 396.043C1349.76 396.043 1348.82 395.872 1348 395.53C1347.17 395.18 1346.54 394.692 1346.08 394.065C1345.62 393.431 1345.4 392.698 1345.4 391.868C1345.4 391.03 1345.62 390.293 1346.08 389.659C1346.54 389.016 1347.17 388.519 1348 388.169C1348.82 387.819 1349.76 387.645 1350.82 387.645ZM1350.82 389.744C1349.96 389.744 1349.28 389.931 1348.78 390.306C1348.28 390.68 1348.03 391.201 1348.03 391.868C1348.03 392.519 1348.28 393.032 1348.79 393.406C1349.29 393.781 1349.97 393.96 1350.82 393.943C1351.66 393.96 1352.34 393.781 1352.85 393.406C1353.37 393.032 1353.62 392.519 1353.62 391.868C1353.62 391.201 1353.37 390.68 1352.85 390.306C1352.35 389.931 1351.67 389.744 1350.82 389.744ZM1362.53 403.733H1347.52V397.312H1350.23V401.536H1362.53V403.733ZM1379.72 386.644C1379.72 387.457 1379.92 388.239 1380.32 388.987C1380.72 389.736 1381.31 390.403 1382.1 390.989C1382.89 391.575 1383.85 392.023 1384.97 392.332L1383.73 394.432C1382.48 394.098 1381.41 393.581 1380.5 392.881C1379.6 392.173 1378.9 391.335 1378.39 390.367C1377.9 391.433 1377.19 392.352 1376.27 393.125C1375.35 393.89 1374.25 394.456 1372.96 394.822L1371.67 392.723C1372.8 392.405 1373.77 391.941 1374.57 391.331C1375.38 390.713 1375.98 390 1376.39 389.195C1376.8 388.381 1377.01 387.531 1377.01 386.644V386.595H1372.4V384.446H1377.01V382.005H1379.75V384.446H1384.34V386.595H1379.72V386.644ZM1389.19 387.425H1392.27V389.671H1389.19V395.091H1386.48V382.103H1389.19V387.425ZM1389.19 403.904H1374.94V396.019H1389.19V403.904ZM1377.62 401.707H1386.51V398.167H1377.62V401.707ZM1399.42 383.714C1400.42 383.714 1401.31 383.978 1402.11 384.507C1402.92 385.036 1403.57 385.789 1404.06 386.766H1409.21V382.103H1411.9V404.197H1409.21V395.848H1404.26C1403.78 396.946 1403.12 397.801 1402.28 398.411C1401.44 399.013 1400.49 399.314 1399.42 399.314C1398.32 399.314 1397.34 398.997 1396.48 398.362C1395.63 397.728 1394.96 396.82 1394.48 395.64C1394 394.46 1393.76 393.081 1393.76 391.502C1393.76 389.939 1394 388.572 1394.48 387.4C1394.96 386.22 1395.63 385.313 1396.48 384.678C1397.35 384.035 1398.33 383.714 1399.42 383.714ZM1399.42 386.155C1398.81 386.155 1398.28 386.371 1397.81 386.802C1397.35 387.225 1396.99 387.84 1396.74 388.646C1396.49 389.443 1396.36 390.395 1396.37 391.502C1396.36 392.617 1396.49 393.577 1396.74 394.383C1396.99 395.188 1397.35 395.807 1397.81 396.238C1398.28 396.661 1398.81 396.873 1399.42 396.873C1400.03 396.873 1400.57 396.661 1401.02 396.238C1401.49 395.807 1401.85 395.188 1402.1 394.383C1402.36 393.577 1402.49 392.617 1402.5 391.502C1402.49 390.395 1402.36 389.439 1402.1 388.633C1401.85 387.828 1401.49 387.213 1401.02 386.79C1400.57 386.367 1400.03 386.155 1399.42 386.155ZM1404.82 388.987C1404.98 389.777 1405.06 390.615 1405.06 391.502C1405.06 392.234 1405.01 392.951 1404.89 393.65H1409.21V388.987H1404.82ZM1231.81 441.512H1211.64V439.241H1231.81V441.512ZM1230.05 426.326H1226.83V433.357H1229.98V435.506H1213.38V433.357H1216.48V426.326H1213.3V424.153H1230.05V426.326ZM1224.14 433.357V426.326H1219.19V433.357H1224.14ZM1253.42 441.609H1233.25V439.363H1241.94V435.774H1235.64V428.548H1248.34V425.813H1235.59V423.616H1251.02V430.696H1238.35V433.553H1251.54V435.774H1244.63V439.363H1253.42V441.609ZM1272.41 426.741C1272.41 428.06 1272.39 429.195 1272.36 430.147C1272.34 431.091 1272.27 432.173 1272.15 433.394C1272.04 434.615 1271.86 435.945 1271.6 437.386L1268.85 437.142C1269.11 435.799 1269.31 434.529 1269.43 433.333C1269.55 432.129 1269.63 431.054 1269.65 430.11C1269.68 429.158 1269.7 428.035 1269.7 426.741V426.448H1256.98V424.251H1272.41V426.741ZM1274.97 441.146H1254.86V438.924H1274.97V441.146ZM1295.33 435.188H1292.75V429.646H1290.45V434.969H1287.91V422.542H1290.45V427.449H1292.75V422.127H1295.33V435.188ZM1295.33 443.904H1280.44V436.116H1295.33V443.904ZM1283.15 441.707H1292.65V438.289H1283.15V441.707ZM1285.76 429.842H1280.03V432.234C1281.42 432.218 1282.63 432.169 1283.65 432.088C1284.69 432.007 1285.73 431.86 1286.79 431.648L1287.03 433.797C1285.91 434.008 1284.81 434.151 1283.73 434.224C1282.64 434.297 1281.37 434.334 1279.91 434.334H1278.9H1277.39V427.815H1283.15V425.618H1277.37V423.47H1285.76V429.842ZM1308.1 422.444C1309.78 422.444 1311.21 422.591 1312.39 422.884C1313.58 423.177 1314.48 423.608 1315.11 424.178C1315.74 424.739 1316.05 425.423 1316.06 426.229C1316.05 427.449 1315.36 428.385 1313.98 429.036C1312.59 429.687 1310.63 430.021 1308.1 430.037C1305.56 430.021 1303.6 429.687 1302.22 429.036C1300.84 428.385 1300.14 427.449 1300.14 426.229C1300.14 425.423 1300.46 424.739 1301.08 424.178C1301.71 423.608 1302.62 423.177 1303.81 422.884C1304.99 422.591 1306.43 422.444 1308.1 422.444ZM1308.1 424.446C1306.43 424.446 1305.15 424.601 1304.28 424.91C1303.41 425.211 1302.98 425.651 1303 426.229C1302.99 426.831 1303.42 427.278 1304.27 427.571C1305.12 427.864 1306.4 428.011 1308.1 428.011C1309.83 428.011 1311.12 427.864 1311.97 427.571C1312.83 427.278 1313.25 426.831 1313.25 426.229C1313.25 425.651 1312.82 425.211 1311.95 424.91C1311.08 424.601 1309.8 424.446 1308.1 424.446ZM1318.19 433.382H1298.07V431.209H1318.19V433.382ZM1315.67 440.267H1303.12V441.902H1316.28V443.978H1300.46V438.338H1313.01V436.873H1300.44V434.871H1315.67V440.267ZM1344.6 444.173H1342.01V422.103H1344.6V444.173ZM1340.11 443.099H1337.55V431.99H1334.37V429.793H1337.55V422.518H1340.11V443.099ZM1332.42 428.133C1332.42 429.427 1332.58 430.668 1332.9 431.856C1333.22 433.044 1333.72 434.122 1334.39 435.091C1335.06 436.059 1335.9 436.832 1336.91 437.41L1335.3 439.412C1334.31 438.818 1333.47 438.025 1332.77 437.032C1332.08 436.031 1331.54 434.879 1331.14 433.577C1330.74 434.985 1330.18 436.238 1329.47 437.337C1328.75 438.427 1327.89 439.29 1326.88 439.925L1325.22 437.898C1326.24 437.28 1327.1 436.454 1327.78 435.42C1328.47 434.387 1328.98 433.248 1329.31 432.002C1329.64 430.749 1329.81 429.459 1329.81 428.133V426.668H1325.97V424.471H1335.98V426.668H1332.42V428.133ZM1357.15 435.896C1358.75 435.905 1360.13 436.076 1361.3 436.409C1362.47 436.735 1363.38 437.207 1364.01 437.825C1364.65 438.444 1364.98 439.184 1364.99 440.047C1364.98 440.893 1364.65 441.622 1364.01 442.232C1363.38 442.85 1362.47 443.322 1361.29 443.648C1360.12 443.982 1358.74 444.148 1357.15 444.148C1355.57 444.148 1354.19 443.982 1353.01 443.648C1351.84 443.322 1350.93 442.85 1350.29 442.232C1349.66 441.622 1349.34 440.893 1349.34 440.047C1349.34 439.184 1349.66 438.444 1350.29 437.825C1350.93 437.207 1351.84 436.735 1353.01 436.409C1354.19 436.076 1355.56 435.905 1357.15 435.896ZM1357.15 437.947C1355.56 437.947 1354.31 438.13 1353.4 438.497C1352.51 438.863 1352.07 439.38 1352.07 440.047C1352.07 440.69 1352.51 441.186 1353.4 441.536C1354.3 441.878 1355.55 442.049 1357.15 442.049C1358.76 442.049 1360.02 441.878 1360.92 441.536C1361.83 441.186 1362.29 440.69 1362.3 440.047C1362.29 439.38 1361.83 438.863 1360.92 438.497C1360.02 438.13 1358.76 437.947 1357.15 437.947ZM1364.84 424.983C1364.84 426.155 1364.81 427.173 1364.73 428.035C1364.67 428.898 1364.5 429.834 1364.23 430.843L1361.55 430.599C1361.79 429.63 1361.95 428.755 1362.02 427.974C1362.1 427.185 1362.13 426.294 1362.13 425.301H1349.56V423.152H1364.84V424.983ZM1367.28 434.31H1347.26V432.112H1355.03V428.108H1357.71V432.112H1367.28V434.31Z" fill="#010033"/>
</svg>
