<svg width="892" height="738" viewBox="0 0 892 738" fill="none" xmlns="http://www.w3.org/2000/svg">
<mask id="path-1-inside-1_517_3" fill="white">
<path fill-rule="evenodd" clip-rule="evenodd" d="M187.622 354.643C235.546 354.643 279.274 337.661 312.435 309.717C345.597 337.661 389.325 354.643 437.249 354.643C489.516 354.643 536.792 334.443 570.813 301.854C604.835 334.443 652.11 354.643 704.378 354.643C807.998 354.643 892 275.253 892 177.321C892 79.3894 807.998 0 704.378 0C652.11 0 604.835 20.1992 570.813 52.7885C536.792 20.1992 489.516 0 437.249 0C389.325 0 345.597 16.9817 312.435 44.9255C279.274 16.9817 235.546 0 187.622 0C84.0012 0 0 79.3894 0 177.321C0 275.253 84.0012 354.643 187.622 354.643Z"/>
</mask>
<path d="M312.435 309.717L314.368 307.423L312.435 305.794L310.502 307.423L312.435 309.717ZM570.813 301.854L572.889 299.688L570.813 297.7L568.738 299.688L570.813 301.854ZM570.813 52.7885L568.738 54.9549L570.813 56.9428L572.889 54.9549L570.813 52.7885ZM312.435 44.9255L310.502 47.2196L312.435 48.8485L314.368 47.2196L312.435 44.9255ZM310.502 307.423C277.875 334.916 234.831 351.643 187.622 351.643V357.643C236.262 357.643 280.672 340.406 314.368 312.011L310.502 307.423ZM437.249 351.643C390.04 351.643 346.995 334.916 314.368 307.423L310.502 312.011C344.199 340.406 388.609 357.643 437.249 357.643V351.643ZM568.738 299.688C535.27 331.747 488.736 351.643 437.249 351.643V357.643C490.297 357.643 538.314 337.14 572.889 304.021L568.738 299.688ZM704.378 351.643C652.891 351.643 606.357 331.747 572.889 299.688L568.738 304.021C603.313 337.14 651.33 357.643 704.378 357.643V351.643ZM889 177.321C889 273.439 806.503 351.643 704.378 351.643V357.643C809.493 357.643 895 277.067 895 177.321H889ZM704.378 3C806.503 3 889 81.2036 889 177.321H895C895 77.5752 809.493 -3 704.378 -3V3ZM572.889 54.9549C606.357 22.8956 652.891 3 704.378 3V-3C651.33 -3 603.313 17.5027 568.738 50.6221L572.889 54.9549ZM437.249 3C488.736 3 535.27 22.8956 568.738 54.9549L572.889 50.6221C538.314 17.5027 490.297 -3 437.249 -3V3ZM314.368 47.2196C346.995 19.7264 390.04 3 437.249 3V-3C388.609 -3 344.199 14.2369 310.502 42.6313L314.368 47.2196ZM187.622 3C234.831 3 277.875 19.7264 310.502 47.2196L314.368 42.6313C280.672 14.2369 236.262 -3 187.622 -3V3ZM3 177.321C3 81.2036 85.4962 3 187.622 3V-3C82.5062 -3 -3 77.5752 -3 177.321H3ZM187.622 351.643C85.4962 351.643 3 273.439 3 177.321H-3C-3 277.067 82.5062 357.643 187.622 357.643V351.643Z" fill="white" mask="url(#path-1-inside-1_517_3)"/>
<rect x="1.5" y="521.5" width="889" height="215" rx="83.5" stroke="white" stroke-width="3"/>
<line x1="180" y1="383" x2="180" y2="491" stroke="white" stroke-width="2" stroke-dasharray="4 4"/>
<line x1="435" y1="383" x2="435" y2="491" stroke="white" stroke-width="2" stroke-dasharray="4 4"/>
<line x1="705" y1="383" x2="705" y2="491" stroke="white" stroke-width="2" stroke-dasharray="4 4"/>
<path d="M101.875 192.875C101.875 194.521 102.068 196.089 102.453 197.578C102.849 199.068 103.458 200.406 104.281 201.594C105.104 202.771 106.146 203.698 107.406 204.375L105.344 207.125C104.104 206.438 103.052 205.505 102.188 204.328C101.333 203.151 100.661 201.786 100.172 200.234C99.6406 201.943 98.9115 203.458 97.9844 204.781C97.0677 206.094 95.9688 207.135 94.6875 207.906L92.4688 205.375C93.8021 204.594 94.9219 203.552 95.8281 202.25C96.7344 200.948 97.4062 199.51 97.8438 197.938C98.2812 196.365 98.5 194.75 98.5 193.094V188.031H101.875V192.875ZM117.312 213.781H113.969V199.469H111.062V212.406H107.781V186.031H111.062V196.656H113.969V185.531H117.312V213.781ZM146.406 210.5H120.594V207.625H131.719V203.031H123.656V193.781H139.906V190.281H123.594V187.469H143.344V196.531H127.125V200.188H144V203.031H135.156V207.625H146.406V210.5ZM174.031 202.281H163.125V207.469H159.594V202.281H148.219V199.5H174.031V202.281ZM171.188 213.219H151.375V204.844H154.875V210.375H171.188V213.219ZM161.094 186.156C163.115 186.156 164.885 186.391 166.406 186.859C167.938 187.328 169.12 188 169.953 188.875C170.797 189.74 171.219 190.76 171.219 191.938C171.219 193.115 170.797 194.135 169.953 195C169.12 195.865 167.938 196.531 166.406 197C164.885 197.458 163.115 197.688 161.094 197.688C159.073 197.688 157.297 197.458 155.766 197C154.245 196.531 153.062 195.865 152.219 195C151.385 194.135 150.969 193.115 150.969 191.938C150.969 190.76 151.385 189.74 152.219 188.875C153.062 188 154.245 187.328 155.766 186.859C157.297 186.391 159.073 186.156 161.094 186.156ZM161.094 188.906C159.802 188.906 158.672 189.026 157.703 189.266C156.745 189.505 156.005 189.854 155.484 190.312C154.964 190.76 154.708 191.302 154.719 191.938C154.708 192.552 154.964 193.083 155.484 193.531C156.005 193.979 156.745 194.323 157.703 194.562C158.672 194.792 159.802 194.906 161.094 194.906C162.396 194.906 163.526 194.792 164.484 194.562C165.453 194.323 166.198 193.979 166.719 193.531C167.24 193.083 167.5 192.552 167.5 191.938C167.5 191.302 167.24 190.76 166.719 190.312C166.198 189.854 165.453 189.505 164.484 189.266C163.526 189.026 162.396 188.906 161.094 188.906ZM207 213.812H203.5V185.531H207V213.812ZM198.875 190.938H188.75V204.062C191.5 204.052 193.776 203.99 195.578 203.875C197.38 203.76 199.177 203.542 200.969 203.219L201.312 206.094C199.385 206.448 197.417 206.688 195.406 206.812C193.406 206.938 190.823 207 187.656 207H185.25V188.094H198.875V190.938ZM221.281 193.562C221.281 195.042 221.562 196.531 222.125 198.031C222.698 199.531 223.516 200.896 224.578 202.125C225.651 203.354 226.906 204.302 228.344 204.969L226.406 207.719C224.854 206.99 223.495 205.922 222.328 204.516C221.161 203.099 220.25 201.479 219.594 199.656C218.938 201.646 218.005 203.411 216.797 204.953C215.589 206.495 214.188 207.646 212.594 208.406L210.562 205.688C212.01 205 213.281 204.005 214.375 202.703C215.479 201.401 216.323 199.948 216.906 198.344C217.5 196.74 217.802 195.146 217.812 193.562V191.188H211.656V188.312H227.188V191.188H221.281V193.562ZM233.281 196.531H237.625V199.438H233.281V213.781H229.812V185.531H233.281V196.531ZM262.344 205.969H258.844V185.562H262.344V205.969ZM263.125 213.219H243.656V203.906H247.156V210.406H263.125V213.219ZM246.938 187.406C248.354 187.406 249.641 187.714 250.797 188.328C251.953 188.932 252.865 189.771 253.531 190.844C254.198 191.917 254.531 193.125 254.531 194.469C254.531 195.833 254.198 197.057 253.531 198.141C252.865 199.214 251.953 200.052 250.797 200.656C249.641 201.26 248.354 201.562 246.938 201.562C245.51 201.562 244.214 201.26 243.047 200.656C241.891 200.052 240.979 199.214 240.312 198.141C239.646 197.057 239.312 195.833 239.312 194.469C239.312 193.125 239.646 191.917 240.312 190.844C240.979 189.771 241.891 188.932 243.047 188.328C244.214 187.714 245.51 187.406 246.938 187.406ZM246.938 190.438C246.135 190.438 245.411 190.604 244.766 190.938C244.12 191.271 243.615 191.745 243.25 192.359C242.885 192.974 242.708 193.677 242.719 194.469C242.708 195.281 242.885 195.995 243.25 196.609C243.615 197.224 244.12 197.698 244.766 198.031C245.411 198.365 246.135 198.531 246.938 198.531C247.719 198.531 248.427 198.365 249.062 198.031C249.698 197.698 250.198 197.224 250.562 196.609C250.938 195.995 251.125 195.281 251.125 194.469C251.125 193.677 250.938 192.974 250.562 192.359C250.198 191.745 249.698 191.271 249.062 190.938C248.427 190.604 247.719 190.438 246.938 190.438Z" fill="white"/>
<path d="M390.75 210.344H364.938V207.5H376.062V201.344H367.781V187.719H387.781V201.344H379.5V207.5H390.75V210.344ZM371.188 198.625H384.344V190.5H371.188V198.625ZM402.875 190.531C402.875 191.875 403.125 193.172 403.625 194.422C404.125 195.672 404.865 196.792 405.844 197.781C406.833 198.76 408.031 199.51 409.438 200.031L407.5 202.719C406.021 202.135 404.74 201.286 403.656 200.172C402.583 199.057 401.745 197.75 401.141 196.25C400.526 197.844 399.646 199.234 398.5 200.422C397.365 201.599 396 202.5 394.406 203.125L392.531 200.375C393.99 199.844 395.229 199.078 396.25 198.078C397.281 197.078 398.057 195.927 398.578 194.625C399.099 193.323 399.365 191.958 399.375 190.531V187.156H402.875V190.531ZM416.25 206.531H412.781V197.781H407.625V195H412.781V192.219H407.625V189.406H412.781V185.562H416.25V206.531ZM416.875 213.219H397.625V204.469H401.156V210.406H416.875V213.219ZM442.969 189.281V189.594C442.948 191.375 442.891 192.922 442.797 194.234C442.703 195.536 442.49 197 442.156 198.625L438.719 198.344C439 197.042 439.198 195.776 439.312 194.547L422.938 195.25L422.5 192.375L439.469 191.969C439.49 191.406 439.5 190.583 439.5 189.5H423.25V186.719H442.969V189.281ZM445.938 202.969H420.312V200.188H430.188V196.469H433.656V200.188H445.938V202.969ZM443.5 213.344H423.375V204.938H426.844V210.531H443.5V213.344ZM472.062 206.656H468.75V185.562H472.062V206.656ZM466.5 205.969H463.188V196.125H460V193.344H463.188V186.094H466.5V205.969ZM472.844 213.219H453.312V204.344H456.812V210.406H472.844V213.219ZM459.844 190.562H452.438V193.719H458.781V196.375H452.438V199.625C454.302 199.615 455.854 199.568 457.094 199.484C458.344 199.401 459.615 199.24 460.906 199L461.281 201.75C459.729 202.031 458.198 202.224 456.688 202.328C455.188 202.422 453.281 202.469 450.969 202.469H449.094V187.75H459.844V190.562ZM501.375 210.375H475.562V207.531H501.375V210.375ZM499.062 192.5H490.234C490.307 193.781 490.75 194.99 491.562 196.125C492.385 197.26 493.536 198.234 495.016 199.047C496.505 199.849 498.24 200.396 500.219 200.688L498.875 203.469C496.458 203.062 494.349 202.307 492.547 201.203C490.745 200.089 489.375 198.714 488.438 197.078C487.49 198.714 486.115 200.089 484.312 201.203C482.521 202.307 480.417 203.062 478 203.469L476.688 200.688C478.656 200.396 480.38 199.849 481.859 199.047C483.339 198.234 484.49 197.26 485.312 196.125C486.135 194.99 486.589 193.781 486.672 192.5H477.844V189.688H486.719V186.062H490.156V189.688H499.062V192.5Z" fill="white"/>
<path d="M654.312 213.781H650.938V185.531H654.312V213.781ZM648.375 212.406H645.125V198.844H639.688V196H645.125V186.094H648.375V212.406ZM641.625 191.625H634.281V204.406C636.083 204.385 637.62 204.323 638.891 204.219C640.172 204.115 641.469 203.927 642.781 203.656L643.062 206.5C641.562 206.812 640.057 207.021 638.547 207.125C637.047 207.229 635.125 207.292 632.781 207.312H630.875V188.844H641.625V191.625ZM681.094 213.812H677.594V185.531H681.094V213.812ZM665.875 187.594C667.292 187.594 668.552 188.005 669.656 188.828C670.771 189.641 671.646 190.802 672.281 192.312C672.917 193.812 673.24 195.562 673.25 197.562C673.24 199.573 672.917 201.333 672.281 202.844C671.656 204.354 670.786 205.521 669.672 206.344C668.557 207.156 667.292 207.562 665.875 207.562C664.448 207.562 663.177 207.156 662.062 206.344C660.948 205.521 660.073 204.354 659.438 202.844C658.812 201.333 658.5 199.573 658.5 197.562C658.5 195.562 658.812 193.812 659.438 192.312C660.073 190.802 660.948 189.641 662.062 188.828C663.177 188.005 664.448 187.594 665.875 187.594ZM665.875 190.719C665.073 190.719 664.365 190.99 663.75 191.531C663.146 192.073 662.677 192.859 662.344 193.891C662.01 194.922 661.844 196.146 661.844 197.562C661.844 198.99 662.01 200.219 662.344 201.25C662.677 202.281 663.146 203.073 663.75 203.625C664.365 204.167 665.073 204.438 665.875 204.438C666.667 204.438 667.365 204.167 667.969 203.625C668.573 203.073 669.042 202.281 669.375 201.25C669.708 200.219 669.875 198.99 669.875 197.562C669.875 196.146 669.708 194.927 669.375 193.906C669.042 192.875 668.573 192.089 667.969 191.547C667.365 190.995 666.667 190.719 665.875 190.719ZM708.938 213.812H705.5V198.562H700.188V195.75H705.5V185.531H708.938V213.812ZM699.75 190.812H690.031V195.875H698.625V198.625H690.031V204.438C692.344 204.427 694.349 204.37 696.047 204.266C697.755 204.161 699.469 203.969 701.188 203.688L701.531 206.5C699.573 206.802 697.63 207.01 695.703 207.125C693.776 207.229 691.458 207.292 688.75 207.312H686.531V187.969H699.75V190.812ZM731.188 192.312C731.177 194.052 731.464 195.745 732.047 197.391C732.63 199.036 733.474 200.5 734.578 201.781C735.682 203.062 736.979 204.021 738.469 204.656L736.406 207.438C734.812 206.698 733.422 205.62 732.234 204.203C731.057 202.786 730.135 201.135 729.469 199.25C728.802 201.292 727.859 203.083 726.641 204.625C725.432 206.156 723.99 207.312 722.312 208.094L720.188 205.188C721.719 204.531 723.047 203.542 724.172 202.219C725.307 200.885 726.172 199.359 726.766 197.641C727.359 195.911 727.656 194.135 727.656 192.312V187.812H731.188V192.312ZM744 213.812H740.5V185.531H744V213.812ZM770.438 192.344H774.375V195.25H770.438V202H766.969V185.531H770.438V192.344ZM762.562 187.188C762.562 189.635 762.047 191.833 761.016 193.781C759.984 195.719 758.479 197.37 756.5 198.734C754.531 200.089 752.135 201.125 749.312 201.844L747.875 199.188C750.052 198.625 751.922 197.891 753.484 196.984C755.057 196.068 756.292 195.021 757.188 193.844C758.083 192.656 758.63 191.375 758.828 190H749.281V187.188H762.562ZM770.438 213.781H766.969V205.969H751.625V203.188H770.438V213.781ZM798.156 197.188H802.125V200.094H798.156V213.781H794.656V185.531H798.156V197.188ZM775.469 205.938C778.552 205.938 780.958 205.917 782.688 205.875V203.234C781.667 203.057 780.771 202.734 780 202.266C779.24 201.797 778.651 201.208 778.234 200.5C777.818 199.781 777.615 198.99 777.625 198.125C777.615 197.073 777.896 196.146 778.469 195.344C779.042 194.542 779.849 193.922 780.891 193.484C781.932 193.036 783.125 192.812 784.469 192.812C785.792 192.812 786.969 193.036 788 193.484C789.042 193.922 789.854 194.542 790.438 195.344C791.031 196.146 791.333 197.073 791.344 198.125C791.333 199 791.115 199.792 790.688 200.5C790.26 201.208 789.656 201.802 788.875 202.281C788.104 202.75 787.208 203.068 786.188 203.234V205.75C788.885 205.604 791.208 205.396 793.156 205.125L793.375 207.656C790.688 208.135 787.938 208.448 785.125 208.594C782.312 208.74 779.26 208.812 775.969 208.812L775.469 205.938ZM792.844 191.531H776V188.781H782.688V185.656H786.188V188.781H792.844V191.531ZM784.469 195.469C783.375 195.49 782.505 195.734 781.859 196.203C781.224 196.661 780.906 197.302 780.906 198.125C780.906 198.938 781.229 199.573 781.875 200.031C782.521 200.49 783.385 200.708 784.469 200.688C785.542 200.708 786.396 200.49 787.031 200.031C787.677 199.562 788 198.927 788 198.125C788 197.312 787.677 196.672 787.031 196.203C786.396 195.734 785.542 195.49 784.469 195.469Z" fill="white"/>
<path d="M646.872 129.265H647.067L651.682 115.324H655.173L648.923 133H645.017L638.791 115.324H642.282L646.872 129.265ZM657.126 119.743H660.251V133H657.126V119.743ZM658.713 117.863C658.396 117.863 658.094 117.79 657.81 117.644C657.533 117.489 657.313 117.281 657.15 117.021C656.988 116.752 656.906 116.464 656.906 116.154C656.906 115.853 656.988 115.572 657.15 115.312C657.313 115.052 657.533 114.848 657.81 114.702C658.094 114.547 658.396 114.47 658.713 114.47C659.038 114.47 659.34 114.547 659.616 114.702C659.893 114.848 660.113 115.052 660.275 115.312C660.438 115.572 660.52 115.853 660.52 116.154C660.52 116.464 660.438 116.752 660.275 117.021C660.113 117.281 659.893 117.489 659.616 117.644C659.34 117.79 659.038 117.863 658.713 117.863ZM670.749 123.527C670.651 123.023 670.399 122.624 669.992 122.331C669.585 122.038 669.056 121.892 668.405 121.892C667.966 121.892 667.567 121.961 667.209 122.099C666.859 122.229 666.586 122.417 666.391 122.661C666.196 122.897 666.102 123.161 666.11 123.454C666.086 124.162 666.713 124.667 667.99 124.968L670.236 125.432C671.498 125.716 672.434 126.152 673.044 126.738C673.654 127.324 673.964 128.093 673.972 129.045C673.964 129.875 673.728 130.611 673.264 131.254C672.8 131.889 672.141 132.386 671.286 132.744C670.44 133.094 669.447 133.269 668.308 133.269C666.639 133.269 665.313 132.915 664.328 132.207C663.352 131.49 662.782 130.493 662.619 129.216H665.793C665.891 129.777 666.151 130.201 666.574 130.485C667.006 130.762 667.583 130.9 668.308 130.9C669.056 130.9 669.659 130.758 670.114 130.473C670.57 130.188 670.798 129.802 670.798 129.313C670.798 128.931 670.639 128.618 670.322 128.374C670.013 128.121 669.528 127.922 668.869 127.775L666.745 127.312C665.516 127.067 664.584 126.632 663.95 126.005C663.323 125.379 663.01 124.585 663.01 123.625C663.01 122.819 663.229 122.111 663.669 121.501C664.108 120.882 664.731 120.406 665.537 120.073C666.342 119.739 667.282 119.572 668.356 119.572C669.398 119.572 670.306 119.735 671.079 120.061C671.86 120.378 672.474 120.834 672.922 121.428C673.369 122.022 673.63 122.722 673.703 123.527H670.749ZM684.812 119.743H687.912V133H684.909V130.656H684.763C684.445 131.421 683.941 132.032 683.249 132.487C682.565 132.943 681.743 133.171 680.783 133.171C679.912 133.171 679.143 132.976 678.476 132.585C677.809 132.194 677.288 131.625 676.914 130.876C676.539 130.127 676.348 129.232 676.34 128.19V119.743H679.465V127.702C679.465 128.256 679.567 128.744 679.77 129.167C679.982 129.582 680.275 129.903 680.649 130.131C681.031 130.351 681.475 130.461 681.979 130.461C682.451 130.461 682.903 130.347 683.334 130.119C683.774 129.883 684.128 129.537 684.396 129.082C684.673 128.626 684.812 128.076 684.812 127.434V119.743ZM690.28 129.265C690.28 127.897 690.74 126.913 691.66 126.311C692.587 125.7 693.771 125.35 695.212 125.261C696.62 125.163 697.751 125.098 698.605 125.065V124.016C698.605 123.356 698.398 122.848 697.983 122.49C697.568 122.124 696.978 121.94 696.213 121.94C695.537 121.94 694.984 122.083 694.553 122.368C694.121 122.653 693.845 123.039 693.723 123.527H690.72C690.793 122.771 691.062 122.095 691.525 121.501C691.989 120.899 692.628 120.427 693.442 120.085C694.256 119.743 695.204 119.572 696.286 119.572C697.214 119.572 698.085 119.719 698.898 120.012C699.72 120.297 700.392 120.781 700.913 121.464C701.442 122.14 701.706 123.031 701.706 124.138V133H698.728V131.169H698.63C698.304 131.787 697.816 132.292 697.165 132.683C696.514 133.073 695.7 133.269 694.724 133.269C693.869 133.269 693.104 133.114 692.429 132.805C691.761 132.495 691.236 132.04 690.854 131.438C690.472 130.835 690.28 130.111 690.28 129.265ZM693.283 129.24C693.283 129.802 693.487 130.233 693.894 130.534C694.3 130.827 694.846 130.974 695.529 130.974C696.14 130.974 696.681 130.852 697.153 130.607C697.625 130.363 697.987 130.034 698.239 129.619C698.5 129.195 698.63 128.736 698.63 128.239L698.618 127.153C698.251 127.169 697.629 127.206 696.75 127.263C696.278 127.287 695.928 127.312 695.7 127.336C694.935 127.401 694.341 127.592 693.918 127.91C693.495 128.227 693.283 128.671 693.283 129.24ZM707.761 133H704.636V115.324H707.761V133ZM710.739 119.743H713.864V133H710.739V119.743ZM712.326 117.863C712.009 117.863 711.708 117.79 711.423 117.644C711.146 117.489 710.926 117.281 710.764 117.021C710.601 116.752 710.52 116.464 710.52 116.154C710.52 115.853 710.601 115.572 710.764 115.312C710.926 115.052 711.146 114.848 711.423 114.702C711.708 114.547 712.009 114.47 712.326 114.47C712.652 114.47 712.953 114.547 713.229 114.702C713.506 114.848 713.726 115.052 713.889 115.312C714.051 115.572 714.133 115.853 714.133 116.154C714.133 116.464 714.051 116.752 713.889 117.021C713.726 117.281 713.506 117.489 713.229 117.644C712.953 117.79 712.652 117.863 712.326 117.863ZM716.672 131.022L723.508 122.429V122.307H716.892V119.743H727.316V121.867L720.798 130.314V130.437H727.561V133H716.672V131.022ZM729.636 129.265C729.636 127.897 730.096 126.913 731.015 126.311C731.943 125.7 733.127 125.35 734.567 125.261C735.975 125.163 737.106 125.098 737.961 125.065V124.016C737.961 123.356 737.753 122.848 737.338 122.49C736.923 122.124 736.333 121.94 735.568 121.94C734.893 121.94 734.34 122.083 733.908 122.368C733.477 122.653 733.2 123.039 733.078 123.527H730.075C730.148 122.771 730.417 122.095 730.881 121.501C731.345 120.899 731.984 120.427 732.797 120.085C733.611 119.743 734.559 119.572 735.642 119.572C736.569 119.572 737.44 119.719 738.254 120.012C739.076 120.297 739.747 120.781 740.268 121.464C740.797 122.14 741.062 123.031 741.062 124.138V133H738.083V131.169H737.985C737.66 131.787 737.172 132.292 736.521 132.683C735.869 133.073 735.056 133.269 734.079 133.269C733.225 133.269 732.46 133.114 731.784 132.805C731.117 132.495 730.592 132.04 730.209 131.438C729.827 130.835 729.636 130.111 729.636 129.265ZM732.639 129.24C732.639 129.802 732.842 130.233 733.249 130.534C733.656 130.827 734.201 130.974 734.885 130.974C735.495 130.974 736.036 130.852 736.508 130.607C736.98 130.363 737.342 130.034 737.595 129.619C737.855 129.195 737.985 128.736 737.985 128.239L737.973 127.153C737.607 127.169 736.984 127.206 736.105 127.263C735.633 127.287 735.284 127.312 735.056 127.336C734.291 127.401 733.697 127.592 733.273 127.91C732.85 128.227 732.639 128.671 732.639 129.24ZM750.607 122.136H747.995V129.021C747.995 129.606 748.117 130.009 748.361 130.229C748.614 130.449 748.964 130.559 749.411 130.559C749.802 130.559 750.257 130.542 750.778 130.51V133.049C750.371 133.13 749.785 133.171 749.021 133.171C748.215 133.171 747.499 133.041 746.872 132.78C746.254 132.512 745.765 132.105 745.407 131.56C745.057 131.014 744.886 130.339 744.895 129.533V122.136H742.99V119.743H744.895V116.569H747.995V119.743H750.607V122.136ZM753 119.743H756.125V133H753V119.743ZM754.587 117.863C754.27 117.863 753.968 117.79 753.684 117.644C753.407 117.489 753.187 117.281 753.024 117.021C752.862 116.752 752.78 116.464 752.78 116.154C752.78 115.853 752.862 115.572 753.024 115.312C753.187 115.052 753.407 114.848 753.684 114.702C753.968 114.547 754.27 114.47 754.587 114.47C754.912 114.47 755.214 114.547 755.49 114.702C755.767 114.848 755.987 115.052 756.149 115.312C756.312 115.572 756.394 115.853 756.394 116.154C756.394 116.464 756.312 116.752 756.149 117.021C755.987 117.281 755.767 117.489 755.49 117.644C755.214 117.79 754.912 117.863 754.587 117.863ZM764.89 133.269C763.62 133.269 762.505 132.984 761.545 132.414C760.585 131.844 759.844 131.047 759.323 130.021C758.802 128.988 758.542 127.792 758.542 126.433C758.542 125.065 758.802 123.865 759.323 122.832C759.844 121.798 760.585 120.996 761.545 120.427C762.505 119.857 763.62 119.572 764.89 119.572C766.167 119.572 767.286 119.857 768.247 120.427C769.207 120.996 769.943 121.798 770.456 122.832C770.977 123.865 771.237 125.065 771.237 126.433C771.237 127.792 770.977 128.988 770.456 130.021C769.935 131.055 769.195 131.857 768.234 132.426C767.282 132.988 766.167 133.269 764.89 133.269ZM764.914 130.778C765.598 130.778 766.175 130.587 766.647 130.205C767.128 129.822 767.486 129.301 767.722 128.642C767.966 127.983 768.088 127.238 768.088 126.408C768.088 125.586 767.966 124.846 767.722 124.187C767.486 123.519 767.128 122.994 766.647 122.612C766.175 122.229 765.598 122.038 764.914 122.038C764.214 122.038 763.62 122.229 763.132 122.612C762.652 122.994 762.29 123.515 762.045 124.174C761.809 124.833 761.691 125.578 761.691 126.408C761.691 127.238 761.809 127.983 762.045 128.642C762.29 129.301 762.652 129.822 763.132 130.205C763.62 130.587 764.214 130.778 764.914 130.778ZM776.779 133H773.654V119.743H776.633V121.989H776.804C777.113 121.224 777.601 120.63 778.269 120.207C778.944 119.784 779.766 119.572 780.734 119.572C781.654 119.572 782.456 119.768 783.139 120.158C783.831 120.549 784.36 121.118 784.726 121.867C785.1 122.616 785.284 123.511 785.275 124.553V133H782.175V125.041C782.175 124.146 781.947 123.45 781.491 122.954C781.035 122.457 780.401 122.209 779.587 122.209C779.034 122.209 778.545 122.331 778.122 122.575C777.699 122.811 777.369 123.157 777.133 123.613C776.897 124.06 776.779 124.602 776.779 125.236V133ZM682.26 163.269C680.991 163.269 679.876 162.984 678.916 162.414C677.955 161.844 677.215 161.047 676.694 160.021C676.173 158.988 675.913 157.792 675.913 156.433C675.913 155.065 676.173 153.865 676.694 152.832C677.215 151.798 677.955 150.996 678.916 150.427C679.876 149.857 680.991 149.572 682.26 149.572C683.538 149.572 684.657 149.857 685.617 150.427C686.577 150.996 687.314 151.798 687.827 152.832C688.347 153.865 688.608 155.065 688.608 156.433C688.608 157.792 688.347 158.988 687.827 160.021C687.306 161.055 686.565 161.857 685.605 162.426C684.653 162.988 683.538 163.269 682.26 163.269ZM682.285 160.778C682.968 160.778 683.546 160.587 684.018 160.205C684.498 159.822 684.856 159.301 685.092 158.642C685.336 157.983 685.458 157.238 685.458 156.408C685.458 155.586 685.336 154.846 685.092 154.187C684.856 153.519 684.498 152.994 684.018 152.612C683.546 152.229 682.968 152.038 682.285 152.038C681.585 152.038 680.991 152.229 680.502 152.612C680.022 152.994 679.66 153.515 679.416 154.174C679.18 154.833 679.062 155.578 679.062 156.408C679.062 157.238 679.18 157.983 679.416 158.642C679.66 159.301 680.022 159.822 680.502 160.205C680.991 160.587 681.585 160.778 682.285 160.778ZM697.739 152.136H695.004V163H691.879V152.136H689.902V149.743H691.879V148.474C691.879 147.196 692.25 146.215 692.99 145.532C693.731 144.84 694.744 144.494 696.03 144.494C696.722 144.494 697.381 144.559 698.007 144.689V147.155C697.552 147.09 697.177 147.058 696.884 147.058C696.241 147.058 695.765 147.196 695.456 147.473C695.155 147.741 695.004 148.173 695.004 148.767V149.743H697.739V152.136ZM710.825 163.244C709.775 163.244 708.835 162.976 708.005 162.438C707.183 161.893 706.536 161.104 706.064 160.07C705.592 159.037 705.356 157.808 705.356 156.384C705.356 154.951 705.596 153.723 706.076 152.697C706.556 151.672 707.211 150.895 708.042 150.366C708.872 149.837 709.807 149.572 710.849 149.572C712.607 149.572 713.868 150.354 714.633 151.916H714.755V145.324H717.856V163H714.804V160.9H714.633C713.852 162.463 712.583 163.244 710.825 163.244ZM711.679 160.681C712.338 160.681 712.904 160.502 713.376 160.144C713.848 159.785 714.206 159.281 714.45 158.63C714.702 157.979 714.829 157.222 714.829 156.359C714.829 155.505 714.707 154.76 714.462 154.125C714.218 153.483 713.86 152.986 713.388 152.636C712.916 152.286 712.347 152.111 711.679 152.111C711.004 152.111 710.43 152.29 709.958 152.648C709.486 153.007 709.128 153.507 708.884 154.15C708.648 154.793 708.53 155.529 708.53 156.359C708.53 157.206 708.652 157.954 708.896 158.605C709.14 159.257 709.498 159.765 709.97 160.131C710.442 160.498 711.012 160.681 711.679 160.681ZM720.395 159.265C720.395 157.897 720.855 156.913 721.774 156.311C722.702 155.7 723.886 155.35 725.327 155.261C726.735 155.163 727.866 155.098 728.72 155.065V154.016C728.72 153.356 728.513 152.848 728.098 152.49C727.683 152.124 727.093 151.94 726.328 151.94C725.652 151.94 725.099 152.083 724.667 152.368C724.236 152.653 723.959 153.039 723.837 153.527H720.834C720.908 152.771 721.176 152.095 721.64 151.501C722.104 150.899 722.743 150.427 723.557 150.085C724.37 149.743 725.319 149.572 726.401 149.572C727.329 149.572 728.199 149.719 729.013 150.012C729.835 150.297 730.507 150.781 731.027 151.464C731.556 152.14 731.821 153.031 731.821 154.138V163H728.842V161.169H728.745C728.419 161.787 727.931 162.292 727.28 162.683C726.629 163.073 725.815 163.269 724.838 163.269C723.984 163.269 723.219 163.114 722.543 162.805C721.876 162.495 721.351 162.04 720.969 161.438C720.586 160.835 720.395 160.111 720.395 159.265ZM723.398 159.24C723.398 159.802 723.601 160.233 724.008 160.534C724.415 160.827 724.96 160.974 725.644 160.974C726.254 160.974 726.796 160.852 727.268 160.607C727.74 160.363 728.102 160.034 728.354 159.619C728.614 159.195 728.745 158.736 728.745 158.239L728.732 157.153C728.366 157.169 727.744 157.206 726.865 157.263C726.393 157.287 726.043 157.312 725.815 157.336C725.05 157.401 724.456 157.592 724.033 157.91C723.61 158.227 723.398 158.671 723.398 159.24ZM741.367 152.136H738.754V159.021C738.754 159.606 738.876 160.009 739.121 160.229C739.373 160.449 739.723 160.559 740.17 160.559C740.561 160.559 741.017 160.542 741.538 160.51V163.049C741.131 163.13 740.545 163.171 739.78 163.171C738.974 163.171 738.258 163.041 737.631 162.78C737.013 162.512 736.525 162.105 736.167 161.56C735.817 161.014 735.646 160.339 735.654 159.533V152.136H733.75V149.743H735.654V146.569H738.754V149.743H741.367V152.136ZM743.149 159.265C743.149 157.897 743.609 156.913 744.528 156.311C745.456 155.7 746.64 155.35 748.081 155.261C749.488 155.163 750.62 155.098 751.474 155.065V154.016C751.474 153.356 751.267 152.848 750.852 152.49C750.437 152.124 749.847 151.94 749.082 151.94C748.406 151.94 747.853 152.083 747.421 152.368C746.99 152.653 746.713 153.039 746.591 153.527H743.588C743.662 152.771 743.93 152.095 744.394 151.501C744.858 150.899 745.497 150.427 746.311 150.085C747.124 149.743 748.072 149.572 749.155 149.572C750.083 149.572 750.953 149.719 751.767 150.012C752.589 150.297 753.26 150.781 753.781 151.464C754.31 152.14 754.575 153.031 754.575 154.138V163H751.596V161.169H751.499C751.173 161.787 750.685 162.292 750.034 162.683C749.383 163.073 748.569 163.269 747.592 163.269C746.738 163.269 745.973 163.114 745.297 162.805C744.63 162.495 744.105 162.04 743.723 161.438C743.34 160.835 743.149 160.111 743.149 159.265ZM746.152 159.24C746.152 159.802 746.355 160.233 746.762 160.534C747.169 160.827 747.714 160.974 748.398 160.974C749.008 160.974 749.549 160.852 750.021 160.607C750.493 160.363 750.856 160.034 751.108 159.619C751.368 159.195 751.499 158.736 751.499 158.239L751.486 157.153C751.12 157.169 750.498 157.206 749.619 157.263C749.147 157.287 748.797 157.312 748.569 157.336C747.804 157.401 747.21 157.592 746.787 157.91C746.363 158.227 746.152 158.671 746.152 159.24Z" fill="#00F0FF" fill-opacity="0.8"/>
<path d="M113.336 130.324V141.872C113.336 143.125 113.035 144.236 112.433 145.205C111.839 146.173 110.996 146.926 109.906 147.463C108.823 148 107.574 148.269 106.158 148.269C104.734 148.269 103.477 148 102.386 147.463C101.304 146.926 100.466 146.173 99.8716 145.205C99.2775 144.236 98.9805 143.125 98.9805 141.872V130.324H102.154V141.604C102.154 142.344 102.317 143.003 102.643 143.581C102.976 144.159 103.444 144.615 104.046 144.948C104.657 145.274 105.361 145.437 106.158 145.437C106.956 145.437 107.656 145.274 108.258 144.948C108.86 144.623 109.324 144.171 109.649 143.593C109.975 143.007 110.138 142.344 110.138 141.604V130.324H113.336ZM119.586 148H116.461V134.743H119.439V136.989H119.61C119.92 136.224 120.408 135.63 121.075 135.207C121.751 134.784 122.573 134.572 123.541 134.572C124.461 134.572 125.262 134.768 125.946 135.158C126.638 135.549 127.167 136.118 127.533 136.867C127.907 137.616 128.09 138.511 128.082 139.553V148H124.981V140.041C124.981 139.146 124.754 138.45 124.298 137.954C123.842 137.457 123.207 137.209 122.394 137.209C121.84 137.209 121.352 137.331 120.929 137.575C120.506 137.811 120.176 138.157 119.94 138.613C119.704 139.06 119.586 139.602 119.586 140.236V148ZM131.061 134.743H134.186V148H131.061V134.743ZM132.647 132.863C132.33 132.863 132.029 132.79 131.744 132.644C131.467 132.489 131.248 132.281 131.085 132.021C130.922 131.752 130.841 131.464 130.841 131.154C130.841 130.853 130.922 130.572 131.085 130.312C131.248 130.052 131.467 129.848 131.744 129.702C132.029 129.547 132.33 129.47 132.647 129.47C132.973 129.47 133.274 129.547 133.551 129.702C133.827 129.848 134.047 130.052 134.21 130.312C134.373 130.572 134.454 130.853 134.454 131.154C134.454 131.464 134.373 131.752 134.21 132.021C134.047 132.281 133.827 132.489 133.551 132.644C133.274 132.79 132.973 132.863 132.647 132.863ZM146.026 145.9H145.904C145.123 147.463 143.854 148.244 142.096 148.244C141.046 148.244 140.106 147.976 139.276 147.438C138.454 146.893 137.807 146.104 137.335 145.07C136.863 144.037 136.627 142.808 136.627 141.384C136.627 139.951 136.867 138.723 137.347 137.697C137.827 136.672 138.482 135.895 139.312 135.366C140.143 134.837 141.078 134.572 142.12 134.572C143.878 134.572 145.139 135.354 145.904 136.916H146.075V134.743H149.127V152.98H146.026V145.9ZM142.95 145.681C143.609 145.681 144.175 145.502 144.647 145.144C145.119 144.785 145.477 144.281 145.721 143.63C145.973 142.979 146.1 142.222 146.1 141.359C146.1 140.505 145.978 139.76 145.733 139.125C145.489 138.483 145.131 137.986 144.659 137.636C144.187 137.286 143.618 137.111 142.95 137.111C142.275 137.111 141.701 137.29 141.229 137.648C140.757 138.007 140.399 138.507 140.155 139.15C139.919 139.793 139.801 140.529 139.801 141.359C139.801 142.206 139.923 142.954 140.167 143.605C140.411 144.257 140.769 144.765 141.241 145.131C141.713 145.498 142.283 145.681 142.95 145.681ZM160.602 134.743H163.702V148H160.699V145.656H160.553C160.235 146.421 159.731 147.032 159.039 147.487C158.355 147.943 157.534 148.171 156.573 148.171C155.702 148.171 154.933 147.976 154.266 147.585C153.599 147.194 153.078 146.625 152.704 145.876C152.329 145.127 152.138 144.232 152.13 143.19V134.743H155.255V142.702C155.255 143.256 155.357 143.744 155.56 144.167C155.772 144.582 156.065 144.903 156.439 145.131C156.821 145.351 157.265 145.461 157.77 145.461C158.242 145.461 158.693 145.347 159.125 145.119C159.564 144.883 159.918 144.537 160.187 144.082C160.463 143.626 160.602 143.076 160.602 142.434V134.743ZM172.564 148.269C171.246 148.269 170.099 147.992 169.122 147.438C168.154 146.877 167.409 146.083 166.888 145.058C166.375 144.033 166.119 142.832 166.119 141.457C166.119 140.098 166.38 138.902 166.9 137.868C167.421 136.826 168.154 136.017 169.098 135.439C170.05 134.861 171.148 134.572 172.394 134.572C173.517 134.572 174.534 134.812 175.445 135.292C176.365 135.773 177.093 136.517 177.63 137.526C178.176 138.527 178.448 139.772 178.448 141.262V142.238H169.195C169.203 142.979 169.35 143.622 169.635 144.167C169.92 144.704 170.314 145.115 170.819 145.4C171.323 145.685 171.913 145.827 172.589 145.827C173.248 145.827 173.81 145.701 174.273 145.449C174.737 145.196 175.071 144.867 175.274 144.46H178.326C178.139 145.225 177.785 145.896 177.264 146.474C176.743 147.044 176.08 147.487 175.274 147.805C174.477 148.114 173.574 148.269 172.564 148.269ZM175.47 140.114C175.462 139.512 175.331 138.975 175.079 138.503C174.827 138.031 174.473 137.661 174.017 137.392C173.561 137.124 173.036 136.989 172.442 136.989C171.832 136.989 171.287 137.132 170.807 137.417C170.335 137.693 169.96 138.072 169.684 138.552C169.407 139.024 169.248 139.545 169.208 140.114H175.47ZM186.944 148V130.324H193.048C194.798 130.324 196.307 130.678 197.577 131.386C198.846 132.086 199.819 133.099 200.494 134.426C201.178 135.752 201.52 137.323 201.52 139.138C201.52 140.969 201.178 142.552 200.494 143.886C199.811 145.213 198.826 146.23 197.54 146.938C196.254 147.646 194.724 148 192.95 148H186.944ZM192.779 145.241C194.627 145.241 196.014 144.733 196.942 143.715C197.878 142.698 198.346 141.172 198.346 139.138C198.346 137.119 197.886 135.606 196.966 134.597C196.047 133.588 194.684 133.083 192.877 133.083H190.118V145.241H192.779ZM210.064 148.269C208.746 148.269 207.599 147.992 206.622 147.438C205.654 146.877 204.909 146.083 204.388 145.058C203.875 144.033 203.619 142.832 203.619 141.457C203.619 140.098 203.88 138.902 204.4 137.868C204.921 136.826 205.654 136.017 206.598 135.439C207.55 134.861 208.648 134.572 209.894 134.572C211.017 134.572 212.034 134.812 212.945 135.292C213.865 135.773 214.593 136.517 215.13 137.526C215.676 138.527 215.948 139.772 215.948 141.262V142.238H206.695C206.703 142.979 206.85 143.622 207.135 144.167C207.42 144.704 207.814 145.115 208.319 145.4C208.823 145.685 209.413 145.827 210.089 145.827C210.748 145.827 211.31 145.701 211.773 145.449C212.237 145.196 212.571 144.867 212.774 144.46H215.826C215.639 145.225 215.285 145.896 214.764 146.474C214.243 147.044 213.58 147.487 212.774 147.805C211.977 148.114 211.074 148.269 210.064 148.269ZM212.97 140.114C212.962 139.512 212.831 138.975 212.579 138.503C212.327 138.031 211.973 137.661 211.517 137.392C211.061 137.124 210.536 136.989 209.942 136.989C209.332 136.989 208.787 137.132 208.307 137.417C207.835 137.693 207.46 138.072 207.184 138.552C206.907 139.024 206.748 139.545 206.708 140.114H212.97ZM225.885 138.527C225.787 138.023 225.535 137.624 225.128 137.331C224.721 137.038 224.192 136.892 223.541 136.892C223.102 136.892 222.703 136.961 222.345 137.099C221.995 137.229 221.722 137.417 221.527 137.661C221.332 137.897 221.238 138.161 221.246 138.454C221.222 139.162 221.848 139.667 223.126 139.968L225.372 140.432C226.633 140.716 227.569 141.152 228.18 141.738C228.79 142.324 229.099 143.093 229.107 144.045C229.099 144.875 228.863 145.611 228.399 146.254C227.936 146.889 227.276 147.386 226.422 147.744C225.576 148.094 224.583 148.269 223.443 148.269C221.775 148.269 220.449 147.915 219.464 147.207C218.487 146.49 217.918 145.493 217.755 144.216H220.929C221.026 144.777 221.287 145.201 221.71 145.485C222.141 145.762 222.719 145.9 223.443 145.9C224.192 145.9 224.794 145.758 225.25 145.473C225.706 145.188 225.934 144.802 225.934 144.313C225.934 143.931 225.775 143.618 225.458 143.374C225.148 143.121 224.664 142.922 224.005 142.775L221.881 142.312C220.652 142.067 219.72 141.632 219.085 141.005C218.459 140.379 218.146 139.585 218.146 138.625C218.146 137.819 218.365 137.111 218.805 136.501C219.244 135.882 219.867 135.406 220.672 135.073C221.478 134.739 222.418 134.572 223.492 134.572C224.534 134.572 225.441 134.735 226.214 135.061C226.996 135.378 227.61 135.834 228.058 136.428C228.505 137.022 228.766 137.722 228.839 138.527H225.885ZM231.476 134.743H234.601V148H231.476V134.743ZM233.062 132.863C232.745 132.863 232.444 132.79 232.159 132.644C231.882 132.489 231.663 132.281 231.5 132.021C231.337 131.752 231.256 131.464 231.256 131.154C231.256 130.853 231.337 130.572 231.5 130.312C231.663 130.052 231.882 129.848 232.159 129.702C232.444 129.547 232.745 129.47 233.062 129.47C233.388 129.47 233.689 129.547 233.966 129.702C234.243 129.848 234.462 130.052 234.625 130.312C234.788 130.572 234.869 130.853 234.869 131.154C234.869 131.464 234.788 131.752 234.625 132.021C234.462 132.281 234.243 132.489 233.966 132.644C233.689 132.79 233.388 132.863 233.062 132.863ZM243.365 153.249C242.201 153.249 241.184 153.082 240.313 152.749C239.451 152.423 238.767 151.955 238.263 151.345C237.766 150.743 237.481 150.026 237.408 149.196H240.509C240.615 149.758 240.92 150.181 241.424 150.466C241.937 150.759 242.6 150.905 243.414 150.905C244.382 150.905 245.135 150.681 245.672 150.234C246.218 149.786 246.49 149.09 246.49 148.146V145.607H246.344C246.035 146.218 245.575 146.739 244.964 147.17C244.362 147.593 243.544 147.805 242.511 147.805C241.477 147.805 240.545 147.556 239.715 147.06C238.885 146.556 238.23 145.815 237.75 144.838C237.278 143.854 237.042 142.661 237.042 141.262C237.042 139.846 237.282 138.637 237.762 137.636C238.242 136.627 238.897 135.866 239.728 135.354C240.558 134.833 241.493 134.572 242.535 134.572C243.569 134.572 244.378 134.8 244.964 135.256C245.55 135.712 246.01 136.265 246.344 136.916H246.49V134.743H249.566V148.22C249.566 149.318 249.302 150.242 248.773 150.991C248.252 151.748 247.524 152.313 246.588 152.688C245.66 153.062 244.586 153.249 243.365 153.249ZM243.365 145.363C244.366 145.363 245.139 145.009 245.685 144.301C246.238 143.585 246.515 142.588 246.515 141.311C246.515 140.472 246.393 139.736 246.148 139.101C245.904 138.466 245.546 137.978 245.074 137.636C244.602 137.286 244.033 137.111 243.365 137.111C242.69 137.111 242.116 137.29 241.644 137.648C241.172 138.007 240.814 138.503 240.57 139.138C240.334 139.772 240.216 140.497 240.216 141.311C240.216 142.556 240.488 143.544 241.034 144.277C241.579 145.001 242.356 145.363 243.365 145.363ZM255.67 148H252.545V134.743H255.523V136.989H255.694C256.004 136.224 256.492 135.63 257.159 135.207C257.835 134.784 258.657 134.572 259.625 134.572C260.545 134.572 261.346 134.768 262.03 135.158C262.722 135.549 263.25 136.118 263.617 136.867C263.991 137.616 264.174 138.511 264.166 139.553V148H261.065V140.041C261.065 139.146 260.838 138.45 260.382 137.954C259.926 137.457 259.291 137.209 258.478 137.209C257.924 137.209 257.436 137.331 257.013 137.575C256.59 137.811 256.26 138.157 256.024 138.613C255.788 139.06 255.67 139.602 255.67 140.236V148Z" fill="#00F0FF" fill-opacity="0.8"/>
<path d="M354.984 130.324L360.233 143.166H360.453L365.702 130.324H369.608V148H366.557V135.842H366.386L361.479 147.951H359.208L354.301 135.793H354.154V148H351.078V130.324H354.984ZM378.52 148.269C377.25 148.269 376.135 147.984 375.175 147.414C374.215 146.844 373.474 146.047 372.953 145.021C372.432 143.988 372.172 142.792 372.172 141.433C372.172 140.065 372.432 138.865 372.953 137.832C373.474 136.798 374.215 135.996 375.175 135.427C376.135 134.857 377.25 134.572 378.52 134.572C379.797 134.572 380.916 134.857 381.876 135.427C382.837 135.996 383.573 136.798 384.086 137.832C384.607 138.865 384.867 140.065 384.867 141.433C384.867 142.792 384.607 143.988 384.086 145.021C383.565 146.055 382.825 146.857 381.864 147.426C380.912 147.988 379.797 148.269 378.52 148.269ZM378.544 145.778C379.228 145.778 379.805 145.587 380.277 145.205C380.757 144.822 381.116 144.301 381.352 143.642C381.596 142.983 381.718 142.238 381.718 141.408C381.718 140.586 381.596 139.846 381.352 139.187C381.116 138.519 380.757 137.994 380.277 137.612C379.805 137.229 379.228 137.038 378.544 137.038C377.844 137.038 377.25 137.229 376.762 137.612C376.282 137.994 375.919 138.515 375.675 139.174C375.439 139.833 375.321 140.578 375.321 141.408C375.321 142.238 375.439 142.983 375.675 143.642C375.919 144.301 376.282 144.822 376.762 145.205C377.25 145.587 377.844 145.778 378.544 145.778ZM393.9 137.136H391.288V144.021C391.288 144.606 391.41 145.009 391.654 145.229C391.907 145.449 392.257 145.559 392.704 145.559C393.095 145.559 393.55 145.542 394.071 145.51V148.049C393.664 148.13 393.078 148.171 392.313 148.171C391.508 148.171 390.792 148.041 390.165 147.78C389.547 147.512 389.058 147.105 388.7 146.56C388.35 146.014 388.179 145.339 388.188 144.533V137.136H386.283V134.743H388.188V131.569H391.288V134.743H393.9V137.136ZM396.293 134.743H399.418V148H396.293V134.743ZM397.88 132.863C397.562 132.863 397.261 132.79 396.977 132.644C396.7 132.489 396.48 132.281 396.317 132.021C396.155 131.752 396.073 131.464 396.073 131.154C396.073 130.853 396.155 130.572 396.317 130.312C396.48 130.052 396.7 129.848 396.977 129.702C397.261 129.547 397.562 129.47 397.88 129.47C398.205 129.47 398.507 129.547 398.783 129.702C399.06 129.848 399.28 130.052 399.442 130.312C399.605 130.572 399.687 130.853 399.687 131.154C399.687 131.464 399.605 131.752 399.442 132.021C399.28 132.281 399.06 132.489 398.783 132.644C398.507 132.79 398.205 132.863 397.88 132.863ZM408.183 148.269C406.913 148.269 405.798 147.984 404.838 147.414C403.878 146.844 403.137 146.047 402.616 145.021C402.095 143.988 401.835 142.792 401.835 141.433C401.835 140.065 402.095 138.865 402.616 137.832C403.137 136.798 403.878 135.996 404.838 135.427C405.798 134.857 406.913 134.572 408.183 134.572C409.46 134.572 410.579 134.857 411.54 135.427C412.5 135.996 413.236 136.798 413.749 137.832C414.27 138.865 414.53 140.065 414.53 141.433C414.53 142.792 414.27 143.988 413.749 145.021C413.228 146.055 412.488 146.857 411.527 147.426C410.575 147.988 409.46 148.269 408.183 148.269ZM408.207 145.778C408.891 145.778 409.468 145.587 409.94 145.205C410.421 144.822 410.779 144.301 411.015 143.642C411.259 142.983 411.381 142.238 411.381 141.408C411.381 140.586 411.259 139.846 411.015 139.187C410.779 138.519 410.421 137.994 409.94 137.612C409.468 137.229 408.891 137.038 408.207 137.038C407.507 137.038 406.913 137.229 406.425 137.612C405.945 137.994 405.583 138.515 405.338 139.174C405.102 139.833 404.984 140.578 404.984 141.408C404.984 142.238 405.102 142.983 405.338 143.642C405.583 144.301 405.945 144.822 406.425 145.205C406.913 145.587 407.507 145.778 408.207 145.778ZM420.072 148H416.947V134.743H419.926V136.989H420.097C420.406 136.224 420.894 135.63 421.562 135.207C422.237 134.784 423.059 134.572 424.027 134.572C424.947 134.572 425.749 134.768 426.432 135.158C427.124 135.549 427.653 136.118 428.019 136.867C428.393 137.616 428.576 138.511 428.568 139.553V148H425.468V140.041C425.468 139.146 425.24 138.45 424.784 137.954C424.328 137.457 423.694 137.209 422.88 137.209C422.326 137.209 421.838 137.331 421.415 137.575C420.992 137.811 420.662 138.157 420.426 138.613C420.19 139.06 420.072 139.602 420.072 140.236V148ZM449.54 136.281C449.418 135.59 449.162 134.991 448.771 134.487C448.38 133.982 447.884 133.6 447.282 133.339C446.688 133.071 446.033 132.937 445.316 132.937C444.34 132.937 443.481 133.181 442.741 133.669C442 134.149 441.422 134.857 441.007 135.793C440.592 136.729 440.385 137.852 440.385 139.162C440.385 140.48 440.592 141.608 441.007 142.543C441.422 143.479 442 144.187 442.741 144.667C443.489 145.148 444.348 145.388 445.316 145.388C446.016 145.388 446.659 145.262 447.245 145.009C447.839 144.749 448.336 144.375 448.734 143.886C449.133 143.398 449.402 142.816 449.54 142.141H452.738C452.576 143.28 452.165 144.313 451.505 145.241C450.854 146.169 449.992 146.901 448.917 147.438C447.843 147.976 446.627 148.244 445.268 148.244C443.713 148.244 442.322 147.882 441.093 147.158C439.872 146.425 438.916 145.375 438.224 144.008C437.532 142.633 437.187 141.018 437.187 139.162C437.187 137.299 437.532 135.683 438.224 134.316C438.924 132.949 439.884 131.903 441.105 131.179C442.334 130.446 443.721 130.08 445.268 130.08C446.57 130.08 447.754 130.328 448.82 130.825C449.886 131.313 450.761 132.025 451.444 132.961C452.128 133.889 452.559 134.995 452.738 136.281H449.54ZM461.112 148.269C459.843 148.269 458.728 147.984 457.768 147.414C456.807 146.844 456.067 146.047 455.546 145.021C455.025 143.988 454.765 142.792 454.765 141.433C454.765 140.065 455.025 138.865 455.546 137.832C456.067 136.798 456.807 135.996 457.768 135.427C458.728 134.857 459.843 134.572 461.112 134.572C462.39 134.572 463.509 134.857 464.469 135.427C465.43 135.996 466.166 136.798 466.679 137.832C467.2 138.865 467.46 140.065 467.46 141.433C467.46 142.792 467.2 143.988 466.679 145.021C466.158 146.055 465.417 146.857 464.457 147.426C463.505 147.988 462.39 148.269 461.112 148.269ZM461.137 145.778C461.82 145.778 462.398 145.587 462.87 145.205C463.35 144.822 463.708 144.301 463.944 143.642C464.188 142.983 464.311 142.238 464.311 141.408C464.311 140.586 464.188 139.846 463.944 139.187C463.708 138.519 463.35 137.994 462.87 137.612C462.398 137.229 461.82 137.038 461.137 137.038C460.437 137.038 459.843 137.229 459.354 137.612C458.874 137.994 458.512 138.515 458.268 139.174C458.032 139.833 457.914 140.578 457.914 141.408C457.914 142.238 458.032 142.983 458.268 143.642C458.512 144.301 458.874 144.822 459.354 145.205C459.843 145.587 460.437 145.778 461.137 145.778ZM473.002 148H469.877V134.743H472.855V136.989H473.026C473.336 136.224 473.824 135.63 474.491 135.207C475.167 134.784 475.989 134.572 476.957 134.572C477.877 134.572 478.678 134.768 479.362 135.158C480.054 135.549 480.583 136.118 480.949 136.867C481.323 137.616 481.506 138.511 481.498 139.553V148H478.397V140.041C478.397 139.146 478.17 138.45 477.714 137.954C477.258 137.457 476.623 137.209 475.81 137.209C475.256 137.209 474.768 137.331 474.345 137.575C473.922 137.811 473.592 138.157 473.356 138.613C473.12 139.06 473.002 139.602 473.002 140.236V148ZM491.093 137.136H488.48V144.021C488.48 144.606 488.603 145.009 488.847 145.229C489.099 145.449 489.449 145.559 489.896 145.559C490.287 145.559 490.743 145.542 491.264 145.51V148.049C490.857 148.13 490.271 148.171 489.506 148.171C488.7 148.171 487.984 148.041 487.357 147.78C486.739 147.512 486.251 147.105 485.893 146.56C485.543 146.014 485.372 145.339 485.38 144.533V137.136H483.476V134.743H485.38V131.569H488.48V134.743H491.093V137.136ZM499.223 148.269C497.904 148.269 496.757 147.992 495.78 147.438C494.812 146.877 494.067 146.083 493.546 145.058C493.034 144.033 492.777 142.832 492.777 141.457C492.777 140.098 493.038 138.902 493.559 137.868C494.079 136.826 494.812 136.017 495.756 135.439C496.708 134.861 497.807 134.572 499.052 134.572C500.175 134.572 501.192 134.812 502.104 135.292C503.023 135.773 503.751 136.517 504.289 137.526C504.834 138.527 505.106 139.772 505.106 141.262V142.238H495.854C495.862 142.979 496.008 143.622 496.293 144.167C496.578 144.704 496.972 145.115 497.477 145.4C497.982 145.685 498.572 145.827 499.247 145.827C499.906 145.827 500.468 145.701 500.932 145.449C501.396 145.196 501.729 144.867 501.933 144.46H504.984C504.797 145.225 504.443 145.896 503.922 146.474C503.402 147.044 502.738 147.487 501.933 147.805C501.135 148.114 500.232 148.269 499.223 148.269ZM502.128 140.114C502.12 139.512 501.99 138.975 501.737 138.503C501.485 138.031 501.131 137.661 500.675 137.392C500.22 137.124 499.695 136.989 499.101 136.989C498.49 136.989 497.945 137.132 497.465 137.417C496.993 137.693 496.618 138.072 496.342 138.552C496.065 139.024 495.906 139.545 495.866 140.114H502.128ZM510.648 148H507.523V134.743H510.502V136.989H510.673C510.982 136.224 511.47 135.63 512.138 135.207C512.813 134.784 513.635 134.572 514.604 134.572C515.523 134.572 516.325 134.768 517.008 135.158C517.7 135.549 518.229 136.118 518.595 136.867C518.97 137.616 519.153 138.511 519.145 139.553V148H516.044V140.041C516.044 139.146 515.816 138.45 515.36 137.954C514.905 137.457 514.27 137.209 513.456 137.209C512.903 137.209 512.414 137.331 511.991 137.575C511.568 137.811 511.238 138.157 511.002 138.613C510.766 139.06 510.648 139.602 510.648 140.236V148ZM528.739 137.136H526.127V144.021C526.127 144.606 526.249 145.009 526.493 145.229C526.745 145.449 527.095 145.559 527.543 145.559C527.934 145.559 528.389 145.542 528.91 145.51V148.049C528.503 148.13 527.917 148.171 527.152 148.171C526.347 148.171 525.631 148.041 525.004 147.78C524.385 147.512 523.897 147.105 523.539 146.56C523.189 146.014 523.018 145.339 523.026 144.533V137.136H521.122V134.743H523.026V131.569H526.127V134.743H528.739V137.136ZM538.456 138.527C538.358 138.023 538.106 137.624 537.699 137.331C537.292 137.038 536.763 136.892 536.112 136.892C535.673 136.892 535.274 136.961 534.916 137.099C534.566 137.229 534.293 137.417 534.098 137.661C533.903 137.897 533.809 138.161 533.817 138.454C533.793 139.162 534.42 139.667 535.697 139.968L537.943 140.432C539.205 140.716 540.141 141.152 540.751 141.738C541.361 142.324 541.671 143.093 541.679 144.045C541.671 144.875 541.435 145.611 540.971 146.254C540.507 146.889 539.848 147.386 538.993 147.744C538.147 148.094 537.154 148.269 536.015 148.269C534.346 148.269 533.02 147.915 532.035 147.207C531.059 146.49 530.489 145.493 530.326 144.216H533.5C533.598 144.777 533.858 145.201 534.281 145.485C534.713 145.762 535.29 145.9 536.015 145.9C536.763 145.9 537.366 145.758 537.821 145.473C538.277 145.188 538.505 144.802 538.505 144.313C538.505 143.931 538.346 143.618 538.029 143.374C537.72 143.121 537.235 142.922 536.576 142.775L534.452 142.312C533.223 142.067 532.292 141.632 531.657 141.005C531.03 140.379 530.717 139.585 530.717 138.625C530.717 137.819 530.937 137.111 531.376 136.501C531.815 135.882 532.438 135.406 533.244 135.073C534.049 134.739 534.989 134.572 536.063 134.572C537.105 134.572 538.013 134.735 538.786 135.061C539.567 135.378 540.181 135.834 540.629 136.428C541.076 137.022 541.337 137.722 541.41 138.527H538.456Z" fill="#00F0FF" fill-opacity="0.8"/>
<path d="M68.0352 594.906C68.0352 597.807 69.2363 600.736 71.6094 602.016L70.5156 603.48C68.8652 602.553 67.7422 600.883 67.127 598.891C66.4824 601.068 65.2812 602.924 63.582 603.93L62.4102 602.582C64.9102 601.127 66.2383 598.002 66.2383 595.023V591.762H68.0352V594.906ZM72.0391 606.801V590.492H73.8164V597.133H75.9258V590.16H77.7031V607.66H75.9258V598.637H73.8164V606.801H72.0391ZM95.9453 604.008V605.57H79.9297V604.008H86.9805V600.941H81.8828V595.375H92.1562V592.914H81.8438V591.391H93.9922V596.859H83.7188V599.418H94.4023V600.941H88.8164V604.008H95.9453ZM113.211 598.93V600.434H106.277V603.832H104.402V600.434H97.1953V598.93H113.211ZM98.9531 594.125C98.9434 591.938 101.424 590.58 105.184 590.57C108.943 590.58 111.404 591.938 111.395 594.125C111.404 596.303 108.943 597.66 105.184 597.66C101.424 597.66 98.9434 596.303 98.9531 594.125ZM99.207 607.289V602.152H101.062V605.766H111.434V607.289H99.207ZM100.945 594.125C100.926 595.385 102.625 596.156 105.184 596.156C107.752 596.156 109.432 595.385 109.441 594.125C109.432 592.826 107.752 592.064 105.184 592.055C102.625 592.064 100.926 592.826 100.945 594.125ZM133.875 590.16V607.699H132.02V590.16H133.875ZM120.496 603.402V591.781H128.875V593.324H122.371V601.82C125.682 601.811 127.811 601.713 130.281 601.273L130.477 602.816C127.859 603.295 125.574 603.393 121.941 603.402H120.496ZM142.762 595.316C142.752 598.08 144.578 601.166 147.234 602.426L146.18 603.871C144.217 602.934 142.654 600.961 141.863 598.676C141.062 601.166 139.422 603.324 137.43 604.32L136.336 602.855C138.992 601.576 140.916 598.275 140.926 595.316V593.461H136.98V591.918H146.57V593.461H142.762V595.316ZM148.445 607.66V590.16H150.301V597.094H153.113V598.656H150.301V607.66H148.445ZM168.465 590.18V602.895H166.609V590.18H168.465ZM154.305 595.688C154.314 593.158 156.326 591.361 158.973 591.352C161.609 591.361 163.621 593.158 163.621 595.688C163.621 598.256 161.609 600.043 158.973 600.043C156.326 600.043 154.314 598.256 154.305 595.688ZM156.121 595.688C156.111 597.338 157.342 598.422 158.973 598.422C160.574 598.422 161.805 597.338 161.805 595.688C161.805 594.076 160.574 592.973 158.973 592.973C157.342 592.973 156.111 594.076 156.121 595.688ZM157.02 607.289V601.605H158.895V605.785H168.992V607.289H157.02ZM179.207 590.453C183.152 590.443 185.447 591.508 185.457 593.461C185.447 595.424 183.152 596.488 179.207 596.488C175.262 596.488 172.947 595.424 172.957 593.461C172.947 591.508 175.262 590.443 179.207 590.453ZM171.238 599.047V597.562H187.195V599.047H171.238ZM173.152 601.781V600.395H185.184V604.496H174.988V606.059H185.672V607.484H173.172V603.148H183.348V601.781H173.152ZM174.891 593.461C174.881 594.545 176.424 595.102 179.207 595.102C182.01 595.102 183.553 594.545 183.543 593.461C183.553 592.426 182.01 591.82 179.207 591.82C176.424 591.82 174.881 592.426 174.891 593.461ZM209.363 599.359V600.824H193.367V599.359H200.438V597.836H195.457V590.629H207.41V592.094H197.332V593.52H206.961V594.906H197.332V596.391H207.527V597.836H202.293V599.359H209.363ZM195.301 604.809C195.301 602.973 197.479 601.967 201.375 601.977C205.213 601.967 207.4 602.973 207.41 604.809C207.4 606.654 205.213 607.631 201.375 607.621C197.479 607.631 195.301 606.654 195.301 604.809ZM197.156 604.809C197.146 605.756 198.611 606.234 201.375 606.215C204.1 606.234 205.555 605.756 205.555 604.809C205.555 603.861 204.1 603.363 201.375 603.363C198.611 603.363 197.146 603.861 197.156 604.809ZM219.344 593.051V594.555H210.652V593.051H214.09V590.668H215.926V593.051H219.344ZM211.219 599.633C211.209 597.279 212.811 595.609 215.008 595.609C217.225 595.609 218.807 597.279 218.816 599.633C218.807 602.025 217.225 603.705 215.008 603.695C212.811 603.705 211.209 602.025 211.219 599.633ZM212.859 599.633C212.85 601.117 213.748 602.113 215.008 602.113C216.268 602.113 217.176 601.117 217.176 599.633C217.176 598.178 216.268 597.162 215.008 597.152C213.748 597.162 212.85 598.178 212.859 599.633ZM220.145 606.84V590.551H221.902V597.445H223.914V590.16H225.672V607.66H223.914V598.969H221.902V606.84H220.145ZM248.855 600.453V601.918H241.707V607.66H239.891V601.918H232.84V600.453H248.855ZM234.832 598.461V590.863H236.668V593.148H244.988V590.863H246.844V598.461H234.832ZM236.668 596.977H244.988V594.633H236.668V596.977ZM256.219 593.363C256.219 595.707 257.85 597.914 260.516 598.812L259.559 600.277C257.596 599.594 256.131 598.197 255.359 596.43C254.598 598.402 253.094 599.926 251.043 600.688L250.008 599.223C252.781 598.275 254.373 595.912 254.383 593.305V591.234H256.219V593.363ZM252.82 607.289V601.801H254.715V605.785H264.656V607.289H252.82ZM262.039 603.051V590.141H263.895V595.414H266.434V596.996H263.895V603.051H262.039ZM78.6016 628.91V630.395H71.5312V632.23H76.6484V637.621H74.7734V633.734H64.4219V632.23H69.6953V630.395H62.6445V628.91H78.6016ZM63.5039 626.645C66.9805 626.322 69.3828 625.053 69.5879 623.305H64.2461V621.84H69.6953V620.102H71.5312V621.84H77V623.305H71.6387C71.8242 625.053 74.2168 626.322 77.7227 626.645L77.1367 628.031C74.1191 627.758 71.6875 626.752 70.6133 625.102C69.5293 626.752 67.0879 627.758 64.0898 628.031L63.5039 626.645ZM94.9492 620.16V637.66H93.1719V620.16H94.9492ZM79.6758 632.836C82.1562 631.342 83.416 628.158 83.4258 625.043V623.637H80.2031V622.133H88.2109V623.637H85.2031V625.043C85.2031 628.031 86.4141 631.029 88.875 632.445L87.7617 633.812C86.0918 632.816 84.9492 631.029 84.334 628.92C83.709 631.205 82.5176 633.158 80.8086 634.223L79.6758 632.836ZM86.9219 627.875V626.352H89.6367V620.531H91.3945V636.781H89.6367V627.875H86.9219ZM113.211 628.188V629.613H97.1953V628.188H113.211ZM99.0898 632.172V630.844H111.238V634.691H100.965V636.137H111.785V637.445H99.1094V633.461H109.402V632.172H99.0898ZM99.207 621.918V620.609H111.199V624.398H101.082V625.727H111.492V627.035H99.2461V623.168H109.344V621.918H99.207ZM135.398 633.91V635.434H119.383V633.91H126.395V629.75H128.23V633.91H135.398ZM119.93 628.539C123.299 627.973 126.307 625.375 126.316 622.602V621.273H128.27V622.602C128.27 625.375 131.316 627.973 134.695 628.539L133.895 630.062C131.053 629.506 128.455 627.748 127.303 625.355C126.15 627.738 123.572 629.506 120.75 630.062L119.93 628.539ZM151.648 620.16V637.66H149.871V628.578H147.703V636.82H145.965V620.629H147.703V627.074H149.871V620.16H151.648ZM136.609 632.66C140.496 630.453 142.127 627.475 142.42 623.91H137.352V622.387H144.227C144.217 626.986 142.693 631.127 137.684 633.949L136.609 632.66ZM167.703 620.16V624.691H170.242V626.273H167.703V630.707H165.848V620.16H167.703ZM153.973 623.422V621.938H158.27V620.023H160.125V621.938H164.402V623.422H153.973ZM154.93 627.309C154.92 625.443 156.639 624.184 159.188 624.184C161.717 624.184 163.426 625.443 163.426 627.309C163.426 629.203 161.707 630.443 159.188 630.453C156.639 630.443 154.92 629.203 154.93 627.309ZM156.531 637.445V631.625H167.703V637.445H156.531ZM156.727 627.309C156.707 628.393 157.703 629.037 159.188 629.047C160.672 629.037 161.668 628.393 161.688 627.309C161.668 626.264 160.672 625.6 159.188 625.609C157.703 625.6 156.707 626.264 156.727 627.309ZM158.348 635.941H165.867V633.09H158.348V635.941ZM179.207 621.215C182.879 621.215 185.672 623.158 185.672 626.098C185.672 629.057 182.879 630.99 179.207 630.98C175.545 630.99 172.752 629.057 172.762 626.098C172.752 623.158 175.545 621.215 179.207 621.215ZM171.238 635.395V633.852H187.254V635.395H171.238ZM174.539 626.098C174.529 628.139 176.521 629.457 179.207 629.457C181.883 629.457 183.865 628.139 183.875 626.098C183.865 624.066 181.883 622.709 179.207 622.719C176.521 622.709 174.529 624.066 174.539 626.098ZM204.539 634.008V635.57H188.523V634.008H195.574V630.941H190.477V625.375H200.75V622.914H190.438V621.391H202.586V626.859H192.312V629.418H202.996V630.941H197.41V634.008H204.539ZM220.691 620.16V637.66H218.816V627.973H215.984V626.352H218.816V620.16H220.691ZM205.477 632.406C207.654 630.756 208.172 627.719 208.191 625.336V621.664H209.93V625.336C209.92 627.182 210.193 629.662 211.502 631.439C212.781 629.701 213.035 627.25 213.055 625.336V621.664H214.832V625.336C214.812 627.768 215.311 630.795 217.527 632.406L216.355 633.734C215.096 632.807 214.354 631.332 213.934 629.701C213.523 631.381 212.791 632.924 211.492 633.871C210.193 632.924 209.461 631.381 209.051 629.711C208.631 631.312 207.918 632.758 206.727 633.676L205.477 632.406ZM77.7031 650.16V667.66H75.9258V658.539H73.7578V666.801H72V650.492H73.7578V657.016H75.9258V650.16H77.7031ZM63.2305 663.051V652.133H70.0273V663.051H63.2305ZM64.9883 661.566H68.2891V653.598H64.9883V661.566ZM88.2695 651.215V656.312H82.4883V658.734C85.5352 658.734 87.1953 658.666 89.168 658.305L89.3438 659.809C87.2051 660.17 85.4082 660.229 81.9219 660.238H80.6523V654.906H86.4141V652.699H80.6328V651.215H88.2695ZM82.6445 663.324V661.82H94.5195V667.68H92.6641V663.324H82.6445ZM89.3828 657.855V656.371H92.6641V654.203H89.3828V652.719H92.6641V650.18H94.5195V660.941H92.6641V657.855H89.3828ZM103.484 653.266C103.475 655.473 105.057 657.631 107.703 658.539L106.746 659.984C104.783 659.311 103.328 657.904 102.566 656.176C101.805 658.1 100.271 659.643 98.1914 660.375L97.2344 658.91C99.9199 657.992 101.6 655.658 101.59 653.285V652.797H97.8008V651.293H107.234V652.797H103.484V653.266ZM99.9492 663.012V661.508H111.805V667.66H109.949V663.012H99.9492ZM106.707 656.137V654.613H109.949V650.16H111.805V660.629H109.949V656.137H106.707ZM129.012 650.18V662.895H127.156V650.18H129.012ZM114.852 655.688C114.861 653.158 116.873 651.361 119.52 651.352C122.156 651.361 124.168 653.158 124.168 655.688C124.168 658.256 122.156 660.043 119.52 660.043C116.873 660.043 114.861 658.256 114.852 655.688ZM116.668 655.688C116.658 657.338 117.889 658.422 119.52 658.422C121.121 658.422 122.352 657.338 122.352 655.688C122.352 654.076 121.121 652.973 119.52 652.973C117.889 652.973 116.658 654.076 116.668 655.688ZM117.566 667.289V661.605H119.441V665.785H129.539V667.289H117.566ZM151.16 650.16V667.699H149.305V650.16H151.16ZM137.781 663.402V651.781H146.16V653.324H139.656V661.82C142.967 661.811 145.096 661.713 147.566 661.273L147.762 662.816C145.145 663.295 142.859 663.393 139.227 663.402H137.781ZM160.047 655.316C160.037 658.08 161.863 661.166 164.52 662.426L163.465 663.871C161.502 662.934 159.939 660.961 159.148 658.676C158.348 661.166 156.707 663.324 154.715 664.32L153.621 662.855C156.277 661.576 158.201 658.275 158.211 655.316V653.461H154.266V651.918H163.855V653.461H160.047V655.316ZM165.73 667.66V650.16H167.586V657.094H170.398V658.656H167.586V667.66H165.73ZM185.75 650.18V662.895H183.895V650.18H185.75ZM171.59 655.688C171.6 653.158 173.611 651.361 176.258 651.352C178.895 651.361 180.906 653.158 180.906 655.688C180.906 658.256 178.895 660.043 176.258 660.043C173.611 660.043 171.6 658.256 171.59 655.688ZM173.406 655.688C173.396 657.338 174.627 658.422 176.258 658.422C177.859 658.422 179.09 657.338 179.09 655.688C179.09 654.076 177.859 652.973 176.258 652.973C174.627 652.973 173.396 654.076 173.406 655.688ZM174.305 667.289V661.605H176.18V665.785H186.277V667.289H174.305ZM208.426 650.16V667.66H206.648V650.16H208.426ZM193.152 662.836C195.633 661.342 196.893 658.158 196.902 655.043V653.637H193.68V652.133H201.688V653.637H198.68V655.043C198.68 658.031 199.891 661.029 202.352 662.445L201.238 663.812C199.568 662.816 198.426 661.029 197.811 658.92C197.186 661.205 195.994 663.158 194.285 664.223L193.152 662.836ZM200.398 657.875V656.352H203.113V650.531H204.871V666.781H203.113V657.875H200.398ZM216.805 653.305C216.795 655.541 218.348 657.66 221.023 658.559L220.086 660.004C218.104 659.32 216.648 657.953 215.887 656.234C215.125 658.119 213.602 659.613 211.551 660.336L210.555 658.891C213.289 657.963 214.939 655.697 214.949 653.285V652.816H211.102V651.312H220.574V652.816H216.805V653.305ZM212.879 663.07V661.566H224.441V667.66H222.586V663.07H212.879ZM222.586 660.707V650.16H224.441V654.652H226.98V656.215H224.441V660.707H222.586ZM242.098 651.273V658.461H233.777V651.273H242.098ZM234.93 666.176C238.113 665.863 240.604 664.271 240.73 662.699H235.633V661.293H240.77V659.652H242.605V661.293H247.762V662.699H242.645C242.771 664.223 245.203 665.824 248.387 666.176L247.762 667.602C245.018 667.27 242.752 666.098 241.697 664.555C240.623 666.117 238.328 667.27 235.574 667.602L234.93 666.176ZM235.594 657.016H240.262V652.758H235.594V657.016ZM245.516 660.16V650.16H247.352V660.16H245.516ZM259.773 651.469C262.156 651.479 263.885 653.49 264.168 656.723H267.781V650.16H269.617V667.699H267.781V658.227H264.188C263.982 661.645 262.215 663.764 259.773 663.754C257.166 663.764 255.32 661.381 255.34 657.602C255.32 653.861 257.166 651.479 259.773 651.469ZM257.098 657.602C257.107 660.385 258.191 662.094 259.773 662.094C261.355 662.094 262.439 660.385 262.449 657.602C262.439 654.857 261.355 653.139 259.773 653.129C258.191 653.139 257.107 654.857 257.098 657.602ZM286.863 650.16V659.203H284.988V650.16H286.863ZM272.605 657.191C273.27 657.191 273.992 657.182 274.734 657.172V652.777H273.074V651.312H282.586V652.777H280.906V656.918C281.756 656.859 282.596 656.781 283.387 656.684L283.465 658.031C279.969 658.559 275.896 658.686 272.82 658.676L272.605 657.191ZM275.242 661.469V660.004H286.863V664.34H277.117V666H287.469V667.484H275.301V662.992H285.027V661.469H275.242ZM276.512 657.133C277.371 657.104 278.25 657.074 279.129 657.025V652.777H276.512V657.133Z" fill="white"/>
<path d="M370.66 603.93V605.473H354.645V603.93H361.695V599.887H356.48V591.566H368.746V599.887H363.531V603.93H370.66ZM358.277 598.422H366.93V593.051H358.277V598.422ZM378.102 593.324C378.111 595.844 379.674 598.256 382.281 599.262L381.266 600.707C379.361 599.936 377.945 598.402 377.203 596.508C376.451 598.549 374.967 600.17 372.926 600.98L371.93 599.496C374.625 598.5 376.256 596.01 376.266 593.324V591.156H378.102V593.324ZM375.094 607.289V601.898H376.969V605.785H386.91V607.289H375.094ZM381.266 597.699V596.195H384.664V594.164H381.266V592.66H384.664V590.18H386.52V603.207H384.664V597.699H381.266ZM403.238 590.941V592.484C403.238 594.135 403.238 595.893 402.75 598.285L400.914 598.129C401.109 597.182 401.236 596.342 401.305 595.561L390.895 596.039L390.641 594.477L401.383 594.184C401.402 593.588 401.402 593.031 401.402 592.484V592.445H391.09V590.941H403.238ZM389.234 600.844V599.359H395.543V596.898H397.418V599.359H405.152V600.844H389.234ZM391.207 607.387V602.191H393.062V605.883H403.609V607.387H391.207ZM421.422 590.18V603.266H419.664V590.18H421.422ZM407.281 600.512V591.566H413.941V593.07H409.059V595.258H413.258V596.703H409.059V598.988C411.373 598.979 412.887 598.92 414.684 598.559L414.859 600.043C412.848 600.424 411.178 600.502 408.414 600.512H407.281ZM409.898 607.289V601.82H411.773V605.785H421.93V607.289H409.898ZM414.059 596.566V595.062H416.227V590.512H417.984V602.836H416.227V596.566H414.059ZM439.801 603.949V605.473H423.785V603.949H439.801ZM424.625 599.73C428.17 599.154 430.748 596.977 430.836 594.359H425.23V592.855H430.855V590.531H432.691V592.855H438.316V594.359H432.711C432.799 596.977 435.357 599.154 438.941 599.73L438.199 601.215C435.299 600.688 432.896 599.213 431.764 597.074C430.641 599.213 428.238 600.688 425.348 601.215L424.625 599.73ZM457.066 598.188V599.613H441.051V598.188H457.066ZM442.945 602.172V600.844H455.094V604.691H444.82V606.137H455.641V607.445H442.965V603.461H453.258V602.172H442.945ZM443.062 591.918V590.609H455.055V594.398H444.938V595.727H455.348V597.035H443.102V593.168H453.199V591.918H443.062ZM478.258 590.16V607.66H476.48V590.16H478.258ZM462.984 602.836C465.465 601.342 466.725 598.158 466.734 595.043V593.637H463.512V592.133H471.52V593.637H468.512V595.043C468.512 598.031 469.723 601.029 472.184 602.445L471.07 603.812C469.4 602.816 468.258 601.029 467.643 598.92C467.018 601.205 465.826 603.158 464.117 604.223L462.984 602.836ZM470.23 597.875V596.352H472.945V590.531H474.703V606.781H472.945V597.875H470.23ZM486.637 593.305C486.627 595.541 488.18 597.66 490.855 598.559L489.918 600.004C487.936 599.32 486.48 597.953 485.719 596.234C484.957 598.119 483.434 599.613 481.383 600.336L480.387 598.891C483.121 597.963 484.771 595.697 484.781 593.285V592.816H480.934V591.312H490.406V592.816H486.637V593.305ZM482.711 603.07V601.566H494.273V607.66H492.418V603.07H482.711ZM492.418 600.707V590.16H494.273V594.652H496.812V596.215H494.273V600.707H492.418ZM511.441 590.16V597.25H514.254V598.793H511.441V607.66H509.605V590.16H511.441ZM497.711 594.418V592.895H502.027V590.395H503.883V592.895H508.082V594.418H497.711ZM498.609 599.77C498.609 597.387 500.445 595.707 502.965 595.707C505.475 595.707 507.311 597.387 507.32 599.77C507.311 602.172 505.475 603.842 502.965 603.852C500.445 603.842 498.609 602.172 498.609 599.77ZM500.387 599.77C500.377 601.293 501.471 602.309 502.965 602.289C504.449 602.309 505.533 601.293 505.543 599.77C505.533 598.275 504.449 597.24 502.965 597.23C501.471 597.24 500.377 598.275 500.387 599.77ZM519.84 591.469C521.441 591.479 522.75 592.387 523.521 593.969H527.848V590.16H529.684V607.699H527.848V600.98H523.648C522.896 602.738 521.529 603.764 519.84 603.754C517.232 603.764 515.387 601.381 515.406 597.602C515.387 593.861 517.232 591.479 519.84 591.469ZM517.164 597.602C517.174 600.385 518.258 602.094 519.84 602.094C521.422 602.094 522.506 600.385 522.516 597.602C522.506 594.857 521.422 593.139 519.84 593.129C518.258 593.139 517.174 594.857 517.164 597.602ZM524.049 595.492C524.186 596.137 524.273 596.84 524.273 597.602C524.273 598.266 524.215 598.881 524.098 599.457H527.848V595.492H524.049ZM360.719 624.613C360.699 627.709 362.506 630.883 365.113 632.152L363.961 633.637C362.057 632.641 360.582 630.688 359.811 628.354C359.029 630.834 357.496 632.934 355.504 633.969L354.352 632.465C357.037 631.176 358.854 627.816 358.863 624.613V621.625H360.719V624.613ZM366.422 637.66V620.16H368.277V627.133H371.09V628.715H368.277V637.66H366.422ZM387.887 628.695V630.199H371.93V628.695H375.758V626.342C374.4 625.795 373.639 624.916 373.648 623.754C373.639 621.674 376.051 620.463 379.898 620.473C383.736 620.463 386.139 621.674 386.148 623.754C386.139 624.916 385.377 625.795 384.02 626.352V628.695H387.887ZM373.824 634.496C373.824 632.494 376.09 631.391 379.898 631.391C383.658 631.391 385.924 632.494 385.934 634.496C385.924 636.518 383.658 637.621 379.898 637.621C376.09 637.621 373.824 636.518 373.824 634.496ZM375.562 623.754C375.553 624.926 377.174 625.58 379.898 625.59C382.604 625.58 384.244 624.926 384.234 623.754C384.244 622.582 382.604 621.908 379.898 621.898C377.174 621.908 375.553 622.582 375.562 623.754ZM375.699 634.496C375.689 635.59 377.223 636.215 379.898 636.195C382.535 636.215 384.078 635.59 384.078 634.496C384.078 633.422 382.535 632.816 379.898 632.816C377.223 632.816 375.689 633.422 375.699 634.496ZM377.633 628.695H382.184V626.83C381.5 626.938 380.729 626.996 379.898 626.996C379.078 626.996 378.316 626.938 377.633 626.84V628.695ZM395.309 625.316C395.299 628.08 397.125 631.166 399.781 632.426L398.727 633.871C396.764 632.934 395.201 630.961 394.41 628.676C393.609 631.166 391.969 633.324 389.977 634.32L388.883 632.855C391.539 631.576 393.463 628.275 393.473 625.316V623.461H389.527V621.918H399.117V623.461H395.309V625.316ZM400.992 637.66V620.16H402.848V627.094H405.66V628.656H402.848V637.66H400.992ZM422.477 627.328V628.812H406.5V627.328H422.477ZM408.414 631.625V630.199H420.445V634.438H410.25V636H420.934V637.465H408.434V633.07H418.609V631.625H408.414ZM408.59 626.059V620.668H420.406V622.172H410.445V624.574H420.582V626.059H408.59ZM438.844 620.16V637.66H437.066V620.16H438.844ZM423.98 627.719C423.98 623.93 425.465 621.557 427.75 621.566C429.879 621.557 431.314 623.578 431.529 626.859H433.512V620.492H435.289V636.801H433.512V628.363H431.539C431.373 631.781 429.918 633.9 427.75 633.891C425.465 633.9 423.98 631.518 423.98 627.719ZM425.699 627.719C425.699 630.502 426.49 632.143 427.75 632.133C429.039 632.143 429.84 630.502 429.84 627.719C429.84 624.926 429.039 623.295 427.75 623.305C426.49 623.295 425.699 624.926 425.699 627.719ZM456.109 620.16V637.66H454.352V620.16H456.109ZM441.012 632.602C444.723 630.395 446.5 627.455 446.822 623.852H441.832V622.328H448.668C448.658 624.037 448.424 625.668 447.887 627.191H450.66V620.609H452.418V636.801H450.66V628.676H447.242C446.207 630.707 444.537 632.484 442.066 633.93L441.012 632.602ZM479.195 628.91V630.395H472.125V632.23H477.242V637.621H475.367V633.734H465.016V632.23H470.289V630.395H463.238V628.91H479.195ZM464.098 626.645C467.574 626.322 469.977 625.053 470.182 623.305H464.84V621.84H470.289V620.102H472.125V621.84H477.594V623.305H472.232C472.418 625.053 474.811 626.322 478.316 626.645L477.73 628.031C474.713 627.758 472.281 626.752 471.207 625.102C470.123 626.752 467.682 627.758 464.684 628.031L464.098 626.645ZM495.543 620.16V637.66H493.766V620.16H495.543ZM480.27 632.836C482.75 631.342 484.01 628.158 484.02 625.043V623.637H480.797V622.133H488.805V623.637H485.797V625.043C485.797 628.031 487.008 631.029 489.469 632.445L488.355 633.812C486.686 632.816 485.543 631.029 484.928 628.92C484.303 631.205 483.111 633.158 481.402 634.223L480.27 632.836ZM487.516 627.875V626.352H490.23V620.531H491.988V636.781H490.23V627.875H487.516ZM503.512 621.41C506.275 621.4 508.268 623.109 508.277 625.57C508.268 628.031 506.275 629.74 503.512 629.75C500.758 629.74 498.736 628.031 498.746 625.57C498.736 623.109 500.758 621.4 503.512 621.41ZM497.906 632.387C501.09 632.387 505.504 632.357 509.332 631.801L509.469 633.148C505.514 633.91 501.266 633.93 498.141 633.93L497.906 632.387ZM500.582 625.57C500.562 627.123 501.812 628.129 503.512 628.129C505.211 628.129 506.461 627.123 506.461 625.57C506.461 624.037 505.211 623.012 503.512 623.012C501.812 623.012 500.562 624.037 500.582 625.57ZM510.426 637.699V620.16H512.281V637.699H510.426ZM533.746 620.16V624.516H536.246V626.098H533.746V630.473H531.891V620.16H533.746ZM519.859 628.812C521.217 628.812 522.789 628.803 524.43 628.764V627.777C522.418 627.592 521.168 626.781 521.188 625.473C521.168 624.047 522.809 623.207 525.348 623.207C527.867 623.207 529.498 624.047 529.508 625.473C529.498 626.771 528.268 627.582 526.285 627.777V628.686C527.848 628.617 529.43 628.49 530.895 628.285L531.051 629.496C527.291 630.111 523.131 630.141 520.055 630.141L519.859 628.812ZM520.309 622.699V621.41H524.43V620.004H526.285V621.41H530.406V622.699H520.309ZM522.184 632.504V631.215H533.746V634.867H524.078V636.195H534.391V637.484H522.223V633.676H531.91V632.504H522.184ZM522.945 625.473C522.945 626.176 523.854 626.605 525.348 626.605C526.822 626.605 527.74 626.176 527.73 625.473C527.74 624.799 526.822 624.418 525.348 624.418C523.854 624.418 522.945 624.799 522.945 625.473ZM553.238 628.676V630.16H537.262V628.676H544.352V626.82H539.254V620.961H551.266V622.426H541.09V625.336H551.383V626.82H546.148V628.676H553.238ZM539.156 634.477C539.156 632.445 541.432 631.303 545.23 631.293C549 631.303 551.256 632.445 551.266 634.477C551.256 636.508 549 637.65 545.23 637.66C541.432 637.65 539.156 636.508 539.156 634.477ZM541.031 634.477C541.021 635.6 542.555 636.215 545.23 636.195C547.867 636.215 549.41 635.6 549.41 634.477C549.41 633.373 547.867 632.738 545.23 632.738C542.555 632.738 541.021 633.373 541.031 634.477ZM562.516 620.453C566.461 620.443 568.756 621.508 568.766 623.461C568.756 625.424 566.461 626.488 562.516 626.488C558.57 626.488 556.256 625.424 556.266 623.461C556.256 621.508 558.57 620.443 562.516 620.453ZM554.547 629.047V627.562H570.504V629.047H554.547ZM556.461 631.781V630.395H568.492V634.496H558.297V636.059H568.98V637.484H556.48V633.148H566.656V631.781H556.461ZM558.199 623.461C558.189 624.545 559.732 625.102 562.516 625.102C565.318 625.102 566.861 624.545 566.852 623.461C566.861 622.426 565.318 621.82 562.516 621.82C559.732 621.82 558.189 622.426 558.199 623.461ZM361.129 653.305C361.129 655.551 362.799 657.709 365.504 658.559L364.547 660.004C362.535 659.34 361.012 657.963 360.221 656.205C359.43 658.1 357.877 659.604 355.797 660.336L354.84 658.91C357.564 657.963 359.244 655.678 359.254 653.305V652.816H355.328V651.312H364.977V652.816H361.129V653.305ZM357.301 663.109V661.605H369.156V667.66H367.301V663.109H357.301ZM367.301 660.727V650.16H369.156V660.727H367.301ZM381.676 651.488V652.465C381.656 653.637 381.656 655.375 381.227 657.641L379.391 657.465C379.771 655.531 379.83 654.115 379.85 653.012H372.848V651.488H381.676ZM371.793 659.145C372.867 659.145 374.088 659.135 375.367 659.105V655.414H377.203V659.047C379.078 658.969 381.012 658.832 382.77 658.578L382.887 659.926C379.234 660.57 375.055 660.639 371.969 660.648L371.793 659.145ZM374.449 667.289V662.113H376.305V665.785H386.344V667.289H374.449ZM383.883 663.305V650.16H385.777V655.727H388.18V657.289H385.777V663.305H383.883ZM395.484 653.266C395.475 655.473 397.057 657.631 399.703 658.539L398.746 659.984C396.783 659.311 395.328 657.904 394.566 656.176C393.805 658.1 392.271 659.643 390.191 660.375L389.234 658.91C391.92 657.992 393.6 655.658 393.59 653.285V652.797H389.801V651.293H399.234V652.797H395.484V653.266ZM391.949 663.012V661.508H403.805V667.66H401.949V663.012H391.949ZM398.707 656.137V654.613H401.949V650.16H403.805V660.629H401.949V656.137H398.707ZM414.469 651.215C418.141 651.215 420.934 653.158 420.934 656.098C420.934 659.057 418.141 660.99 414.469 660.98C410.807 660.99 408.014 659.057 408.023 656.098C408.014 653.158 410.807 651.215 414.469 651.215ZM406.5 665.395V663.852H422.516V665.395H406.5ZM409.801 656.098C409.791 658.139 411.783 659.457 414.469 659.457C417.145 659.457 419.127 658.139 419.137 656.098C419.127 654.066 417.145 652.709 414.469 652.719C411.783 652.709 409.791 654.066 409.801 656.098ZM439.801 664.008V665.57H423.785V664.008H430.836V660.941H425.738V655.375H436.012V652.914H425.699V651.391H437.848V656.859H427.574V659.418H438.258V660.941H432.672V664.008H439.801ZM460.543 650.18V662.992H458.688V656.41H455.348V654.906H458.688V650.18H460.543ZM445.973 659.34C448.658 658.432 450.338 656.127 450.328 653.715V653.031H446.539V651.508H455.973V653.031H452.223V653.715C452.213 655.893 453.795 658.09 456.441 658.969L455.484 660.453C453.521 659.77 452.066 658.363 451.305 656.625C450.543 658.559 449.01 660.102 446.93 660.844L445.973 659.34ZM449.176 667.289V661.84H451.031V665.785H461.012V667.289H449.176ZM471.793 651.137V652.621H465.816V656.879C469.117 656.879 471.1 656.752 473.375 656.293L473.59 657.758C471.168 658.275 469.029 658.363 465.367 658.363H463.98V651.137H471.793ZM465.68 661.254V659.77H476.988V664.242H467.535V665.941H477.594V667.445H465.719V662.816H475.152V661.254H465.68ZM475.133 658.949V650.16H476.988V653.734H479.527V655.258H476.988V658.949H475.133Z" fill="white"/>
<path d="M652.602 598.91V600.395H645.531V602.23H650.648V607.621H648.773V603.734H638.422V602.23H643.695V600.395H636.645V598.91H652.602ZM637.504 596.645C640.98 596.322 643.383 595.053 643.588 593.305H638.246V591.84H643.695V590.102H645.531V591.84H651V593.305H645.639C645.824 595.053 648.217 596.322 651.723 596.645L651.137 598.031C648.119 597.758 645.688 596.752 644.613 595.102C643.529 596.752 641.088 597.758 638.09 598.031L637.504 596.645ZM668.949 590.16V607.66H667.172V590.16H668.949ZM653.676 602.836C656.156 601.342 657.416 598.158 657.426 595.043V593.637H654.203V592.133H662.211V593.637H659.203V595.043C659.203 598.031 660.414 601.029 662.875 602.445L661.762 603.812C660.092 602.816 658.949 601.029 658.334 598.92C657.709 601.205 656.518 603.158 654.809 604.223L653.676 602.836ZM660.922 597.875V596.352H663.637V590.531H665.395V606.781H663.637V597.875H660.922ZM687.191 597.328V598.812H671.215V597.328H687.191ZM673.129 601.625V600.199H685.16V604.438H674.965V606H685.648V607.465H673.148V603.07H683.324V601.625H673.129ZM673.305 596.059V590.668H685.121V592.172H675.16V594.574H685.297V596.059H673.305ZM696.469 590.453C700.414 590.443 702.709 591.508 702.719 593.461C702.709 595.424 700.414 596.488 696.469 596.488C692.523 596.488 690.209 595.424 690.219 593.461C690.209 591.508 692.523 590.443 696.469 590.453ZM688.5 599.047V597.562H704.457V599.047H688.5ZM690.414 601.781V600.395H702.445V604.496H692.25V606.059H702.934V607.484H690.434V603.148H700.609V601.781H690.414ZM692.152 593.461C692.143 594.545 693.686 595.102 696.469 595.102C699.271 595.102 700.814 594.545 700.805 593.461C700.814 592.426 699.271 591.82 696.469 591.82C693.686 591.82 692.143 592.426 692.152 593.461ZM724.418 590.18V595.805H726.957V597.348H724.418V603.266H722.562V590.18H724.418ZM710.688 593.715V592.211H714.984V590.16H716.84V592.211H721.117V593.715H710.688ZM711.645 597.855C711.635 595.854 713.363 594.545 715.902 594.555C718.412 594.545 720.141 595.854 720.141 597.855C720.141 599.838 718.412 601.127 715.902 601.137C713.363 601.127 711.635 599.838 711.645 597.855ZM713.324 607.289V602.23H715.18V605.785H725.16V607.289H713.324ZM713.441 597.855C713.422 598.998 714.418 599.701 715.902 599.691C717.387 599.701 718.383 598.998 718.402 597.855C718.383 596.703 717.387 595.99 715.902 595.98C714.418 595.99 713.422 596.703 713.441 597.855ZM746.781 591V592.27C746.791 593.607 746.791 595.121 746.352 597.152L744.516 596.957C744.926 595.062 744.945 593.705 744.945 592.465H734.711V591H746.781ZM732.855 599.75V598.266H739.242V594.828H741.059V598.266H748.773V599.75H732.855ZM733.949 606.137C737.338 605.678 739.799 603.9 739.809 601.742V601.039H741.684V601.742C741.674 603.9 744.135 605.678 747.582 606.137L746.879 607.582C744.115 607.162 741.82 605.941 740.746 604.145C739.662 605.941 737.367 607.162 734.613 607.582L733.949 606.137ZM765.18 590.16V607.66H763.402V590.16H765.18ZM750.316 597.719C750.316 593.93 751.801 591.557 754.086 591.566C756.215 591.557 757.65 593.578 757.865 596.859H759.848V590.492H761.625V606.801H759.848V598.363H757.875C757.709 601.781 756.254 603.9 754.086 603.891C751.801 603.9 750.316 601.518 750.316 597.719ZM752.035 597.719C752.035 600.502 752.826 602.143 754.086 602.133C755.375 602.143 756.176 600.502 756.176 597.719C756.176 594.926 755.375 593.295 754.086 593.305C752.826 593.295 752.035 594.926 752.035 597.719ZM788.305 603.93V605.473H772.289V603.93H779.34V599.887H774.125V591.566H786.391V599.887H781.176V603.93H788.305ZM775.922 598.422H784.574V593.051H775.922V598.422ZM794.262 591.469C796.879 591.479 798.744 593.861 798.754 597.602C798.744 601.381 796.879 603.764 794.262 603.754C791.645 603.764 789.779 601.381 789.789 597.602C789.779 593.861 791.645 591.479 794.262 591.469ZM791.566 597.602C791.557 600.385 792.67 602.094 794.262 602.094C795.883 602.094 796.977 600.385 796.977 597.602C796.977 594.857 795.883 593.139 794.262 593.129C792.67 593.139 791.557 594.857 791.566 597.602ZM801.352 607.66V590.16H803.207V597.016H806.02V598.578H803.207V607.66H801.352ZM640.57 620.434V621.957H648.676V620.434H650.531V626.234H645.492V627.758H652.602V629.242H636.645V627.758H643.676V626.234H638.734V620.434H640.57ZM638.559 631.898V630.512H650.59V634.594H640.395V636.059H651.078V637.484H638.578V633.266H648.754V631.898H638.559ZM640.57 624.828H648.676V623.324H640.57V624.828ZM667.777 621.703C667.768 624.027 670.609 626.205 674.047 626.664L673.324 628.188C670.463 627.729 667.953 626.244 666.811 624.184C665.668 626.244 663.158 627.729 660.316 628.188L659.574 626.664C663.002 626.205 665.834 624.057 665.844 621.703V620.746H667.777V621.703ZM658.812 631.43V629.906H674.77V631.43H667.66V637.66H665.844V631.43H658.812ZM687.055 631.723C687.055 633.227 687.797 634.818 689.389 635.766C690.99 634.74 691.781 633.07 691.781 631.723V630.883H693.598V631.723C693.588 633.539 694.789 635.297 697.074 636.039L696.156 637.406C694.428 636.811 693.246 635.639 692.641 634.213C692.084 635.619 691.039 636.898 689.438 637.562C687.758 636.928 686.693 635.688 686.156 634.262C685.521 635.639 684.369 636.801 682.719 637.406L681.781 636.039C684.027 635.238 685.248 633.412 685.258 631.723V630.883H687.055V631.723ZM681.332 625.277C681.342 622.826 683.314 621.146 686 621.137C688.676 621.146 690.648 622.826 690.648 625.277C690.648 627.699 688.676 629.379 686 629.379C683.314 629.379 681.342 627.699 681.332 625.277ZM683.148 625.277C683.139 626.801 684.34 627.836 686 627.836C687.641 627.836 688.832 626.801 688.832 625.277C688.832 623.744 687.641 622.709 686 622.719C684.34 622.709 683.139 623.744 683.148 625.277ZM693.637 630.141V620.18H695.492V630.141H693.637ZM713.305 620.16V637.66H711.547V620.16H713.305ZM698.207 632.602C701.918 630.395 703.695 627.455 704.018 623.852H699.027V622.328H705.863C705.854 624.037 705.619 625.668 705.082 627.191H707.855V620.609H709.613V636.801H707.855V628.676H704.438C703.402 630.707 701.732 632.484 699.262 633.93L698.207 632.602ZM734.184 620.16V624.691H736.723V626.273H734.184V630.707H732.328V620.16H734.184ZM720.453 623.422V621.938H724.75V620.023H726.605V621.938H730.883V623.422H720.453ZM721.41 627.309C721.4 625.443 723.119 624.184 725.668 624.184C728.197 624.184 729.906 625.443 729.906 627.309C729.906 629.203 728.188 630.443 725.668 630.453C723.119 630.443 721.4 629.203 721.41 627.309ZM723.012 637.445V631.625H734.184V637.445H723.012ZM723.207 627.309C723.188 628.393 724.184 629.037 725.668 629.047C727.152 629.037 728.148 628.393 728.168 627.309C728.148 626.264 727.152 625.6 725.668 625.609C724.184 625.6 723.188 626.264 723.207 627.309ZM724.828 635.941H732.348V633.09H724.828V635.941ZM745.688 621.215C749.359 621.215 752.152 623.158 752.152 626.098C752.152 629.057 749.359 630.99 745.688 630.98C742.025 630.99 739.232 629.057 739.242 626.098C739.232 623.158 742.025 621.215 745.688 621.215ZM737.719 635.395V633.852H753.734V635.395H737.719ZM741.02 626.098C741.01 628.139 743.002 629.457 745.688 629.457C748.363 629.457 750.346 628.139 750.355 626.098C750.346 624.066 748.363 622.709 745.688 622.719C743.002 622.709 741.01 624.066 741.02 626.098ZM771.02 634.008V635.57H755.004V634.008H762.055V630.941H756.957V625.375H767.23V622.914H756.918V621.391H769.066V626.859H758.793V629.418H769.477V630.941H763.891V634.008H771.02ZM787.172 620.16V637.66H785.297V627.973H782.465V626.352H785.297V620.16H787.172ZM771.957 632.406C774.135 630.756 774.652 627.719 774.672 625.336V621.664H776.41V625.336C776.4 627.182 776.674 629.662 777.982 631.439C779.262 629.701 779.516 627.25 779.535 625.336V621.664H781.312V625.336C781.293 627.768 781.791 630.795 784.008 632.406L782.836 633.734C781.576 632.807 780.834 631.332 780.414 629.701C780.004 631.381 779.271 632.924 777.973 633.871C776.674 632.924 775.941 631.381 775.531 629.711C775.111 631.312 774.398 632.758 773.207 633.676L771.957 632.406ZM651.137 650.16V667.699H649.281V650.16H651.137ZM637.25 657.602C637.25 653.861 639.135 651.479 641.781 651.469C644.379 651.479 646.293 653.861 646.293 657.602C646.293 661.381 644.379 663.764 641.781 663.754C639.135 663.764 637.25 661.381 637.25 657.602ZM639.047 657.602C639.037 660.385 640.15 662.094 641.781 662.094C643.383 662.094 644.496 660.385 644.496 657.602C644.496 654.857 643.383 653.139 641.781 653.129C640.15 653.139 639.037 654.857 639.047 657.602ZM669.887 658.695V660.199H653.93V658.695H657.758V656.342C656.4 655.795 655.639 654.916 655.648 653.754C655.639 651.674 658.051 650.463 661.898 650.473C665.736 650.463 668.139 651.674 668.148 653.754C668.139 654.916 667.377 655.795 666.02 656.352V658.695H669.887ZM655.824 664.496C655.824 662.494 658.09 661.391 661.898 661.391C665.658 661.391 667.924 662.494 667.934 664.496C667.924 666.518 665.658 667.621 661.898 667.621C658.09 667.621 655.824 666.518 655.824 664.496ZM657.562 653.754C657.553 654.926 659.174 655.58 661.898 655.59C664.604 655.58 666.244 654.926 666.234 653.754C666.244 652.582 664.604 651.908 661.898 651.898C659.174 651.908 657.553 652.582 657.562 653.754ZM657.699 664.496C657.689 665.59 659.223 666.215 661.898 666.195C664.535 666.215 666.078 665.59 666.078 664.496C666.078 663.422 664.535 662.816 661.898 662.816C659.223 662.816 657.689 663.422 657.699 664.496ZM659.633 658.695H664.184V656.83C663.5 656.938 662.729 656.996 661.898 656.996C661.078 656.996 660.316 656.938 659.633 656.84V658.695ZM677.309 655.316C677.299 658.08 679.125 661.166 681.781 662.426L680.727 663.871C678.764 662.934 677.201 660.961 676.41 658.676C675.609 661.166 673.969 663.324 671.977 664.32L670.883 662.855C673.539 661.576 675.463 658.275 675.473 655.316V653.461H671.527V651.918H681.117V653.461H677.309V655.316ZM682.992 667.66V650.16H684.848V657.094H687.66V658.656H684.848V667.66H682.992ZM704.477 657.328V658.812H688.5V657.328H704.477ZM690.414 661.625V660.199H702.445V664.438H692.25V666H702.934V667.465H690.434V663.07H700.609V661.625H690.414ZM690.59 656.059V650.668H702.406V652.172H692.445V654.574H702.582V656.059H690.59ZM711.488 651.41C714.252 651.4 716.244 653.109 716.254 655.57C716.244 658.031 714.252 659.74 711.488 659.75C708.734 659.74 706.713 658.031 706.723 655.57C706.713 653.109 708.734 651.4 711.488 651.41ZM705.883 662.387C709.066 662.387 713.48 662.357 717.309 661.801L717.445 663.148C713.49 663.91 709.242 663.93 706.117 663.93L705.883 662.387ZM708.559 655.57C708.539 657.123 709.789 658.129 711.488 658.129C713.188 658.129 714.438 657.123 714.438 655.57C714.438 654.037 713.188 653.012 711.488 653.012C709.789 653.012 708.539 654.037 708.559 655.57ZM718.402 667.699V650.16H720.258V667.699H718.402ZM742.543 650.16V663.148H740.688V658.324H737.953V656.762H740.688V654.926H737.953V653.402H740.688V650.16H742.543ZM727.973 659.105C728.627 659.105 729.35 659.096 730.102 659.096V653.031H728.461V651.527H737.758V653.031H736.078V658.891C736.82 658.832 737.533 658.773 738.227 658.695L738.305 660.062C734.955 660.59 731.01 660.658 728.207 660.668L727.973 659.105ZM731.137 667.289V662.094H733.012V665.785H742.992V667.289H731.137ZM731.898 659.066C732.689 659.047 733.49 659.018 734.301 658.988V653.031H731.898V659.066ZM759.77 650.16V667.699H757.914V650.16H759.77ZM746.215 653.246V651.742H754.418V658.129H748.129V661.957C750.971 661.947 753.441 661.811 756.371 661.332L756.547 662.855C753.451 663.373 750.814 663.49 747.719 663.5H746.234V656.645H752.523V653.246H746.215ZM776.273 650.16V654.691H778.812V656.273H776.273V660.707H774.418V650.16H776.273ZM762.543 653.422V651.938H766.84V650.023H768.695V651.938H772.973V653.422H762.543ZM763.5 657.309C763.49 655.443 765.209 654.184 767.758 654.184C770.287 654.184 771.996 655.443 771.996 657.309C771.996 659.203 770.277 660.443 767.758 660.453C765.209 660.443 763.49 659.203 763.5 657.309ZM765.102 667.445V661.625H776.273V667.445H765.102ZM765.297 657.309C765.277 658.393 766.273 659.037 767.758 659.047C769.242 659.037 770.238 658.393 770.258 657.309C770.238 656.264 769.242 655.6 767.758 655.609C766.273 655.6 765.277 656.264 765.297 657.309ZM766.918 665.941H774.438V663.09H766.918V665.941ZM799.711 650.16V667.66H797.934V650.16H799.711ZM784.438 662.836C786.918 661.342 788.178 658.158 788.188 655.043V653.637H784.965V652.133H792.973V653.637H789.965V655.043C789.965 658.031 791.176 661.029 793.637 662.445L792.523 663.812C790.854 662.816 789.711 661.029 789.096 658.92C788.471 661.205 787.279 663.158 785.57 664.223L784.438 662.836ZM791.684 657.875V656.352H794.398V650.531H796.156V666.781H794.398V657.875H791.684ZM809.867 661.156C813.656 661.156 816.049 662.357 816.059 664.398C816.049 666.43 813.656 667.631 809.867 667.621C806.117 667.631 803.715 666.43 803.715 664.398C803.715 662.357 806.117 661.156 809.867 661.156ZM801.996 659.711V658.207H808.383V654.926H810.199V658.207H817.914V659.711H801.996ZM803.852 652.504V651.02H815.922V652.484C815.932 653.881 815.932 655.326 815.434 657.133L813.617 656.938C814.086 655.15 814.086 653.861 814.086 652.504H803.852ZM805.57 664.398C805.551 665.531 807.221 666.186 809.867 666.195C812.543 666.186 814.203 665.531 814.223 664.398C814.203 663.246 812.543 662.572 809.867 662.562C807.221 662.572 805.551 663.246 805.57 664.398Z" fill="white"/>
</svg>
