<svg width="272" height="265" viewBox="0 0 272 265" fill="none" xmlns="http://www.w3.org/2000/svg">
<path fill-rule="evenodd" clip-rule="evenodd" d="M69.3655 178.268C67.7061 169.044 70.9124 146.652 97.0136 130.879C123.115 115.106 154.285 130.178 166.607 139.685C175.241 146.347 181.535 158.716 175.012 173.888C169.698 186.248 156.872 192.647 145.192 184.989C138.604 180.669 136.954 172.735 137.501 165.135C138.047 157.535 136.752 147.574 124.702 140.898C110.366 132.956 90.9791 148.155 84.8084 159.525C78.6377 170.895 72.2068 187.233 83.4652 203.786C89.1934 212.208 105.105 228.254 132.754 233.108C160.403 237.963 199.348 226.244 213.545 186.307C227.742 146.371 192.91 124.388 168.133 118.418C181.508 113.913 207.703 100 205.487 80.3908C202.718 55.8791 184.254 44.2003 174.794 40.9947C165.334 37.7891 144.125 31.8401 119.932 37.3879C95.7395 42.9357 62.054 65.9894 62.3145 87.1433C62.4703 99.7951 65.715 102.767 68.6306 105.437C70.5898 107.232 72.4004 108.89 73.025 113.258C73.588 117.195 70.1924 131.213 67.6167 141.847C66.4825 146.529 65.5073 150.555 65.0991 152.775C63.7639 160.035 62.9539 171.067 69.3655 178.268ZM136.7 104.013C150.514 103.105 162.75 88.8025 161.536 77.5874C160.184 65.0899 146.581 51.008 122.182 55.5643C105.698 58.6425 89.529 72.7642 91.9902 82.0156C92.7184 84.7527 94.3011 85.2692 96.0555 85.8417C97.965 86.4648 100.078 87.1543 101.514 90.8451C104.245 97.8635 100.022 115.658 82.8389 132.911C82.5202 133.222 82.3689 133.38 82.3689 133.38C82.5266 133.224 82.6833 133.068 82.8389 132.911C84.4915 131.303 90.645 125.61 103.55 116.724C118.943 106.123 136.7 104.013 136.7 104.013Z" fill="white"/>
<path fill-rule="evenodd" clip-rule="evenodd" d="M259.976 135.804C259.981 135.301 259.984 134.797 259.984 134.292C259.984 132.212 259.935 130.143 259.839 128.086C259.94 130.028 259.991 131.982 259.991 133.949C259.991 134.569 259.986 135.187 259.976 135.804ZM259.976 135.804C259.165 206.9 201.28 264.284 129.992 264.284C58.1994 264.284 0 206.085 0 134.292C0 62.4992 58.1994 4.2998 129.992 4.2998C199.704 4.2998 256.6 59.1753 259.839 128.086C256.79 69.4652 208.293 22.8713 148.913 22.8713C87.5662 22.8713 37.8349 72.6026 37.8349 133.949C37.8349 195.296 87.5662 245.027 148.913 245.027C209.64 245.027 258.985 196.295 259.976 135.804Z" fill="white"/>
</svg>
